<mxfile host="app.diagrams.net" modified="2022-10-05T10:56:18.086Z" agent="5.0 (Macintosh)" etag="lfA67qL0wgClHJOpEFSX" version="20.3.3" type="github">
  <diagram name="Page-1" id="58cdce13-f638-feb5-8d6f-7d28b1aa9fa0">
    <mxGraphModel dx="2526" dy="795" grid="1" gridSize="10" guides="1" tooltips="1" connect="1" arrows="1" fold="1" page="1" pageScale="1" pageWidth="1100" pageHeight="850" background="none" math="0" shadow="0">
      <root>
        <mxCell id="0" />
        <mxCell id="1" parent="0" />
        <mxCell id="FoYi5dhtlPq60JWwSgOF-38" value="&lt;b&gt;success case&lt;/b&gt;" style="shape=umlFrame;whiteSpace=wrap;html=1;width=80;height=30;" parent="1" vertex="1">
          <mxGeometry x="-200" y="180" width="1040" height="500" as="geometry" />
        </mxCell>
        <mxCell id="FoYi5dhtlPq60JWwSgOF-41" value="&lt;b&gt;failure case&lt;/b&gt;" style="shape=umlFrame;whiteSpace=wrap;html=1;width=80;height=30;" parent="1" vertex="1">
          <mxGeometry x="-200" y="680" width="1040" height="170" as="geometry" />
        </mxCell>
        <mxCell id="FoYi5dhtlPq60JWwSgOF-12" value="&lt;b&gt;Olymp Novomind Export Job&lt;/b&gt;" style="shape=umlLifeline;perimeter=lifelinePerimeter;whiteSpace=wrap;html=1;container=1;collapsible=0;recursiveResize=0;outlineConnect=0;" parent="1" vertex="1">
          <mxGeometry x="120" y="120" width="240" height="730" as="geometry" />
        </mxCell>
        <mxCell id="FoYi5dhtlPq60JWwSgOF-47" value="" style="html=1;points=[];perimeter=orthogonalPerimeter;" parent="FoYi5dhtlPq60JWwSgOF-12" vertex="1">
          <mxGeometry x="112" y="80" width="10" height="630" as="geometry" />
        </mxCell>
        <mxCell id="FoYi5dhtlPq60JWwSgOF-16" value="" style="html=1;points=[];perimeter=orthogonalPerimeter;fillColor=#dae8fc;strokeColor=#6c8ebf;" parent="FoYi5dhtlPq60JWwSgOF-12" vertex="1">
          <mxGeometry x="115" y="100" width="10" height="40" as="geometry" />
        </mxCell>
        <mxCell id="FoYi5dhtlPq60JWwSgOF-17" value="&lt;b&gt;check for mandatory Conjob&#39;s parameters: ExportFolder+PartnerId+Version....&lt;br&gt;&lt;/b&gt;" style="edgeStyle=orthogonalEdgeStyle;html=1;align=left;spacingLeft=2;endArrow=block;rounded=0;entryX=1;entryY=0;" parent="FoYi5dhtlPq60JWwSgOF-12" target="FoYi5dhtlPq60JWwSgOF-16" edge="1">
          <mxGeometry relative="1" as="geometry">
            <mxPoint x="120" y="80" as="sourcePoint" />
            <Array as="points">
              <mxPoint x="150" y="80" />
            </Array>
          </mxGeometry>
        </mxCell>
        <mxCell id="FoYi5dhtlPq60JWwSgOF-18" value="" style="html=1;points=[];perimeter=orthogonalPerimeter;fillColor=#dae8fc;strokeColor=#6c8ebf;" parent="FoYi5dhtlPq60JWwSgOF-12" vertex="1">
          <mxGeometry x="115" y="160" width="10" height="40" as="geometry" />
        </mxCell>
        <mxCell id="FoYi5dhtlPq60JWwSgOF-19" value="&lt;b&gt;create Tempo export XML file&lt;br&gt;&lt;/b&gt;" style="edgeStyle=orthogonalEdgeStyle;html=1;align=left;spacingLeft=2;endArrow=block;rounded=0;entryX=1;entryY=0;" parent="FoYi5dhtlPq60JWwSgOF-12" target="FoYi5dhtlPq60JWwSgOF-18" edge="1">
          <mxGeometry relative="1" as="geometry">
            <mxPoint x="120" y="140" as="sourcePoint" />
            <Array as="points">
              <mxPoint x="150" y="140" />
            </Array>
          </mxGeometry>
        </mxCell>
        <mxCell id="FoYi5dhtlPq60JWwSgOF-20" value="" style="html=1;points=[];perimeter=orthogonalPerimeter;fillColor=#dae8fc;strokeColor=#6c8ebf;" parent="FoYi5dhtlPq60JWwSgOF-12" vertex="1">
          <mxGeometry x="115" y="220" width="10" height="40" as="geometry" />
        </mxCell>
        <mxCell id="FoYi5dhtlPq60JWwSgOF-21" value="&lt;b&gt;fetch Market place Products&lt;/b&gt;" style="edgeStyle=orthogonalEdgeStyle;html=1;align=left;spacingLeft=2;endArrow=block;rounded=0;entryX=1;entryY=0;" parent="FoYi5dhtlPq60JWwSgOF-12" target="FoYi5dhtlPq60JWwSgOF-20" edge="1">
          <mxGeometry relative="1" as="geometry">
            <mxPoint x="120" y="200" as="sourcePoint" />
            <Array as="points">
              <mxPoint x="150" y="200" />
            </Array>
          </mxGeometry>
        </mxCell>
        <mxCell id="FoYi5dhtlPq60JWwSgOF-22" value="" style="html=1;points=[];perimeter=orthogonalPerimeter;fillColor=#dae8fc;strokeColor=#6c8ebf;" parent="FoYi5dhtlPq60JWwSgOF-12" vertex="1">
          <mxGeometry x="115" y="280" width="10" height="40" as="geometry" />
        </mxCell>
        <mxCell id="FoYi5dhtlPq60JWwSgOF-23" value="&lt;b&gt;create IMarket Object&lt;/b&gt;" style="edgeStyle=orthogonalEdgeStyle;html=1;align=left;spacingLeft=2;endArrow=block;rounded=0;entryX=1;entryY=0;" parent="FoYi5dhtlPq60JWwSgOF-12" target="FoYi5dhtlPq60JWwSgOF-22" edge="1">
          <mxGeometry relative="1" as="geometry">
            <mxPoint x="120" y="260" as="sourcePoint" />
            <Array as="points">
              <mxPoint x="150" y="260" />
            </Array>
          </mxGeometry>
        </mxCell>
        <mxCell id="FoYi5dhtlPq60JWwSgOF-26" value="" style="html=1;points=[];perimeter=orthogonalPerimeter;fillColor=#dae8fc;strokeColor=#6c8ebf;" parent="FoYi5dhtlPq60JWwSgOF-12" vertex="1">
          <mxGeometry x="115" y="340" width="10" height="40" as="geometry" />
        </mxCell>
        <mxCell id="FoYi5dhtlPq60JWwSgOF-27" value="&lt;b&gt;populate IMarket Object :Products/prices ...&lt;br&gt;&lt;/b&gt;" style="edgeStyle=orthogonalEdgeStyle;html=1;align=left;spacingLeft=2;endArrow=block;rounded=0;entryX=1;entryY=0;" parent="FoYi5dhtlPq60JWwSgOF-12" target="FoYi5dhtlPq60JWwSgOF-26" edge="1">
          <mxGeometry relative="1" as="geometry">
            <mxPoint x="120" y="320" as="sourcePoint" />
            <Array as="points">
              <mxPoint x="150" y="320" />
            </Array>
          </mxGeometry>
        </mxCell>
        <mxCell id="FoYi5dhtlPq60JWwSgOF-28" value="" style="html=1;points=[];perimeter=orthogonalPerimeter;fillColor=#dae8fc;strokeColor=#6c8ebf;" parent="FoYi5dhtlPq60JWwSgOF-12" vertex="1">
          <mxGeometry x="115" y="400" width="10" height="40" as="geometry" />
        </mxCell>
        <mxCell id="FoYi5dhtlPq60JWwSgOF-29" value="&lt;b&gt;Marshalling IMarket Object TO export File&lt;br&gt;&lt;/b&gt;" style="edgeStyle=orthogonalEdgeStyle;html=1;align=left;spacingLeft=2;endArrow=block;rounded=0;entryX=1;entryY=0;" parent="FoYi5dhtlPq60JWwSgOF-12" target="FoYi5dhtlPq60JWwSgOF-28" edge="1">
          <mxGeometry relative="1" as="geometry">
            <mxPoint x="120" y="380" as="sourcePoint" />
            <Array as="points">
              <mxPoint x="150" y="380" />
            </Array>
          </mxGeometry>
        </mxCell>
        <mxCell id="FoYi5dhtlPq60JWwSgOF-30" value="" style="html=1;points=[];perimeter=orthogonalPerimeter;fillColor=#dae8fc;strokeColor=#6c8ebf;" parent="FoYi5dhtlPq60JWwSgOF-12" vertex="1">
          <mxGeometry x="115" y="470" width="10" height="30" as="geometry" />
        </mxCell>
        <mxCell id="FoYi5dhtlPq60JWwSgOF-31" value="&lt;b&gt;check IF SFTP configuration &amp;amp; Upload is Enabled&lt;br&gt;&lt;/b&gt;" style="edgeStyle=orthogonalEdgeStyle;html=1;align=left;spacingLeft=2;endArrow=block;rounded=0;entryX=1;entryY=0;" parent="FoYi5dhtlPq60JWwSgOF-12" target="FoYi5dhtlPq60JWwSgOF-30" edge="1">
          <mxGeometry relative="1" as="geometry">
            <mxPoint x="120" y="440" as="sourcePoint" />
            <Array as="points">
              <mxPoint x="150" y="440" />
            </Array>
          </mxGeometry>
        </mxCell>
        <mxCell id="FoYi5dhtlPq60JWwSgOF-49" value="&lt;b&gt;inform user SUCCESS&lt;br&gt;&lt;/b&gt;" style="html=1;verticalAlign=bottom;endArrow=open;dashed=1;endSize=8;rounded=0;entryX=1.4;entryY=0.716;entryDx=0;entryDy=0;entryPerimeter=0;" parent="FoYi5dhtlPq60JWwSgOF-12" target="FoYi5dhtlPq60JWwSgOF-43" edge="1">
          <mxGeometry relative="1" as="geometry">
            <mxPoint x="111" y="540" as="sourcePoint" />
            <mxPoint x="31" y="540" as="targetPoint" />
          </mxGeometry>
        </mxCell>
        <mxCell id="FoYi5dhtlPq60JWwSgOF-51" value="" style="html=1;points=[];perimeter=orthogonalPerimeter;fillColor=#f8cecc;strokeColor=#b85450;" parent="FoYi5dhtlPq60JWwSgOF-12" vertex="1">
          <mxGeometry x="118" y="600" width="10" height="40" as="geometry" />
        </mxCell>
        <mxCell id="FoYi5dhtlPq60JWwSgOF-52" value="&lt;b&gt;EXCEPTION&lt;/b&gt;" style="edgeStyle=orthogonalEdgeStyle;html=1;align=left;spacingLeft=2;endArrow=block;rounded=0;entryX=1;entryY=0;" parent="FoYi5dhtlPq60JWwSgOF-12" target="FoYi5dhtlPq60JWwSgOF-51" edge="1">
          <mxGeometry relative="1" as="geometry">
            <mxPoint x="120" y="580" as="sourcePoint" />
            <Array as="points">
              <mxPoint x="150" y="580" />
            </Array>
          </mxGeometry>
        </mxCell>
        <mxCell id="FoYi5dhtlPq60JWwSgOF-54" value="&lt;b&gt;inform User: FAILURE/ ABORTION&lt;br&gt;&lt;/b&gt;" style="html=1;verticalAlign=bottom;endArrow=open;dashed=1;endSize=8;rounded=0;entryX=1.2;entryY=0.877;entryDx=0;entryDy=0;entryPerimeter=0;" parent="FoYi5dhtlPq60JWwSgOF-12" target="FoYi5dhtlPq60JWwSgOF-43" edge="1">
          <mxGeometry relative="1" as="geometry">
            <mxPoint x="112" y="640" as="sourcePoint" />
            <mxPoint x="32" y="640" as="targetPoint" />
          </mxGeometry>
        </mxCell>
        <mxCell id="FoYi5dhtlPq60JWwSgOF-57" value="__&lt;b&gt;send File via SSH/SFTP__&lt;/b&gt;" style="html=1;verticalAlign=bottom;endArrow=block;rounded=0;" parent="FoYi5dhtlPq60JWwSgOF-12" target="FoYi5dhtlPq60JWwSgOF-33" edge="1">
          <mxGeometry width="80" relative="1" as="geometry">
            <mxPoint x="122" y="660" as="sourcePoint" />
            <mxPoint x="202" y="660" as="targetPoint" />
          </mxGeometry>
        </mxCell>
        <mxCell id="FoYi5dhtlPq60JWwSgOF-24" value="" style="shape=image;verticalLabelPosition=bottom;labelBackgroundColor=default;verticalAlign=top;aspect=fixed;imageAspect=0;image=data:image/png,iVBORw0KGgoAAAANSUhEUgAAAgsAAAImCAYAAADdbckmAAABVmlDQ1BJQ0MgUHJvZmlsZQAAKJFtkM9KAnEUhT/LkESiyGWCtAgJjRgNW7SxWYTgQrSg2o2jafmnaTSqB6hVr1C06BGCwE0ta9Mmilq1qwcIJCiZ7milVj+4nI/D4XJ/B/qcmmGUnEC5UjNTC/P+5ZVVv+uZQXy4cTGr6VUjlkwmJMK39r7GPQ5bb0P2rtGJuHpT9xyXo4n9Yjp08jff89zZXFUX/ZCZ1A2zBo6AcHKnZti8K+w15SjhQ5vzbbb3ejNtPmtlFlOq8JXwsF7QssIPwsFMl5/v4nJpW/+6wb7ek6sspUWHZMZIoxBBJcwM09LN/9lIK6uyicEeJuvkKVDDT0wcgxI54TgVdKYICiuyTUGxO/7dXcfbeILoC/QVO54+DufXMHLQ8QJ38o0kXMwZmqn9NOpoOKtrYaXNHhMG3izr1QeuOjRNy3o/sqzmKfQ/wuXWJ/KGYDpOH3N0AAAAemVYSWZNTQAqAAAACAAEAQYAAwAAAAEAAgAAARIAAwAAAAEAAQAAASgAAwAAAAEAAgAAh2kABAAAAAEAAAA+AAAAAAADkoYABwAAABIAAABooAIABAAAAAEAAAILoAMABAAAAAEAAAImAAAAAEFTQ0lJAAAAU2NyZWVuc2hvdBUH9vYAAALvaVRYdFhNTDpjb20uYWRvYmUueG1wAAAAAAA8eDp4bXBtZXRhIHhtbG5zOng9ImFkb2JlOm5zOm1ldGEvIiB4OnhtcHRrPSJYTVAgQ29yZSA2LjAuMCI+CiAgIDxyZGY6UkRGIHhtbG5zOnJkZj0iaHR0cDovL3d3dy53My5vcmcvMTk5OS8wMi8yMi1yZGYtc3ludGF4LW5zIyI+CiAgICAgIDxyZGY6RGVzY3JpcHRpb24gcmRmOmFib3V0PSIiCiAgICAgICAgICAgIHhtbG5zOnRpZmY9Imh0dHA6Ly9ucy5hZG9iZS5jb20vdGlmZi8xLjAvIgogICAgICAgICAgICB4bWxuczpleGlmPSJodHRwOi8vbnMuYWRvYmUuY29tL2V4aWYvMS4wLyI+CiAgICAgICAgIDx0aWZmOkNvbXByZXNzaW9uPjE8L3RpZmY6Q29tcHJlc3Npb24+CiAgICAgICAgIDx0aWZmOlJlc29sdXRpb25Vbml0PjI8L3RpZmY6UmVzb2x1dGlvblVuaXQ+CiAgICAgICAgIDx0aWZmOlBob3RvbWV0cmljSW50ZXJwcmV0YXRpb24+MjwvdGlmZjpQaG90b21ldHJpY0ludGVycHJldGF0aW9uPgogICAgICAgICA8dGlmZjpPcmllbnRhdGlvbj4xPC90aWZmOk9yaWVudGF0aW9uPgogICAgICAgICA8ZXhpZjpQaXhlbFhEaW1lbnNpb24+NTIzPC9leGlmOlBpeGVsWERpbWVuc2lvbj4KICAgICAgICAgPGV4aWY6VXNlckNvbW1lbnQ+U2NyZWVuc2hvdDwvZXhpZjpVc2VyQ29tbWVudD4KICAgICAgICAgPGV4aWY6UGl4ZWxZRGltZW5zaW9uPjU1MDwvZXhpZjpQaXhlbFlEaW1lbnNpb24+CiAgICAgIDwvcmRmOkRlc2NyaXB0aW9uPgogICA8L3JkZjpSREY+CjwveDp4bXBtZXRhPgrqQmzyAABAAElEQVR4AexdBZgUxxIu3N3dNbjr4cHdeYEggYQQ3N3dCRYkOARNcHeX4Hq4c7jLIfv6r0sPs3trd3DcHVTttzvt3fP37FR1VfVMCIsiEvpkBB49ekQxYsRwq53Xr1/Thw8fKGLEiG6Vl0KCgCAgCAgCgkBgIhA6MDrftWsXRY8enTJlyuS0+6dPnxLKFihQgMs7LRxImcNHDKd7d+9x7z179qQoUaK4HMmiRYvo5MmTFCJECMqbNy9Vq1bNZR0pIAgIAoKAICAIBBYCIQOj49WrV9OmTZtcdn3x4kXatm0b4fi5CSv7cePG0fHjx/3d9K1bt1hQSJYsGXXu3NlKUDhx4gQNGjSIunTpQhAOzPTDDz9Q06ZNKUyYMHTo0CFzloQFAUFAEBAEBIEgh0CgCAvuopA4cWLKmjUrJUmSxN0qbpd78+YN3bhxgy5cuOB2HduC586d4yQPDw+KFSuWkT1//nyaM2cOQTMCoeTZs2dGHgIhQ4akNGnSUNy4cen9+/dWeRIRBAQBQUAQEASCGgIBZobYsGEDnTp1iuAS8d1331Hp0qWtzh3ps2bNIi8vLxYG6tSpw2p5FLp69Sqhviao620JK/J9+/bRq9evKHmy5FSzZk3bIgQNxvnz58nb25uSJk1KVapUofDhw9P06dPp3bt3XP7MmTM0depUDjdo0IDChQvnqx1HCdrdA22aKUKECJQnTx4qU6YM9evXz5xlFQ4dOsDgt+pHIoKAICAICAKCwKcgELp///5sP7fXSJYsWah79+72spymQQiAoIAVNBj95s2b6ebNm9S4cWOj3u3btwlfqOLv379Pd+/epdatW3P+q1evOO791ptevXxF165dozhx4hh1ly5dSvv37+f2wdwPHjzI7bdp08YoM3ToUHrw4AGFChWKIkeOTEeOHKH48eNT0aJFWUDBih+k+0JYpyHsDmH8ILRvpqpVq3IUjozOCPUgcEADETVqVGdFJU8QEAQEAUFAEAg0BEI3adKEOnbsaKy09Uiw6jUzd53u6gjmd/r0aYoUKRLB4Q80YMAAOnv2LL19+5aFA91G165deQfB6NGjWXDQ6enTp2chBQx+wYIFOpmPYMAHDhxg/wDdPtT+R48eJeRhlb9z504WFJInT06//vor17t3756h8u/WrRsLCb1796YcOXL42cHw2LFj7OsAgQjCSoIECazG6G6kYMGCLKiNHTuWsmXLRrly5fJ3W+72KeUEAUFAEBAEBAG/IhAyYcKEVLJkSV/1SpUq5S/Gdf36dV4tw98AmgV84QAIunLlCh/xA6autxqmS5eOV/Wenp5GvqMAzAYQSF68eMHCCAQGMG3Qxo0b+QjBBFS2bFk+4geaCWgWPgfBORMOjBgHdmr4l1KkSMHmEfg0YNfHpzhb+ncMUk8QEAQEAUFAEHCFABvNa9WqRbt37zYc8aASt+cD4Kox5D9+/JiLxYwZ0yiunf+ePHlipMGurwmOfiCYG9KmTauT7R51+3B6jBcvnlUZaCRAL1++5CP8FAKC2rdvz6YDaASwW8MslPilP5hncM45c+ak2rVr+6WqlBUEBAFBQBAQBL4YAiwswGQAO/vs2bO54xo1arAZwT+jgOofBCdFTZcvX+agmXmbdwhojUK+fPl0FYdHrMZB0BRgnPYIggp8JGCOgI+CPdLOhdgV4R+CQJU9e3basWMH4fz0uPzSFpwvQf4VzPzSl5QVBAQBQUAQEAT8i4Dhjo/dClCvw+EQJgj/Epgo7Phw/luzZg2bIcC4w4YNy1sFdbvYjTBjxgzKkDED2+1Rx9ZRUJc1HyGMwIRx+PBhTi5RogSbN7DCb9GiBedh/DATwCwBPwas3NeuXUuZM2dmBo+KOE+MCSYL7KyA9gNt29t5Ye7fHIaQBbIVOLAdcuvWreyjgfyHjx4ythAoUqVKhSQmOFSiP5hqhAQBQUAQEAQEgaCKgCEsYKVdv359ZqCfyrywDXLu3LkEBg7CjgSYOswEZg3/A3zBMLHN0F3CA42mTZ/GTF4/1EhrCtAGfBPKlStH69atoy1btvAXfcCJ0EzQZMBXQD80yd0nMOo28BRKEHwmtAkE8YcPH1pt/cQTHrEVFM9W0MIC/B2wW8M8btQVEgQEAUFAEBAEghoCIRTTCrB3Q8ChEc07UtFj1Y+nM4LRQqCwpVWrVrGav127dnadE+G/AHMHnDTNWyvN7cDhElsT4QsBAeVzEnZ3YEcFtCQQsHr06OGWdmTZsmX8jAiMBY+8xvMdhAQBQUAQEAQEgaCKQIAKC/496cWLF7OzJWz6YMIDBw70b1MBXg8mB+xiwLMiihcvblfosR0EBBgISXDS1JoG2zISFwQEAUFAEBAEggoChhkiqAwI48BjlPGwJOySqFChQlAamq+xQCMCR0e/EISEgHiEtV/GIGUFAUFAEBAEBAF3EQiSmgV3By/lBAFBQBAQBAQBQSDgERA3/IDHWHoQBAQBQUAQEASCNQIiLATr6ZPBCwKCgCAgCAgCAY+ACAsBj7H0IAgIAoKAICAIBGsERFgI1tMngxcEBAFBQBAQBAIeAREWAh5j6UEQEAQEAUFAEAjWCIiwEKynTwYvCAgCgoAgIAgEPAIiLAQ8xtKDICAICAKCgCAQrBEQYSFYT58MXhAQBAQBQUAQCHgERFgIeIy/SA+PHj1yux+8k+Ply5dul5eCgoAgIAgIAt82AkHycc/f9pT47eyHjxhOeKslyN23ZuItmydPnuS3febNm5eqVavmt06ltCAgCAgCgsA3hUCwfNxzq1at6ODBg1YThddPT5o0iZo0acIvaZo2bRqlTp2ayzRq1IguX75M06dPN17chDdGlipVit8YuWnTJgofPjyXvX37thXzzJ07N5UuXZpKlChhlMHrr6tWrUp4VTbo+fPn1KxZMw6jj3nz5nFfnGD66d+/P924cYP++OMPU6p1cOvWrUY/1jm+Y7du3aIxY8ZQsmTJCK8FjxUrFhfq1q0b4QVXtlSoUCGqWLEiffjwgTGaNWsWhwcNGmRbVOKCgCAgCAgCgoCBQLDULNSsWZPf8Pj777/TmzdvqEOHDhQ7dmw+KbzN0dPTk1auXElt27Zlprh+/XrO8/b2Nk4cwgbKgfbu3UvFihXjMIQIvPa6RYsWlCFDBn5FNoQCvEZ6yJAhXObChQv05MkTDuOFVxBGLl26RCtWrKAIESIQTAJoY+LEiVxG/6C9RIkSUfTo0Tlp8+bNtHTpUsJ54IVUIUKE8NNrtPHCLZCHh4chKCCeNWtWFoIQBmFsz54949dhI443eaZJk4Zf1HXz5k0kCQkCgoAgIAgIAg4RCJbCQuHChfmEwGgtFgtVqVLF6gShDUAehIVVq1YR4raaiA0bNnB66NChCZoFLSzohqCeL1myJGsZ8PrpZcuWGcKCLgPBAhoFMG0IChAENEWOHNnXuJCHMhAaQA8ePOBxQksBBu5XwrmDtFZE169du7YO8rFHjx5cJkWKFFbpOHchQUAQEAQEAUHAFQIBzi2geod93B5lyZKFunfvbi/rk9Kw0oaK/fTp07R48WI2TZiFBTBZaB5+/PFHAsOcPHkyYZyOGHaYMGEoSpQoVmOCoPDbb7/R/v37ua3kyZNb5SMC7YKZEiZM6CfNgbmuvTBMJiAIJo7o+PHjBI1Knjx5fBVBPWDx9OlTiho1qq98SRAEBAFBQBAQBIBAgAsL8CHo2LGjlVqcO1ZMunHjxgEyC1DpY7U+YMAAunv3LhUsWNCqn7NnzxIYLYQKCAsod+LECVbf64IQLrBrACYKmDHgPGgmmA5A8GdIly6dOYvD8GPInz+/Vfr27dtZ/W+V6I/IsWPHCELAqVOnKFy4cJQgQQKHrUBrAipfvryvMsAFgtzYsWMJPh+5cuVy2pavBiRBEBAEBAFB4JtAIMCFBaymoc5ft26dFaBwLnTG5KwK+yNSuXJlqlChAvsTQDNgJjBQrKozZcrE2gSE4T8AW7+mGTNmcBBMH2Nt3ry5zjKO8GuYMGECrV692hczRpu7du0yyiIQM2ZMq7h/Ixi/l5cX+zgUKFDAYTMQdlAO/hzwpbAlmCWSJk1K165d47GGDRs2QOfEtn+JCwKCgCAgCAQPBPxuKPfHedWqVctKjQ+VN5wUA5KwUoZGA46JtrR27VrewdCwYUMjHwzfTHBOhC/ClClTaOPGjSwQmPNbtmzJJhRoFuAbce+ez/ZFc5m4ceOyE6E+fi4fgfbt2xP8ECCQbNu2zdylVRj+GjAzaB8Pq0wVgYAEQSFnzpw0dOhQ1pLYlpG4ICAICAKCgCDwRYSFSJEisVlAw12jRg1CWkAS/A/AxG1NBFhpHz16lOrXr89OjXBsxHMGzpw5w4zTPCbsToB2onr16tS1a1e2/et8ra3QOyS6dOmis77IEQJX9uzZWRjAtlB7BHMFTDK25hBd9vz58xwMaMFN9ydHQUAQEAQEgeCJQICbITQsWIFDfQ4mC7X+pxAYO8wD2E0Agn8BVtl6l4Gztrds2cLZ0Dro7ZaPHz+m2bNnE/KKFy/uq3rr1q151wIeZvTDDz9Y5ceLF4+dIyGYYAcGBAtNZqdKpGEnBMwyn4u0wIXto7aEbaFIxxZJR4TnLUAgcuTY6aiepAsCgoAgIAh8Wwh8MWEBKnis5mEX/1Tm1KtXL9q9e7cxU/BPwOoZzBoEBuiIsGUyc+bMhqCAcnjuAbZXIg8PX7IlPNwJGoZhw4bxw49s82Fm+fvvv1n7AJU/+ocwg3GZCaaDX3/91UhyNk6jkJOAfl4DHB3Tp09vVVI/W8KeYyMKwjwBYetzmUasOpeIICAICAKCwFeFQLB8guNXNQOfcDLYvtm7d2/eaQIBTPsxuGoSz4zYt28fF4OTpz2/DldtSL4gIAgIAoLAt4OACAvBfK7xWGdso8SDo2BCgY+CK7p+/To/2TJJkiTG469d1ZF8QUAQEAQEgW8XAREWvt25lzMXBAQBQUAQEATcQuCL7IZwayRSSBAQBAQBQUAQEASCJAIiLATJaZFBCQKCgCAgCAgCQQcBERaCzlzISAQBQUAQEAQEgSCJgAgLQXJaZFCCgCAgCAgCgkDQQUCEhaAzFzISQUAQEAQEAUEgSCIgwkKQnBYZlCAgCAgCgoAgEHQQEGEh6MyFjEQQEAQEAUFAEAiSCIiwECSnRQYlCAgCgoAgIAgEHQREWAg6cyEjEQQEAUFAEBAEgiQCIiwEyWmRQQkCgoAgIAgIAkEHgS/21smgc8qBP5LLly/TpUuXeCAxYsSgHDlyBP6g/DmCY8eO8Wu348SJ488WfFc7dOMo3X1+n8qlL+k7U1K+KAKv372h8KHDfdE+P2dn3u/fUthQYT5nk8GuLf/MYXD6Dx64foTnJE+S7MFuboLTgEWzEAizBQY7efJkatu2Lb/2OhCG8Nm6xGvHV69e/dnaQ0P9N42ihgtbuWyzz4bhNOvfhQ7Lucp3WNGPGc/ePKfoPdNQr/VD7dZ0lW+3UiAmXnt8kxL0z0whOsWjCN2SUvJBOan3hmGBOCLXXXdY1Ydi9k5HYIwW9Sk1tSaF6ZKIwnVNTLH7pKdflnakp6+fGQ29+/COyv/5Py6DcmWn16W3Kk2Tq3yUW3hsOaUZmo+i9EhJx2+f1lXtHs3ju/HkFtf5aXFbq7IZRhSiVEPyUMNFrTi/38aRRn79v1pw2oDNozlt6LbfeW5wbdmjV+9eU+sVPShu34xcLlTnBFRkUhV7Re2mufsftFv5Cye2+LsL/biwZYD0+qXuIQEy+M/cqAgLnxlQd5qrUqUKLV68mKpWrepO8SBdZtCgQVSgQAGXY8TbMadNm8bfe/fuuSzvToFJ+2bSwqPLHRZ1le+woh8z+m4cQU/ePKXmBRrarekq326lQEx8b3lPWRJkpPFVBtPsOuMpUbQE1G/TSBqzc0ogjspx12CMY3dNpVJpi7AW5IPlA+24tI+a5K7H4y+RxoP+2D+bas9rZjTysxIe1pzdRF2LtaLepTrQunNblID6keG4yveYWJnqqPbA+J97vyBHTBsd2o4vcbSEVDHj9zT94Hw65XWOxzR8+wQ6e/c8jazQl24+uc1t4voFQXD56+g/nAaNG+jBi0csGOFc7dGATaNpnMKkRuaK9E/DWdS7ZAceq72ywT2tU9EW1KXYx7n7nOfzpe4hn3PMAdWWmCH8iKyXlxetW7eOXweNVzyDbty4QZs3b6bSpUvTq1ev6N9//6Vnz57RkydPCILBokWLqHDhwpQ/f363ejt8+DCBoSZMmJDWr19PqVOnpvLly1OYMB/VqXfv3qWdO3fy66ljxYrFfadLl85oH8x5/vz5HMcYokSJwuF3797RwoULCWVz5crFad7e3pyWOXNmypYtG6e5ah/nq5l+yJCuZc43b96Qp6cntw0M3TFb4AY+bf88ypYoE7Uv0pwihA7P9SftnUnn7l3gleKRWyeojVpBgZrmrU/fxUtHrvJRZ9ahhVQ1U3n6fdc0ihg2AnVWNxvUNROY47XHN/iGWyB5bnOWEYaae8KeP6lChu8pQZR4RroO2Ob/c3ItnX9wiToWaaGLGMfRO/+gUCFC0aWHV2hIuZ6+1P8rTq+nHZf30rv37xzmAxd7betOwJym7p/jsv76nz5qbGpmqcSr0/WeW6lN4Y8MV7dp7wiBY9i2CbTt4m6KHyUutSjQmGzVxFht18lWhU7eOUtLT6ymmBGj08AyXQnMFAQ8Nnhuo2wJM5FHynx06s456lDkV1/dDdkyjhnqsPK9OA8YPh94mcKE9Lm91c9RUwkPe/mLAtA8zD+ylAoky039Snemo7dOUs/1Q2jRsRUsXIQMEdJpPtrHNdmtRGt6+PIx/W9Bc19jMifYjg95U6qPpOWn1lHdeT/TjubLqdvaQVQ0VUGqkqksTdj7J0ULF5XuPLtLnvcu0hE1vtAhXb963twnBIWcibLSxGo+2q7KGctQr1LtzUU4DM3cmrOb+b9UTPXfqlBTq+vO0X8QlaGBGrF9Igs5mRNkoD6lOlKUcJHp8asn1GfjcIqn5n3PlYPUo2RbmrpvDl8Hvb/vyPMCDRD63uS5gx6/fkKZ42fg/2C8yO6bMzG27WpeQbb/3RN3ztCMgwuoSZ7/0egdkylEiBDUR/WdKGoCLo8fjHPB0b9p1ZmNfM4Q4BrmqsP5ru4hrsaP/C5r+tMPOWrQkuOr6Pz9S3x+tv8BCJvAEP9L3D9aFfqJciX2uQdjIDMP/UUrT2+gEOrTOE/dQDXNur7LM3TyoxEAk9uyZQv99NNPBCb79u1batasGTN15J06dYpatWpFGzduZBMDVt1Iq169OjN23Y6z44YNG6hly5ZcB3V//fVX/uo6EEIKFSpE06dP5yQIJ5MmTdLZfISw0LlzZ/4+fPjQyAsdOjQLMvXq1aNr165x+uDBg2n48OGUOHFijrvT/unTp2nPnj3Url072rVrl9H+5wo8ePmI1cTHbp/iG3n20SWMpsE09l39VzGI9/T8zQsOI/7ghc95usrHqhMr0eJ/VCPYO+cpxpFtdHHyem6t8Ri8dSwzLDBJRzR652Re4Y2s0MduEdt8nE+n1f2YuZkrgIGBeSIfYwNzs6WuawfQqtMbnebPP7LMtppV/L3CzFn7tvWhmp+4Zwa3UTx1Iau2nEXy/V5OMcCBzODRZt7fyzDjN9cZuWMSz3GjRa3pyM0TtEwJDLixgmA2aLeyF/174xiNUjf7ctPr2TWFQCjBzRZjSxbd5/pFfS0oIAyCABAjQnQOgwnjZl46bTGOV5n5o2LGoXlOrj++xUzaWT4qjas8kMqkK871nf04Gl/kcJFocvXhBKaWaWQRbmLRD1ONpiKEDc8M9Pfd0xn/8ulLGXnuBOJGjs2CxhmlrXBEMNXA3Lf2zGZ68uopdV83mDae324Ud/YfhMANkwkE5VtP7/AcpR6al+tC+4FrbPDmsTzn+X4vqzQ3W2nw1nH0mzIZgA7fOM5zfOauJ71481K1M4PNXbefeXG+Oz/nlCAFgQHXx8AtY6yq4H8NYRP/6w2e2xXTXUhJB+awMjUB9zYrevI95NLDq9R8WSejDVf3EFfjf+n9ijHIP748Td47izaqMeA/sOn8DqOPfdf+pRSDc3O5++rete3iHqo55ycjv+KM+oT/xv5rh2nLxV38X3FmdjUqBlTAIuRnBBTztahVuKVfv36WgQMHclitsrmdlStXWtKkSWP58OGDpXXr1pa6detyesGCBS1Kw2DVV69evSy1a9e2SkNEMW9LggQJLOfOneM8pSHgNpVWgOP//PMP56vVP8fxozQaRhgBtZLnMmjnypUrVnlKkLA0aNDAorQVFqUl4XKK8Rtl3GlfFwYOM2bM0FGnx/v371uAE/p3RpVm1LdQx7iWnZf2cbHOq/tbQnaKb3n7/q1VNWWPtZSd5oOvVcZ/EUf5SmPA7f+8pAOXVNI9x8fvnm7VDOpjHMoXwSpdR5QK2BKle0pLgfHldZLV0V7+wetHuM1dl/dblA3dMnnfLIu6UVsUU+R0nHPozgkt7Vf25rbmHl5iOePlyWGkKwbqMt9qEHYirtrXVZSAxrgDg++n1rK8eeets5we1U2Qz6XFsi5cTq3gLGG7JLZkHFHIqh7axbwqzQKnK3W7RanXORytR2pLySk1OAycUD9it2QcN/+M2zWN+zp265Q52So87cA8LoN5B6mbL8eRPmTrOMZTMRxOUzdsl/nmxucdXsr1MJ/2yNX40gzJx/UHbRlrVMd5x++XyYLxAgdgtPn8Th5ny3+6cbmOq/pyPWBrj/48OJ/zgXGi/lktyvZu9f9RJhjOb7q4nVHd69k9i2L8HHf1H/xuRGGek2evn3N5zCH6wjjP3b1ghLuvHcRhXDvFJle15BxTistjThWDNPpWPh9czoyDkekikGvs95b0wwtaldJzjv8LaO/VQ9z++nNbOa7HO3L7JI7jB2OyJUf3EFfjx3UMPIATCPcC/O/0fwJpKQfn5jSNOdIO3zyOg2W7ug5RH/c+TQXHV7CkG1ZAR7/4UcwQNlLYmjVrqH///japPtHKlStTly5dCDsY/vzzT6pUqRJnLF26lGLHjm3Ugcofaq9o0aKx5gEZMBU8f27fGcmoaAooJk9p06blFJgHUPf69euUPHlyw3wAB8mKFSuyiQMmCzOFDRuW1f7qiqJIkSKZswhmgzFjxlCRIkWoUaNGrH0wm0i0ecJZ+1YNuhkBBu5S2FBhqVAKn5UKVo1w6IK62Kyic7ctR+VqZa3MWVBNxooYg/45tZbV5br8+U776M17b1at6jTz8U+l5nzm/ZxGVepnTjbC9vJzJs7Kq1isNM4qkwFW0NACoR2sfvMnz0UZ46WlnZf3846QHxb8SmXTlaAxlfrzyhcrTKxOnOUbA3AQcNW+rta1eCvC6gd+IVsu7KLNF3bwWHS+oyNUz6C62X18cqKFj8qr5FNeZ31VwXxqFTLU+zBFXH50jX1AqikzEQiqbZSBicWW+ip1N8wU8LGwR+rmS82WtKf8SXNRa6ViBymhk4+KObK2AtjGihjTyNMqf0f5XNDNH2fjw8od5wrapFb08J8wU+PcddnEFjFMBNacmPNchRvlqstmjR5KW6AYJJsFRu/4gx70O8umLqz0QZ2K/mY0BW2EmZz9B7GqB2UcUdhchf0ktDkoTuRYFDtSLL6usSMFmp1bT300B5jTtec2s+kHWjQlTHA7t//LV0zaoR/IkTabKX3cNFb9OorABAXKm9Rnxxn6+j5tUf6PYZcPHHdh6qmWuTynO2rHNt3V+HV5+IyAYEZIHiMJ/5903pVH16lQ8rxW5svsCTNz9lqlMQFBk6C1fY9ePWa/FVw3uF99aRJhwQbxjBkzMvO0SeYoGLWmRIkSUeTIkZmJa/W9zgOjBkHlHyqUj60RDFppG3QRl0dzm9pXAUwFhL5XrVrFZoiePZUaTQkSffr0YXOIuWGMzxFBoEmaNCmp1T4pTYhVMXfbt6rkIgJzzcSJE7mU0qZQ/PjxndaIFt7HxwKF9Na99w6cuZw25CQzZaxkRi5uahfuXzbiCEQ1jcEq478IbsS4aeVNYn/rq7183DTSxklJW5UtP3yYcARGsOTESgqjbqYpYybjG3mJ1IXpj32z2dse+dsv7aH1ntv4pgvbvat8e2M1p7lbH74K+MJ/InL3FNRnwwi3hAVtDkodO4XRbdLoiZTt/YQR14FSyvnQli4/8GGgiaN/FIBjR4qphAXrknD6w41zSf0/rTP+i2E+C06oQOh7yy8fzTNJVBwEP4X0cVOzgKg0AJyWLEZiCvffVlFH+VzQjR9X44ODJBwUuxVvQ4OUGh3+GWBkmsCQepVsT36x4+u6OKaIkZTm1fUxT8L/pu3Knmyfh/8CBCFQ8phJ+Gjvx9F/EKYVOF1C0INN3kwZTEwcpqAwoULzdYsyoVUYZjAQTAftV/Vmvwq0EVMxP/geef8nNHRRgtPLt6+4rO1PXD/4NeA/BcL/DsK4vocgfqDVejZ1gSHDATZNrJTk2dm3+c+2f8RdjV/XMeMbNnQY1b/P+cPpFXNvxkvXwRGmMhBwsKXA2goswoLNTEAgMAsFNtkchZPgL7/8QlmzZmWnw59//pmU6p60kGCvjr00aB60k6C9fGdpeDYDvvCb6N69O40YMYL9KLSzIcY4fvx4gmahcePGrOUwtzdsmJKolcNh06ZNqU2bNpQpUyYWHnQZV+3rcu4eISzcvHmTi0NAcSUsuNNumJBh6IX3S4dFXeXD+U47NF1+eM3XjQ9bIT2VY9JPykmqpA1Tg7Mh/tDTa/psZbMdhLP8Eqk9aPahRcp++pb+qD6CmqgtdFGUDbtqpnLcDJwlYW+dvG8mtfdoTvCU/2PfLGZ6sK27ytdjgcf+ufsXmAHNqTNBJ7tdX1fATT9S2Iik1Ms6iY+O2k8VOznnQwPyv+zVOXxI+R5ECetbeMXq1ZYgEOHGjvoVFRYg+HLYEhzIsFormqqAbRbdfHqbso8pQdEjRKNjbbcaAicKJooW32BgKxrO4bpbLuzktGSqvVBKsEf/IHv5nOHGj7PxrVY7MXB+EAb6ft+JHW7rzf+FvHpbnyfyPgfVzFqRhYWtSkMEYSFjXB+tJZwbK2Us7acuoAGCEBs1fGRDW2NuACt1V4TVMpw4D7XewEWhuTJTO49fzNEACcOpcmPTxezwCgdTZZJiXyGPlB8d0R3dQ1yN39WA4ayNax8+F/ZIa9sqf1eGr3F7Zb50ms8/4kv3Gsz7Gzp0KJ05c4aZMdT52A2hfBf8fFYeHh7czooVK0j5FdDLl44Zn7nxvXv3skMldlw8ffqU4MAYN25cNn3octBiQCCA4+Ljx491Mh+xkwGCxNSpU0n5TbDQA+EHggfIVfsQRNCmbhfjQBhjcYdgovkcVCx1QVbrYYcBVpG2KxFX+T3WDSFlayZlByZvZW6o/Z9ZQo8Nq42Fx/5RKv99Osk4wkkxYdT4Dr2TneWXTV+c1exoDKuqcOqmgRUyzA2gwopZgk57eVL9nDWpcAq1E0B5S+ubmKt8rqx+zt47z6aMszZM3lV9bOnDHv3dVw4wPg3++o2gAv0l/4+6aT46ar9yxrLMbLuuGcj1oeq9/uQmlcvgc35WjdiJQCDKmuA7mqK0KxCaIEzpLYO6OBjtVbVTRau8dTqOcE7MOqoYq2x7lmintDJbafHxFWrHxSouBmYH50as7E4q0whW9CvPbGChA6s2V/loBI54aE/ZwrlNZavnODzsQa7GV3fuzwS1Pzz0QXPrTuRroOc6n90LnOjGz7KTq/nccH746t0BeZVTIZ4RgOsGqveas3/i1n4r0ISPTfP9wHP089IOrOYGvpgnmJ3coR9z1mbTFLQBUKdj22er5d05zZ362BUA0xuuMTj2NVncxp1qVmUgEOL7Rs3367evOYw4nIVdERw/2yoHWtw3Hr18wttVUSeGMoOZydE95HOMHzuBcA3j+oY5CtjjfwdqrLb94n+g/Dx4XnFdYX6bLmlnHt4XDYtmwY9wb926lSZMmEBz5syhePHicW3EoVrHDgUzgSmaGaNe9esy2KbYqVMn6tGjB5sD0GaJEiWs6uiyOOr6YMxNmvj86ZEOLcCoUaMc1jOPAdsWmzdvTi1atGCfBdSH4ICtndgV0bt3b2b8zto/ePAg79RAXRDq4QvfCmz1tEcRI0Z0+wFUUBHaI9t0rLpxU646uyEXn1l7HOEmpslVfoQw4anwJB+/k4LJ8lCJNIV1Vaujbb+wycN+/mctaw9sXclVfrFUPtcJtsqBoLX4+9QaQwWNlTw8+x8rD/U0sVOy7R9e6vqJlq7y9Tj0Ua+SddxVfXhyK2dPtj+jDsxAWOH3/r6DbsLqaNs+/A6gccFNUOMLc834KkOs6jmLzKk7gXerYEdE5LCR2Ofh2iMfzRTqQYUdR5mOYCaxpQcvHzLjRXqLf3y873UZyzAfm/n8epNY84CdEKAk0RLRoh+m6WLkKh+aI/ibaOq9cRgHNzdbyv4FzsbXSgmnYJRrmsxXV7rPtQ7tCK5B+ObAjm2Lqe5H/5d1fuNF1kwW182Vbv8qjUpU6rtpBH9RF4JJ31KdSJuGsE0Pz1+oM7eZsfUTzAnbB0F6XBwx/ej0MZUH8C4I7HrAF4TrpHrmCkZpjFGX14k6jm2nwLDQxIqclUeZ8m6o50vo89LlHR0hECYekM0qW8fv9DpplW6O6PYhYOAaH6OEURDGDm0GtA1mcnQPcTX+kA4WRPr80Qd2w9x7/oCUMyp/kaYXDPgPrW48j2rMbkK15jZFFpOthlOnf4ljCLhUfomOpI/PiwBW97dv32a/CThcfm4K6PY/93j90h5ubmwfHXKTrj26wc9ZsPeMBEdtYtUGlfyj/p6+boao4yrfUbtBKR02aZhmcFO2vYG6O07YZ7EFDc9ZsHWec7cN/bhmPEUSTowrGs1h34ccY0ryQ6Pw/IZPIexz/6BugfBrsEeu8u3VgW/G5xqfvfbdTYNdHCtnMB7z8wVs62N1+0g9L+K7+Ol9bTm1LWsbx/VxWmkvsCKHj4RfCVoJ+GYEhsMeNBDAB9eYVvsHxvgxT6fUs0bw8DN79yE8z+L+iwe8cABWgUWiWQgs5D+xXzhP6odCfWJTdqsHdPt2O1WJeMRwQNOYSgOMLvTecCPBRQAr0/7qQT5wksMqwXa8rvJdNC/Z/yEwvHxvOqjeEYKdMHi2BBianjc4w0FoKJdeaeG+wPXi10nByj4oj8+v5yPlgx4CWkP2JUcmmoUvibb0FSQQgO0P9tXr3Y+wXTBIDEoGYYUA5gh+H3hYDbbcNcxVm/qW7mRXk2NVUSKCgCAQIAiIsBAgsEqjgoAgIAgIAoLA14OA7Ib4euZSzkQQEAQEAUFAEAgQBERYCBBYpVFBQBAQBAQBQeDrQUCEha9nLuVMBAFBQBAQBASBAEFAhIUAgVUaFQQEAUFAEBAEvh4ERFj4euZSzkQQEAQEAUFAEAgQBERYCBBYpVFBQBAQBAQBQeDrQUCEha9nLuVMBAFBQBAQBASBAEFAhIUAgVUaFQQEAUFAEBAEvh4ERFj4euZSzkQQEAQEAUFAEAgQBERYCBBY3Wv0zZs3dOjQIXr9+rV7FaTUF0cAL9TyKz169Ij27NlD79+/92vVb658UP8PPH/zgpadWE3P3jz/onODV2DPPbyE8JKhb4VwvnhVc1CloD6+T8UNr2p39opyERY+FeFPqH/nzh2qVKkSXb58+RNa8VtVvIK6aNGitHz5cqMimBvSVq1aZaR964ENGzZQ06ZNKWnSpJQwYUKqX78+ASd36Pjx41SjRg3y9vZ2p3iAlClXrhxNmTIlQNp2t9H9+/fTX3/95bR4YPwHnA7IJvP8g0tUfU5jOnj9qE1OwEZx467/VwvyenbP3x3hrZ//W9CcDqkXcgUHwvkuOb7ysw61z4bhNOvfhZ+lTf+Mb+Gx5dR17cDP0n9AN9JsSXvqvLq/w25EWHAITcBnxI4dm0aPHk0JEiQI+M7+6+HWrVvk6elJQ4YMIb1qxhFp9+/f/2LjCModQXhr2LAhxY8fn/7++2+aM2cORYgQgZ48eRKUh201tgsXLtDjx4+t0r50ZPfu3TRjxgyn3X7J/8D58+dp2rRpNHv2bKdjMmcmi56EuhVvQ+nipjInB4swXr08/8gyOnDtSLAYb0AMctK+mbTw6MeFUUD04azNZSdX06Q9M50VCTZ58opqP06Vl5cXrVu3jooXL268IvrGjRu0efNmKl26NDMYNImb9Y4dO+jq1auUPHlyqlixIuHGCPrw4QMtWrSIw/gJGdK3zAYV9vz587lMlSpVKEqUKEb5w4cP071793jFu379ekqdOjWVL1+ewoQJY5RBv9AUQADIli0bVahQgUKFCmWVj/NAui2BKeJ8zp49y1mZMmXi9lH/5cuXtHjxYooRIwadPHmSateuTRs3buR49erVCa+2Bj18+JC1FxgHxoeVdvjw4TkPP3fv3qWdO3cSVuGxYsVi7NKlS8f5qLNt2zbKmzcvn0O4cOGoWrVqlChRIs6HcANsjxw5Qk+fPuX2K1euTFGjRuV8/QMBCOeB1WuqVKkIZaJFi2a0sWLFCjp16hT3j/YhHIBmzpzJAlzfvn2NuSlRogTnmX+ctY9y6BfzEyJECMYpevTo5up8/vv27eP8UqVKUdasWTl/7969rMXA2KDZSJ8+PV9zderUoWTJknGZo0eP0q5du4zr4Pvvv6cUKVJYte8sgmsQ1wcwBP64fmzrQ5MCjC5dusTXLq5hXMsgZ/3juvj3338J1+nt27dp1qxZXCdz5syUI0cODrvzHzhw4ABt376dLBYLeXh4UL58+bguflavXs3XA/4HBw8e5P+jOd8oaApAWMCcYT5cEVblPdYNMYqFDvnxVnng+hFafWYjPXz5mO6/fEjtPX6hQZvHUo0sFale9mpc5+itkzTj0F90xsuT8ErtKt+VpTrZqhjtIbDp/A5W+9bNVpV+3z2Nztw9T7WyVqYmuetZlUPk7vP7NHjrOCqQLBfVzFKJ8689vkkjtk+ks6pe5gQZqE+pjhQlXGTOa7+qN71566PZmv3vIvK8f5HTh6lXf4cN9fE+wYl2fvDWz1tPvShq+Mi0+NhKShsnJfX7vrOKf7wPuRr/4ZvHadyuaQSTikfK/NS56G9Wb3nFuHFOMPW0KNDYahSnvM7RjIMLaFDZ7sZ4oSUolbYIFUyexyi76/J+xvmaeoV5pvgZqFPRFpQgSjyatHcmnbt3gZ6+fkZHbp2gNit6cJ2meevTd/F87jNGIw4Czsb3+t0b1lhs8txBj18/ocyq787FWlK8yHG4NWiG1pzdRPuv/ksv3r40+i+mXrleOWMZLrPyzAbWpNx4cotSxkxGGFueJNkdjMY6GW0Df8xJ5HCROPOfk2tpx+W9NLR8Lwqjrte3H97RylPraeHx5Ywx2u5U7DeKENrnPgzce24YSufuXqAqmcpad2An5ptL2SkkSR8RiBMnDm3ZsoV++uknVjO/ffuWmjVrxkwBeSDc5HBzAzMEgbmCaWnCzQ8MYe3atdSuXTu6efOmzjKOEBY6d+7MXzBeM0FF3rJlSwJzBkP59ddf+avLgMnnz5+fxo4dS2fOnKHmzZtTmzZtdDalTZuWVezQamAstoQb8cCBA+nBgwd0/fp16tChA/3yyy9c7NmzZ9S1a1due+nSpVS4cGFm7D179jRWkWD2MGsMHjyYIFx16tSJ6tata3QDYaRQoUI0ffp0TgNjmTRpkpGP8aMPmGjAcH7//XcqW7YsCwYodOXKFfrhhx9YIHv16hWNGTOGhQ3zyh+MEGNAuygDhrVgwQLuA8IGsPvtt9/4/DAOzBfOFwShBEwOgowjcta+rgPhBELNhAkTKE+ePIYmB/mDBg1iAQLnjusJ5wfmDwKDxvWF/tu2bcsmEFxTECi0NqhBgwYEQQPxZcuWUcGCBZnxcwNu/Og5xfUBcwXqg8lrunjxIhUpUoTnAUIDrlfMsSZn/QNHtAUM4Y+DML64FjS5+g/gPwMhGdciBC4Ic1p4RhvAFGNo3749t418V1oM3bc7R4xv/bmttEipkYcohnbqzjmj2taLu6jfppG0/NQ6+uvo35R7XGk6dvsUq/zXnvP5nzf46zeadXAhvXnnTXuuHKS683/m16IbjagAVO69NwyjbKOL04Q9M+jSg6vUfkVvcxEOg9mmH16Q5iimXyhFXk4DA0w1JI+q96di6ndo1I7JlHqoTx4K7L96mPZfP8xlbzy5TfsU08IXQpA7NGX/HGZwjRe1YaY7dtdUyjKqqFVVZ+Pffmkv5RxbiuYcXszY9Vg3mOO6gQcvH1Fm1R78AGDiKTW1ps7iI2znI3dMotdvP/ps9N88ilYpIU3TsG3jqfCkSgRh6MWblzR9/zzq+Z+Ah/nC+b778J4ZpT7/B+qV5+6Qq/EdvnGcflnaUQl4ntw35i/5oJwsGKH960oAQJ8QKD9YPhj4Y441VZvViLZf3EPv1L0eAlne38vQitPrdbbTY5YEGZWAOZ0qz2rA5U7cOcPmMq/n91hQQGLDhYpHKBPaxftX6Nnr5zRoy1g1Fz4LQORnHV2Mxuz8g8/h56Ud6KoSuJyS+lMI+REBxbwtapVk6devn0UxVQ6rFY7RimKOFnXzNeIIKIZlFUdEMT2LMkFYTp8+7StPOX5xHvJRzkyKCXPeuXPnOFndRC1p0qSxKMbBcSVI8JhevHjBcaVG5/KKMVgUE7IoJmBRQgCnKSHGolb5HFY3Wy6P81NCEIfxo1TxnK9u/ha1WuYwxqzs0RxG2R49elhat27NdZRgYVErSItiFBxXmhejDhL++ecfjqNfTWZ8lMaD86dOncrZillxXGkwOI6ySmjRVY1zUX4YnKa0H4yH8jmwKL8BTgM2GAdI46FWmhzH+DFff/75J8dxjhg/sFcaJIsSuixKg8F5+HHVvtKKcF30A1JaJo6fOHGC40oY4jjmTZMSDHluEO/SpYsRxnWmhCVjjvS1YMZOrdItalVtQRuacD0MHTpUR62OejxKSOJ0nA/OVwm9RjnFiPkaUqYMI033jQRX/aPMyJEjLUrjgaBDsvcfwPngvDF/SmjmrxLseE71damEKy6j5xf5jRs3dtgPMnAN4H+qtG1Oy5kz1erYQh3jWjaf32kkK+HBErJTfItiApacY0pZkgzIznkRuyWzKGbF4UsPrxrlEcj/ezlL+K5JrNJ+XtKB264+q7FFCRWcp3wU+Djz0F+ct/XCbkuU7ikt8ftlstx/8dCo/92IwpawXRJbFBPgtJN3zvoa58u3rzhtwm6f69qo7Eag5JQaXFetYLn0H/tmc1ytgo3azsavBCBL6M4JLY9e+lw/7Vb24vrbLu7h+pP3zeL45YfXON56eXeOKwGA49MOzOP4k1cf/3fAvMuaAZyPdMSVEGXBeYLevn9rAQ5mits3o6XstLrmJLfCrsanNBZW83H89mker2LIVu3XmtvUEq1Haqs0HTFfI7iWcH0UHF9BZ7s8Lj2+ivscuX2SJU6fDHwdAgNNaK/Y5Ko6yteYvs6UgMl1x+70ucfiOsN17jGxslHeNvBRt+ZUpPh2MtesWUP9+/e3e8JYKaobOavcFWPhlS8KYoWtTQyIFyhQgO3cWB1jBa2YM0WO7KMeRL47FDZsWFaZqgmjSJF81EzmevBzgIYABPXu8+fPeZUMNTFWpFjxR4wYkfMRBinhgo/4SZw4Ma/2oX1QTNlIRwAmD6wksdJVDM6wfWOFGTNmTC6LMlDp47xgeoAJAGp3EGzVoEaNGvFR/2DFnCFDBsqVKxcnYdUM1TbGBydCW8JqFwT1PdTX0NSULFmSzRk4R4wPTnTwqAdpzYBiQIwH5kubZmBC0WYMrNJBvXr14iN+YM7APGLM8eLF490MWLFv2rSJ/TvGjx/PYZgFXLWvG4W2ApQyZUo+QgsEkw5U/6AlS5bQypU+Dl3alwTzCNImC+ANk4++fmAGAmHFjpU2sMZ56y9nuviBKh6krwv4YyAMLDVh/mvWrGmYbZCuTSAIf0r/qO+McC4wn+F/o010wBLzA7MDrn0QNC16fmFqw7XsjHANmP+nzsq6yoNZIoT6xIgYjbzf+6j7I4WNqFTST7lq+NDhaPj2CbT85Dq68ug6PVDmCqiu7VGvUu0NVXvcyD6mSl0OK+53Sp28v9U6iqXMGZrO3bvIwYwjfP7bOn2c0gAUV6ruz0EhQ4Sk79MW5aZqZK5IWH1iBdymcDOr5u2N/8L9y5QhbhqKHsHH7Pe/7NVZ+7H7ygEqokwS0EpECxeVksdIwm3VylKZoL1wlw7dOMYr9sa56xpqdcyJuyYGV/24Gh/MPdAiLTq2gnYoLQo0SKDbynTjLmG132l1P1p3bgtrIOBjArOWu1Qtc3lqrExWMDnh3D07r7My8+RIlIWg4akxuwlVyFiKfshRw8jHuEE1s1bkY9FUBQjz7YxEWLBBJ2PGjKz6t0nmqLbXIgLGgxs4bu5gvGaCHwDsovBLgEc9ykENDtOAX0gzCHt1zH3qG6beqgezhTaJoG7cuHG5CZgQzATzBG7CYAxmmjhxIjPIFi1aUL169VidDBs1VN6aICDgq/0QcCNGPmzRuNHDvg4fDk0//vijwayBHdT4UP9DtQ0M+/Tpw+YcXR5H8zmAQcB2DoJABzV9rVq1WNiA4AJ1vz5/7dgHxm6PgA8ELIzJTFq4Qhr8JGA6wRc+KTAjYMww+bhqX7epx49rAXMJwQ+E/kEwX9mS9vkAniAckabjOEeYW+BDAR8H+BoATwg75vmxbdccR1kQhCJNENa0sKVW7zwntj4Muuyn9q/bcXTUApP2IUE5HcY1rIUFnYZ8CNeuCCYXmPDwf8E8fgqFVHMKwk06VEifucI8v3vv8x/JPbY0CwjwY6iZtRItUI6G2ixg7hf1oVJ2RKliJSe1+qaqsxrS2Y4+QjhMCRAgciXOxgzAXBcM+nNRxDARKFQIn3OLGTE6M5NTXh/V2OjH0fghGMWP4nPfQTmcBwhCE+jqwxsUK9JH4SdV7OSc7u7PnWd3uSh8BQKCXI0PZh8w6ZyJsvIcwC8FfhHe/wkNrsYE01L2MSUYI1wjqWOlYJPUe2U28QvlVALBnwfnU6QwEa3wRhsrGs2hDqv6sLls6clV1OLvLnSyww5KESMpnb/ncy81C6dRwjpf0IqwYDMzydXKHF9nhJsybPi4WePG8/PPP5NSrRs3LNzYYW/HF4wF9nE4zflFWEAfWM2CwSj1qtUKz9nYkAcmeezYMaMYVrQgfZPVGXA8xMp++PDhOomP6BeCQvfu3TmuzBNW+c4iWAliJQ0GbhYWbOtAU4AvtheinxEjRrAAoFeSKI+bu179wncBAgIIN3wwe/gqgFDOTEmS+KxWoHlAOVvC/EIAcDY+cx0IZtCIQGACuWrfXNdeWK/Qc+bM6a+VLuz4YKjw7Id2B9cK5svM/O31q9O0FgfXhb4mcW5aOMA1jWtFmVMMzHVdHN3tH+1owcRc31VYnweuYe1Yqq9ns4Dgqh3bfOxygX+QOw6OtnX9EoePws2nt2li1aHUPH9DrgqHO3vkajW39qcFdEjZ9JU6m5Qqn0ZV7McMHIwczoetCzW11yyngZGDnnn7aKs44oef594v6PGrJ6wdUGp2XslXzPhxAYCmHI0/Wvgo7Mehu1NmHA6CKYKgsfhj/2wO40epwY0wAlrQUKp6ypYwE8FZErZ/TXDoBC1WGooy6YrrZF/HMCHD0AtvH22cr0wnCa7Gh10m0Iwcar2BW9lyYZfd1sKFCktv3vvWKI3e8QefD+rDIRPOiBA2zNojNKjMAnTu/gXGa06dCVZ9wAm05fJuVDRVQYKjZ6UZ9Wlj08VGGbQ1o5aPtk2Zf6jYH8qRVjmc4hqq9F1pmrD3Tzpy8wQLnXB2fPLGZxFhNGATCGkTl6gbCChbMDMoMFUwLDAeOARqgroUzA3qcajuITBo9T3KwOEOadohD2F8ka4JK/Rhw4YxI0eeXwirTaiUFy5cSPAAh3oWK9vcuXP7agZOfnrFrjOh/gfzUHZp9kb36359qPJh2oA2BVoGmCcgcGimDk0GnNawSgQzwUob2g/bmzic2KAyR104y2nBAQIAbvw4NzhDwlnQTGDucG4EM4UQh37gDAiTAgg7ONAudjvAkQ/zAG0FviDUGzduHDtQgrnosWNHB8hV+1zIyQ/GBnU4zDAwicC0AI/+P/74w0mtj1lZsmThCEwQcBrE9ahX4x9LEV+XaNf8BRYQ0nA9wHEUOMAcAsEAz2bQhDmE4yUcRKH6B04QeEHu9o/dCXB2hSMvxmkeo7P/AMwi2G0EJ0ecI64XPK8B16XtjhceUAD8wIseDF+vYLESRPzJf2YGZ11mS5SJmSic8bBjodvaQewk6KyOozyYOrD7oXqmCjRaOaPhpg/6MWdtAoMCg4GZA577rZZ35zTdFjziE0VNQFP2zWFmAtOARX38QhBS8JyGpmoPPgQDZ4zZ3G5ltfsDOzhw7jA9YBWO+lCdg7CahnYEe/shXHVdO8Bc3TCl9Fw/lPv/WTkTmgkahSTRErGD5IDNo+neiwfK2fQfdvg0lyuWuiDvOMFOAZy/8m8wZzsMuxofdhZACMO5YU6aLG5jt62KGb9n8xPmzlOZjuA4CSqZxoOPC478zelVZv5oJQxxpvo5e+8843hW7VgwEzQ3yh+BYkeKSRuaLmKhALsjxuycYhRrtKg1nzvO+cp/D7uKFyUO58NUhfnAvGJ+a89rZtRzFPARPR3lSrovBLZu3cqe2Nh7r1dAYGpgQPBPgB0VDAy7FTQhDYxBE27AWElrguYBZF7N6zwcbZmobVyX1avyhg0bsoe47hOMYfLkyXyjta0LxosbMxiDJowduzRgBwZhXDhHc12EzXGU0/1DvQ8hAT4b+IKwmtarWAg/TZo04XT8gHmNGjXKV3tgGmCsIHi+w0QEguc7tmvCpg2CqQDM1zweCHHwlDermyEEgHDOwAM7AjSDBkYQzkAwH8A8gmdRgKApUc6b7C/BCerHWfu6jO1Rjw8+KPA3QJvw+NcEk5UmXVabJXQ6jvB7AB5a04J50itwczkIAfiaCaYU4A0TEOZA4wvTmW4P5aEtwzzBf0f78Ggs3e0/e/bsbIZTjsAsNOCaAuYgV/8BCIDAA34TIGh2zBowfa1xpps/EIbMApGzak2XtuedELrMDwt+5WC59CXVNsCPWzjBzPHRBJMEVv0di7Rgb/5kg3LwTblw8ny088o+XczlUa/Y9XUwt95E2jZgN5X/sx7d63OGxlQewLsgYOfXtn74SVTPXMGq7f5lOtNvf3flXQPIeNr/orG90qqgnQjaAzPEbg9QzxLtDN8KO8Wtkkar1etBtcV08Nax/MX5TKo2zNhaWCRVfiqmVsRTD8zlb5pYKbm+Nntge1+DnLVYGFilthjmSeKDo8YFhbf8vJR3UfRcP4TwBY2s0JeP+qe9R3PeYlh1dkNOmll7HAtaOt/R0dX4upVozTsXCk30sfljfNh1Yh4f2obQBMGgm3owEzRDEPqWNJjOmoKCyfKwEAVBKkaE6Ib/hr0x2bZbWwlxEDyOt9vGux/gj4AnjaItbC+F7wZ26yhHWW4O9T1S5KcORXyuY2id+pXurLYHD+b5xVyz2SlkSHvdc1oIeDw6zJUMfyOAlRNWU1Cbaru+vxvzZ0WsIqHZgE1b27z90hRW1RCI7DEsd9qBehxtwBdA2+91PeRBWwAmDQc+M0HrgJXttWvXWOsA/wH9fARzOQgkwBZtOCK1I4RXxjgPCB9mwqWPMYCg2TCfp/a9gI+ArfnG3Iaz9s3lHIWhVcE8YXx+vU6gkcBqXfukOOrDUTrOUuhTLAAAQABJREFUEfMDZ0qYjewR/BdQBnNkOwef2r+9/mzToN0C+fccbdv7knGolrHizxQ/vZVA8TnHgBXmaaWOjqF8CmCL/lwEx8rT6hkRN3ocpRO3z/BzAPR+fr/0gRX/TcVEgYE2i5jrY6sfHP1Sx/YxT5jzEMbWQ6jxoap3RChz6eEVShs7ldVzIByV90u6q/FBqwNnR1vzgbt9wMwDpq99Otyt52451ogp/GHKsYc/tA7QuMCsYxZ67bUvwoI9VCQtUBEwCwtmBh6og5LOBYGvBIHEA7IRmKAjgm18+sF5LCzc7PHR98lR+eCWXmfez7T0xCqHw8aDtWbV/t1h/reaIWaIb3Xmg/B5YxULk4VWwQbhocrQBIFgh8DQ8j1JPbPB4bjzJstBe64edJgf3DPgdJpfPQnTEWVXq3Ah3wiIZsE3JpIiCAgCgoAgIAgIAiYEHHszmApJUBAQBAQBQUAQEAS+XQREWPh2517OXBAQBAQBQUAQcAsBERbcgkkKCQKCgCAgCAgC3y4CIix8u3MvZy4ICAKCgCAgCLiFgAgLbsEkhQQBQUAQEAQEgW8XAREWvt25lzMXBAQBQUAQEATcQkCEBbdgkkKCgCAgCAgCgsC3i4AIC9/u3MuZCwKCgCAgCAgCbiEgwoJbMEkhQUAQEAQEAUHg20VAhIVvd+7dPnO86GjPnj3k7e3tdp3PURAv4nFG7y3v+T3wzsp8ah5e6etqHJ/ah9QXBAQBQSCoIyDCgp0Zwut58W4CfPFK23HjxtHFixftlPR/0o0bN2js2LH05s0b/zfiz5qzZs0yzk+fJ454w6A9unDhAtWoUYNfWWwv3z9ph28ep0ITKlKUHilp1I7JVk10WzuI08N2SUQRuiUlvOv9lHqznqaFx5ZT1B6pKHTnhBS+axLKNfZ7Wnx8hc62OuI99mjj+6m1jHS8fx5p5m/yQTmNfASuPr5BGUYU4j4wjug909A7F8KLVQMSEQQEAUHgK0JAXiRlZzLv3LlDsWLFoubNm7OQsGDBAhoyZAgdPHiQX/dsp4qfk65fv05Dhw6lhg0bEl7B/CUpT548/LrhjRs30t9//00TJ07klzb55zXWetx4lfOMGTM4WrlyZV+vpNblcBy0ZSx1XzeI35+OV6TeenrHnE1Ljq+koupd91UyleXX747bNY22XNhFTwf4CGxg2pUzlaESqQvTszcvaMjWcVRLvd/9TIcMlD5uGqOtV+9eU/2/WhBe44tX5Wp6+fYlp7XI35jiR43LyXEjx9bZLBRkGuHBxyHlelCiqAn4LXUf5G3uBkYSEAQEgW8LAREWHMx3ihQpqHz58pybK1cuXlnv2rWLateuTdeuXaMtW7bQlStXmOliVZ4vXz6rljZv3kyRIkUivEERr1x++fIlVa9eneOrV6+mS5cucXkIIhEiRKDYsWMb/R0+fJju3btHCRMm5LqpU6fmvDBhwhh9PHz4kJYvX05Xr14l5GPlHz58eCP/9OnT5OnpSQUKFKC1a9fyWIsWLUpFihShDBky8NfLy4uFhSpVqhj1dODYsWO0bt06iho1KqVMmVInOzxCQ4L+QGg3Tpw4DsvGiBCNxlQaQE1y16MoPX23farjTgoT8uOlefupFy04+jddfHCF3/v+v+zVCV9NyWMmoUoz6tPmCzuthIWfFrelGBGiU4QwH3HRdXD8rWBjq/I6b+r+ufTc+wXtb7mO8iTJzsl4ba2QICAICALfKgIf78jfKgJunHf06NG51OvXr/kIjQBU8xAioG0YPnw4DRw4kBo1amS0NnfuXLp16xadOHGCMmfOTJEjR6ZXr14RTBwnT56k27dvc1kwdWgWkiRJYtTdsGED/fnnnxwvWLAgjRo1ioWFqVOnchoEhIoVKxLGU6JECZoyZQotXbqUGb9uBD4Gw4YNY4EDgkXOnDlp0KBBLCzoMo6OEFYqVKhAyZIlY2EB5/A5Ca+IBWHFb4/MggLy9auqE0SN56v441dPaPLeWZz+fdqiRv7+64dp/pFltPe3NSxIGBmmQMvl3ShmxBhUMFkealGwEYUKEYpzN3puZyHjwcuHVHf+LxQ7YkxqXagppY6dwlRbgoKAICAIfDsIiLDgYK6fP39OMBVAezBhwgQuValSJT726dPHauXcqVMnZthmYQEFwWTnzZtHxYoV43pwFIwSJQoLF3v37mXtRP/+/Vk7wQVMP+h/27ZtlDZtWoL2oXfv3gRVP0wFMIlAywBBBYJGjx49KHfu3HTmzBnWGOhm0AaYfps2bSh06NCE/t0haCKyZctGK1asoJAhQ7I5ZuXKlU6rRowYkTp37kwWpaqPGTOm07J+yTx//xL9dfQfKpnGg80Wui4cDyN2S2YIHAPKdKU0sX20FHB8hJ9DpYylKV/SnLqK1TFkiJB0/t4luqlMIIuUD8Tvu6eRZ+e9FEJ9rj2+SU9eP6Vy0+tRwqjx2Uwyce8Mutv7NMVSwoWQICAICALfGgIhv7UTdvd8YTrImzcvmx3A4OEUCJMCKGzYsARTQpcuXahOnTq0c+dONgfYtp0gQQJDUEAe2nGXUBeCAgiaCS28IL579252RoRwUq9ePerYsSOSmblzwPQDswkEBZC7/cOXARoN1IOwANOFOwQ/D5hTUOdz0NPXz6jQxIoUKUxEWlJ/ulWTYOqDy/ag+jlqshAxcvskuv3Mi8v0XDeU7r94SDNqjbOqoyPFUheiFwOv0JVu/9LLQVepVtbKdOHBZfrz4AIu4v3emz5YPtDEqkPpZo9jdKHzfo7P/neRbkKOgoAgIAh8UwiIZsHBdJcuXZpGjBjBDBbCgZlgSoApoG7duiwMbNq0ya6wULhwYXM1P4UTJ05slNe+CtAsfPjwge7fv89CCsao6ccff/TlfAnGbTZv6LLOjtAMwPcAQoimePF8q/91nj5iJwUcJUEQUOLHj6+z/HX0fv+Wco4tRY9fPaWT7bdTtPBRfbXTpnAzTmtV6CfKPa40Tdk3h3qX6kAjd0xSZoRo1GxJe85/pEwVr96+ZpPCgnqTKULojz4MMHkMLdeTtQu7Lu9nP4p4UeLQiTtn6Mdctbl+qljJKVq4qDTv8FJqW/hnX+OQBEFAEBAEvnYERFhwMMPwMcBK2Zbgq7Bjxw6aM2cO+wsgf8mSJbbFOK6ZvL1MnQe/g2jRotkrYjcNq3Y4HEJLYBYW7BXWfdjLc5QG/4CyZcvSqVOnjCLu+CxAWLh58ybXgTDzKcICzAj5fi9LVx5dV06Gaw3zgjEgm0CiaAk45cD1I3yE6eHRq8fked9n9wS0BBA+YHawR2fvnufk6ErAAGWIm5Y2nd9BcKyEoAB6oXZQpIiZlMPyIwgIAoLAt4aACAt+nPGkSZOys+K+ffsoe/bsBJU9TBJ+pUyZMnGV2bNns5YAwok2c7hqC+aHnj17stCAHRvv3r3jHQ/YkYGdDq4ITB3Ol3pHBnwfQHCChDDi4eHBDptwosRuiIULF7pq0ipfOyRaJZoi2Pq44tR6wtZG0GkvT96amCVBRhYM4Ctw5NYJaqWcCrEDAl9QidQeyiExOrVe0YOSREtIJdIUpqsPb1DfTSM4v1vx1nzc3vwfPuqfuH0zEgSKQ603cFKv9UMJ2gOPlPlp79VD1HvDME7/3387HloV/Il9GBr89RuNrzqYZhz8i7dRNs37g25SjoKAICAIfFMIiLDgYLodMTyYJPr27UuDBw9mx0cweZgA4NPgF8I2xz59+rCpY/To0eygiK2QIEd9a18A9IfVe9euXfmLOti5gC2c7hB2TsBJUhOeiwCCaQV9YCslnBsbNGjA6dhxgTxH40IhODhi94U79PDlY6o+p7FRdO25zYQvhIOxakvl3iuHOG/crqmEr6b1Py0k7Hi48fiWVXqcSLGoS7FWVDB5Hl3U6fHY7VO0YvN6o0xoZYoYX2Uw5UqcjdOw62FY+V7UaXU/yjGmJKdhx4R5t4VRWQKCgCAgCHwDCIRQNmrLN3Cen/0UsZrHw5sSJUrklIl+9o5NDWIM0BKAUTt7roGpip+CeF4C2nbXMdJPjX9iYTzMCRqHqOGjULLoH/073G327vP7dPnRNeWLEIXSxU3NuyBs60IDAt+FZNGTsEbDNl/igoAgIAh8KwiIsPCtzLScpyAgCAgCgoAg4E8EPs8eN392LtUEAUFAEBAEBAFBIOgjIMJC0J8jGaEgIAgIAoKAIBCoCIiwEKjwS+eCgCAgCAgCgkDQR0CEhaA/RzJCQUAQEAQEAUEgUBEQYSFQ4ZfOBQFBQBAQBASBoI+ACAtBf45khIKAICAICAKCQKAiIMJCoMIvnQsCgoAgIAgIAkEfAREWgv4cyQgFAUFAEBAEBIFARUCEhUCFXzoXBAQBQUAQEASCPgIiLAT9OZIRCgKCgCAgCAgCgYqACAuBCr90LggIAoKAICAIBH0ERFgI4nN07NgxunfvXpAcpff7t2RRHyFBQBAQBASBrxsBERZs5nfUqFFUrlw5m1QivMZ50KBBvtIDOqF+/fq0evXqgO7GT+23Wt6dwnVNor6JKXzXpFR2el06cuuEn9qQwoKAICAICALBBwERFmzmKkOGDHT06FG6ePGikXPt2jU6ePAgfffdd0balwpAQClQoECAd/f+/XuaNm0af11pMsKECk2/FWxMf/1vCnUu+httubCLPCZWDvAxSgeCgCAgCAgCgYNA6MDpNuj2WrBgQR7cnj17KFWqVBzeu3cvHwsXLmwM3NPTkzZu3EiPHj2iXLlyUZkyZYw8BDZv3kyRIkWiGDFi0Pr16+nly5dUvXp1SpMmDZe7cOEC7dixg65evUrJkyenihUrUuzYsY02UF8z7ZAhfct0qLdq1Sq6f/8+ZcuWjSpUqEChQoXi+ocPH+a6CRMm5L5Tp05N5cuXpzBhwhjt2wbevHlDOCeQl5cXxYkTx7aIER9Zoa8RpqyV6dbTOzT94Hy6/cyLEkSJ9zFPQoKAICAICAJfBQK+udBXcVr+P4moUaMSBIadO3cajYCp586dm2LGjMlpEBKKFi1KixcvpvPnz1Pjxo0J5gszzZ07l3r37k3FihVjMwI0E0gDHThwgDw8PIw+0A6EAzOdPn2aILC0a9eOdu3aZc6is2fPUv78+Wns2LF05swZat68ObVp08Yos2HDBmrZsiULJ6dOnaJff/2Vv0aBzxi4/OgarT23hSKGiSCCwmfEVZoSBAQBQSBIIWAR8oXA1KlTLUoDYHn79q1Fqec5PH78eC6HtMyZM1sUMzbqLV++3CivExs2bGhJkCCBZcuWLTrJ8vTpUw536tTJogQSIx2BV69eWcV1BH3NmDFDR/mIvpH+4sULjs+ZM4f7UoIDxwcPHszxc+fOcXz+/Pk8vnfv3nHc0Y/SUliUNoPP2VEZnb7+3FZL6M4JLdQxLh/Xnt2ss+QoCAgCgoAg8JUhIJoFO6IbtAbPnz+nkydP8ioe4eLFi3NJqP+h+oeqv169evxVzJzL796926o1JSywZkEnRokShYPwQbh06RJ17dqVtQ5oP3z48LqYy+Px48cJJpGIESNyWW0eUcKBURd9p02bluNKsODxXb9+3ci3F4gVKxabQuyZPWzLZ4yXloaW60nfpy1KHywfqN/GkbZFJC4ICAKCgCDwlSAgPgt2JhI2fjBbmAFg54cvQfr06bnkkydP+PjDDz9QihQpjNq//PKLwZx1ombiOq6P8C8IESIELVq0iJo2bUqRI0emWbNmsWlBl3F2fPjwoZVPQdy4cbn4s2fPjGqJEyc2wtpXAU6MjkhpTGjixImcXbt2bYofP76jopyeOFpCaufxC397bxhG/TaNpOO3T1OWBBmd1pNMQUAQEAQEgeCHgAgLDuYMDB2+CmC0cA4EcwdpJpwsWTIqXbq0g9o+yZpJ2xaCI2KlSpX4+/jxY/YtmDlzptvCQtKkSQnPX9AEvwQQBBz/EoSFmzdvcnVoTlwJC+Z+ksbwEUz2XjskwoIZGAkLAoKAIPCVICBmCAcTCbMDhAU4HpYoUcIohVU8hISBAwfSmjVrWL0PJ8chQ4aQ8gkwyjkLLF26lM0Y2IGA3RQQGLTzJOqhHaThC4LGAGHl88BxCC/79++nhQsXsoMlHB2hnYAT5ucgLRg5aqvc9Ho09/ASOuV1jibtnUkdV/WlsKHCUv0cNR1VkXRBQBAQBASBYIyAaBYcTF7evHmNHOw8MNOIESNIOSnSTz/9ZCTnyJGDOnToYMSdBbCbAbsVNJUqVYratm2ro/xMB2yz1KQcFglf+B5gG6ZynmR/Cl0HgsLkyZMJOzlAjpi9M18E+D8MGzZMd+n0iAcwrT33cfdG6lgpaFK1YbwjwmlFyRQEBAFBQBAIlgiEgMNmsBx5EBg0np2AZxLAp0E7L7o7LLX7getC3e8X50Zz+9A4QDORKFEi4xkL5vyADD94+YguP7xKaWKnpGjhfYSUgOxP2hYEBAFBQBAIPAREWAg87KVnQUAQEAQEAUEgWCAgPgvBYppkkIKAICAICAKCQOAhIMJC4GEvPQsCgoAgIAgIAsECAREWgsU0ySAFAUFAEBAEBIHAQ0CEhcDDXnoWBAQBQUAQEASCBQIiLASLaZJBCgKCgCAgCAgCgYeACAuBh730LAgIAoKAICAIBAsERFgIFtMkgxQEBAFBQBAQBAIPAREWAg976VkQEAQEAUFAEAgWCIiwECymSQYpCAgCgoAgIAgEHgIiLAQe9tKzICAICAKCgCAQLBAQYSFYTJMMMqgjgDeC4i2i7tCHDx+MN4i6U17KCAKCgCAQ2AjIWycDewak/2CNwF9//cWvG8dJFC1alMqVK+fyfE6fPk2zZ8/mcgkTJqQ2bdq4rCMFBAFBQBAITAREWLCDfqtWrfg10easbNmy0aRJk8xJgRrG6nT8+PFUqVIlSp48udVYpk2bRtOnT+e0UKFCUYkSJZiJmV+7bVUhiEaWLl1K8eLFo0KFCgXRERIdO3aMIkWKxK8NT5YsmTHOO3fu0OLFi+nWrVv8VtL27dsbeZkyZaJ27drRnDlzOB9aCf16caOQBAQBQUAQCEIIiBnCzmTUrFmTOnfuTBEjRuRXPyP8v//9z07JwEt6//49DRkyhC5evOhrEHht9dWrV6lHjx7UrFkzOnr0KFWtWpXWr1/vq2xQTpg7dy5t27YtKA+RMA8Q1syCAgSIUaNG0fXr1zn/xYsXvs4BryaHAAq6ffu2r3xJEAQEAUEgKCEgmgU7s1G4cGFOxcrWYrFQlSpVjFKXL1+mf//9l549e0ZPnjzhvEWLFhHq5M+fn8stX76ckiRJQufPnydPT0/KkSMHlS9f3mgDgQMHDtD27du5fQ8PD8qXL59VPlTVqFugQAFau3YtXblyhdXcRYoUITBRb29vLr9u3Tq6ceMGhyHQhA7tM6WRI0c2+oSgkC5dOlq9ejWVLl2ax71582Y6e/Ys18NKF+ODFkKTs/5x3o7qv3z5klfUMWLEoJMnT1Lt2rVp48aNhHj16tWN8T18+JCAE4Sa1KlTU40aNSh8+PDcPdrGOWF1fuTIEZo1axanlypViqC2B717945WrFhBp06dolixYlG1atUIDFjT/fv3+XyhedmxYwe3AwwgCAIjjHPv3r20b98+Chs2LOOv51234e4xTJgwVkVDhAjB51SnTh0aOnSoVZ45gn5B0BIJCQKCgCAQlBEI9sJC//79mSnZAzlLlizUvXt3e1n+TgNzgpkC9mmseocNG0ZgYmPGjCEwbvQ5evRoZvSxY8emNGnSsPkCq/xff/2V+4V6unXr1pQ2bVpm0Kg7YsQIqlevnjGuPXv2cNtgjmCsOXPmpEGDBhGEBTBhLSxg9aoJgo09ihAhAkF4eP36NWdDaBg5ciSfA5jmzJkzaeXKlTR16lSjurP+ndWHENW1a1fKkCEDPX78mE0lEIYOHz7MTn1NmzZlAaFixYo8HphIpkyZQhDM/v77b+4fAsSZM2cIK/IHDx4Y86sFKggKEDwOHjxIFSpUoH/++YfxB/OH4ADCah3jQN7+/ftZSFq2bBl9//33XKZx48YszJUpU4a8vLwIeajvF4IwBwoXLpxVNVwD+LoiPVacL/ASEgQEAUEgqCIQ7IWFJk2aUMeOHXmlaQYZq0cwhIAgMN558+ZR27Zt6e7du7zyhV393LlzBpOAoADmA3s2mDyYIYQFMHQIOGBykydP5uFBcOjTpw/VqlXLWHkj4/nz51wODnA4HzBiEMwPb9++JTjXgfmC4dojCBIwSSxcuJDb0qaUsmXLWvUFhoqxYSVvXp076t9ZfayqQfCnOH78OGMETUjfvn1ZC4A8jB+rcTB7MFoIUrlz52YBAUxTz9uFCxdYSEK+mXDeqAuNAbQSEB4gvEHT0KhRI3NRbh/zEiVKFNYmYDUPPwLUhW+HdkjUgpRVZQeRa9eu0aFDh9i8gyLo2z8EjQ60ORgLBCvE8RUSBAQBQSCoIRDshQWsvEuWLMmrejO4WO0nSJDAnPTZwmA8YIrRokVjpo2GsUoEc9WEVTAEBRDU22CeUI2DcISGIGTIkBzHyhvCxL1793yNGWp8bVpAv+4SxqIdGnGEMIJ+QGgHgsyuXbvoxIkTzKiQDsHCLCwgzV7/zurHjBkT1bgP4APBCuOHAx+EEdDu3bv5aMvYwezdWWHDhAPq1asXH/EDJ0FgaNsmzA4aN/iggHBdwMcAWiEIDpgrvzBpYAdNCQQ/aIe0hoAb9+NPnjx5eC7QHjRIfhmHH7uS4oKAICAI+BuBYC8s4MyxIgcD0itvMCYwiYAibWsGE9R2fjB+s+3ZLKhAywCCHT569OgcNjNlHcb4bevB98E/BCYNpgY/AC206HYmTpzIq/sWLVqw6QMqezhBYoVuJozbXv/u1Ac2+Go/BOCE9oERhCXY8+E/oenHH3+kRIkS6ajTI5hq5syZCXXMpIUBcxrMN7YEQQ+mIJhdsGsEQge0JXoHiW152zgEKFxf0EzAFAHfFJib/EoQcDBHwLlly5YEc5GQICAICAJBEYGvQlgAM4QTn967Dmc5Wwb5pcEH89UEZ0HQd999ZzBkeMxr8wHCIC00cET92DrO6XQctbr/1atX5mSrsKMVL7QcEBS0P8eMGTOs6umIo/7dra/bMR8hVKVMmZJX+2ZhwVxGh2GisHd+ydXuAwheruqjHQgs9ihx4sRsGumjNC4w02ArI8wVcIJ0h3AeEHgGDBjADq/+ERb0NVJUmTFEUHAHdSkjCAgCgYWAjx48sHr/jP2CccAkAfUyTBCfQnCug00cznVYxSKMNL8Q6oAJoR6YMcYH5gumULx4cV7ZQhuClSVs8AULFvTTXnswQZgVsELG6ha+E44cHG3Hjb7AqFAHOzLgYOgX+tT6MBVgVY9dDtAywDwBjGwxxk4QOI1CRY+xaqdOrOxxzvCDwNZR7M5Ys2YNf905D2hSIFiiTTh4wvwD8quAqZ+NAP8RW8K8btq0ibdOYtwI4zzMhG2XIG0mMedJWBAQBASBoITAVyMsgHnWr1+fGjRoYPgC+BdoqKUrV67MDBVMFWFbJzu0jdW9XuEjrn0QEIafABwgoT2AQxxWrprg8KhNJfDqxwp6+PDhOtvtI7QDYJZYmWLPvn7cMMak1f/2GoPKGwwSderWrctOlChnPhd79XSaO/VtsUFdjQ/MB3DqxG4F7BrA1lIILLb9Y8sqtAhwBsVYta8CTBBwDoWTKfxB4OcAJ1AtTOhxOjqCuWP3CdqERmD+/PnsvwBtg38Iwoctwf9iw4YNbHbBuBDGjhMz6WdkmE1P5nwJCwKCgCAQVBAIoVaj9vfbBZURBsNxgHnDLAJmDgc62OK1b4P5dLCyBcWNG9ec/MXCN2/e5CckOlLVuxrIp9aHDwPagK9BnDhxXHXnKx+XrmbUwNAv54G6wB+re/3sBl8duJEwfMRwunf3Hgs62IZZrFgxl7Xg4wB/B4wBQqM9QdRlI1JAEBAEBIEviIAICwEAthYWsHoW+voRgK8DhEJoOGz9TuydPfwwYIKCgJQ1a1Z7RSRNEBAEBIEghYB9768gNcTgNxio1d317A9+ZycjtkUATpHuOkaiLvxWsN1XSBAQBASB4IKAaBaCy0zJOAUBQUAQEAQEgUBC4KtxcAwk/KRbQUAQEAQEAUHgq0dAhIWvforlBAUBQUAQEAQEgU9DQISFT8NPagsCgoAgIAgIAl89AiIsfPVTLCcoCAgCgoAgIAh8GgIiLHwaflJbEBAEBAFBQBD46hEQYeGrn2I5QUFAEBAEBAFB4NMQEGHh0/CT2oKAICAICAKCwFePgAgLX/0UywkKAoKAICAICAKfhoAIC5+Gn9QWBAQBQUAQEAS+egTkcc9fwRTfuHGDX4qEx0wHB7rx5BatPL3BGGrz/A2NMAKu8q0KS0QQEAQEAUEgwBGQxz0HOMTWHTRp0oRfK423DqZOnZozGzVqRJcvX6bp06dTqlSprCu4EZs0aRK/rnnXrl1ulP70IguPLaeGC1v6aqh21io0s/Y4X+m2Cdsv7aV683+hp6+f0XPvF/Ru6C0KFSKUUcxVvlFQAoKAICAICAJfBAHRLHwRmD92cvHiRfL09KSVK1dS27ZtWXBYv349F/D29v5Y8AuH8KrmGTNmcK+VK1d2+srop2+e0et3b6hx7nqUImZSY6S5Erv3BsUiKfPTzR7HaMzOKdR2ZU+jvg64ytfl5CgICAKCgCDwZRAQYeHL4GzVS+7cuWnp0qUsLKxatYoQP3jwoFWZAwcO0Pbt28lisZCHhwfly5fPKn/dunVcB9qJt2/fWuUhAoFk48aN9OjRI8qVKxeVKVPGVxlzwps3b7gO0ry8vJwKC7rez/kaUJ4k2XXUOK44vZ4uPbhKbQo347S7z+/TsG3jqWPRFhQvchyjnAQEAUFAEBAEggcC4uAYCPME5v/06VM6ffo0LV68mKpUqWI1Cp22evVqgtahWrVqNH/+fKPM1KlTqXHjxnT48GEaPHgwDRkyxMhDAEJC0aJFue3z589z2VGjRlmV+RyRE3fO0KEbR40vtA2g6Qfm0eCtY40uzt49TyN3TKIrj64baRIQBAQBQUAQCD4IiGYhEOYqVKhQVLVqVRowYAA7JhYsWNAYBTQJ/fv3pwoVKtDkyZM5vXXr1tSnTx+qVasWhQ4dmpYsWULNmjXjtFevXlHevHmN+u/evaP/s3ce8DVe/x//RBYRMRIhiRF7k9auvXdtWquqRVH8qFFFS21t7dHSWn+7pfam9iy1R1BbRMRK7Iz//Z70edyb3AxJyE3u5+t17z37nOd9cL7P93zP83z11Vdo0aIFpkyJ8B9Ys2YN+vXrh169eqn6emGjgJOTEwYOHKgsGZkyZTLKiT74+e99TDKP9NqMUtl8TNIYIQESIAESSP4EqCwk0RyKX4AoBOLcaG9vr48iMDAQ9+7dQ5UqVZAqVYThRywRsm0REBAABwcHnDp1CgMGDFB10qRJg0qVKuHEiRMqfu3aNVVfrA5t2rRRaaJQBAcHY9++fapdvbNIAVdX10gpMUf/7DAP72UrphfycsmqhxkgARIgARJIOQSoLCTRXPr4+KB///6oX7++yQhkURfJmvX1wquFg4KCoDlBurm56fU8PT11ZeHRo0cqvV27dsiVK5de5osvvkD+/Pn1eOSA+D3MmDFDJbdu3dqk/8hltbhn+qzImSGbFo32NyQsNNo8ZpAACZAACVg+ASoLSTRHYjWQ0xAicmxSkyxZsqigWApq1KihhyUgSoNsFzg7O+P8+fMoUSLi9IFYETTJli1i8c6ZMyfq1KmjJcf6K8rCrVu3VDmxbGgKSqwVzRRwd3bDo2eP9Zydl/fpYeOAW9qI7Y47QXfh5eJhnKXCseVHqcAEEiABEiCBt0KADo5vBWv8G5VtherVqyvnRNk2OHDgAJYuXQrxa3BxcVE+B+K8OH/+fJw+fVptT0gZTdzd3ZWSMGrUKGzYsEFtP4iTozhBij9DXMTGxiYuxaIt06BgLbwMe4UJu3/GFt+dmLL3V7NlmxSpp9K7/NEPh24cw7WHN03KxZZvUpgREiABEiCBt0aAysJbQxt9w7EtxqNHj1aKQcuWLdG8eXM4Ojrihx9+0BsUi4Q8tbF27dro2bOnUiT0TEPgxx9/RIECBfD555+rrQfxf4jtgU1isRg/frz6FClSxLi5KOFUNjH/talTsBqKZimIr9Z9hzq/tkYJz4j2bGCqhDg7psXY+kOw59+DKDe1HrqtiPDD0DqMLV8rx18SIAESIIG3S4BPcHy7fBPU+t27d1V9sRZElrCwMLVtINsFxg6SxuWePn2qnpkg/g3p0qUzznonYTkq6eaUCbLoU0iABEiABJIvASoLyXfuOHISIAESIAESeCcEYrYnv5MhsBMSIAESIAESIAFLJkBlwZJnh2MjARIgARIgAQsgQGXBAiaBQyABEiABEiABSyZAZcGSZ4djIwESIAESIAELIEBlwQImgUMgARIgARIgAUsmQGXBkmeHYyMBEiABEiABCyBAZcECJoFDIAESIAESIAFLJkBlwZJnh2MjARIgARIgAQsgQGXBAiaBQyABEiABEiABSyZAZcGSZ4djIwESIAESIAELIEBlwQImIa5DCA0NxePHr1/9HFs9KSuvnqaQAAmQAAmQQEII2CWkMuu+GwLyQih55bQs/HZ2dpC3UsZFpkyZopQLW1tbtGnTBsWKFYtLNZYhARIgARIgARMCfJGUCY6ISNeuXXHy5MkoOatXr4bc3Tdr1kzPK126NOrUqYMaNWogderUKt24fsaMGVG3bl00aNAAefLk0eu9SeDPP//EgQMHVB/yummtH2lj8+bN2LdvH16+fIlPPvkEhQoV0psW5eLEiRNYvnw5PDw8IK+2ppAACZAACZDAmxKgZcEMsTt37kAW+S5dupjkpk+fXr3y+dq1a+jRo4damHfv3o3OnTujQ4cOGDt2rCov9V1dXdGtWzdcvnwZS5YsUXlHjhyBl5eXSZtxidy6dQs2NjZKKTEuP2bMGDx48EDlhYeHQywQxiKvri5VqhRWrVoVJc+4HMMkQAIkQAIkEBMBKgvR0BErQJMmTaLJBcqWLYuaNWsqK8O9e/ewcuVKXVmQSrly5VLWBAnLgt2iRQvs3bsXrVu3lqREEVFIKlWqhODgYOzYsSPaNkXREGWCQgIkQAIkQALxIZDslYURI0bg9OnTZq+9ePHiGDx4sNm82BLFOVAsCJqkSpUK2bNn16Imv3IHny5dOpM040iGDBlU9Pnz58bJcQ7LWKT/yKJZPjZt2hQ5yyTu6OiIZ8+emaQxQgIkQAIkQAJxJZDslYXPPvsM/fv3R0hIiMk1iyNgp06dTNLeJLJ161bIRxNnZ2f4+vpqUciWgiz+4ksgfgNDhw7V8yQgd/s3btzA1atXMX36dJX34YcfmpSJLbJr1y6cOXMGDx8+RM6cOWMrHm1+wYIFcfjwYUyePBkSrlq1KkSBoJAACZAACZBAXAgke2XB09NTbQdEvruuVauWcuqLCwRzZerVqwfxCdBETPnGMnfuXBUVpUD6Ev8EYxEFQj4i4tw4f/585QdhXCa28JYtW9QJCAcHB3WNsZWPLr9ixYo4f/48xPfBz88PJUuWpLIQHSymkwAJkAAJRCEQ1bYdpYjlJ7Rq1cpkG8DFxQUtW7ZM0MCdnJzg7u6ufzJnzmzS3owZM3DhwgXMmjVLWSDWr19vki8nJE6dOqUsC7Nnz1YKhUmBOETkuGT37t2V1WTFihVxqGG+iJyGkK2Mdu3aKb8KNzc38wWZSgIkQAIkQAJmCKQIZSFt2rRo2rSpfnniTChpb1vE2tCwYUM0b94cgwYNUscXtT5l20IcEMUqkBDx9vZWCoss9vGVwMBAxUN8OCgkQAIkQAIk8KYEUoSyIBctd/KyJSF7+7ItkFAJCAhQfgnim6B9goKCzDbbu3dvyIkIuYN/GyIKh7nTDHJEc9u2bbh+/brq9uzZsyouPg7GEhYWBnkwE4UESIAESIAE4kMg2fssaBctDo3t27dXd/LmTg5o5eL6K89PkI+xrFu3DpG3IyQ/b968ysIwfvx4fPTRR6pKZB8H43beNCxbIqIs3L59WylEWv2DBw9i//79WlRte8jWh3M6Z5QrW06lixOmPLCJWw86JgZIgARIgATekACf4PiGwJKiuDgnzpkzR3UtRzQjn7yIbkwTJ05UDo2SL893EMdGCgmQAAmQAAm8KQEqC29KLInKi8+CKA3yCOcKFSrEaRTyyGrZOsmfP79Zi0icGmEhEiABEiABqydAZcHq/woQAAmQAAmQAAnETCDFODjGfJnMJQESIAESIAESiC8BKgvxJcd6JEACJEACJGAlBKgsWMlE8zJJgARIgARIIL4EqCzElxzrkQAJkAAJkICVEKCyYCUTzcskARIgARIggfgSoLIQX3KsRwIkQAIkQAJWQoDKgpVMNC+TBEiABEiABOJLgMpCfMmxHgmQAAmQAAlYCQEqC1Yy0bxMEiABEiABEogvASoL8SXHeiRAAiRAAiRgJQRSzFsnk+t8hYSEQN6YmZSyaNEinDhxQg0hV65c6Natm8lwXrx4AUdHR5O0xIoMGjQIoaGhqrkxY8bwVdqJBZbtkAAJkEAiEkjaVSoRLyQ5NXX37l0sXLgQv//+O65du4acOXOid+/e6vXWV69exccff4ypU6eiVKlS6rIuXryIzp07o2bNmujSpQsaN26M0aNHo1q1air/wIED6Nu3L/78809kzZr1jVHIy6lEOnTooL/KWl6JLa/cvn//vno9tig02bNnR9u2beHi4hKlj+HDh+Pp06fqNeFFixZV+TLGR48emZStWLEiGjVqpKd17NhRvQpcrpFCAiRAAiRgmQSoLCTBvIwaNQqHDx9Gv379IHfyR48exeXLl9VIXr58qRSI58+fq7goE82bN0fx4sUxYMAAPHjwQOXLwqzJkydPVJq26Gvpb/qrLfJST5QFURS8vb2VMuPr64srV67g559/VuMwblssEzIGEeMxiEXC3t4ehQoV0osbhyWxQIECOHXqlJ7PAAmQAAmQgOURoLLwjuckICBAWRQmT56slADp/v333zc7Cj8/PzRr1gx58uTB7Nmz4eDgYLbc20hMlSoVRo4cqRZ7ab9+/foYPHiwUiCM+7t9+7bawvDw8ICMN7I4OTkpa0TkdMZJgARIgASSDwEqC7HM1YgRI3D69GmzpeRuXxbQNxEx4Ts7O2Pfvn2oV6+eCpur7+/vj6+//hpZsmTBggULkCZNGnPF3mqaWAWMxcbGJop/xZw5c9S2RP78+c0qC0FBQfjpp5+QLl06VK5cGQULFjRukmESIAESIIFkQICnIWKZpM8++yzKAilVZA+/U6dOsdSOmi2Ogl9++SWWL1+uLApdu3bFkSNHohTs2bMn/v33X2V9kIU2qWXt2rWQLRIfHx99KBs2bMDjx4/Rrl07PS1yQBSMwMBAXLp0CaJYbN26NXIRxkmABEiABCycAJWFWCbI09NTORZGLlarVi2I6T0+0qtXL2zfvl05A548eVI5LIrJ31hy586Npk2bYujQobh+/bpx1jsPi0/Bnj17kD59erRo0UL1L0rCrl271BaJ+DWYkz59+ihHTHF0FKVI5K+//jJXlGkkQAIkQAIWTIDKQhwmp1WrVsqMrhWVrYSWLVtq0Xj9iqOfKAKyCMtRxRkzZkBzapQGZftj7Nix6nSCLLphYWGqH/EliE5sbW2jy4p3ujg1yskNsYh89dVXejurV69WTpDBwcGYOHGictKUzE2bNmHbtm2qXIYMGfTy4neRKVMmyFFR7aiknskACZAACZCARROIfuWx6GG/28GlTZtW3eVrvcrdtaQlhsh2Rrly5VRTcmxSE/EXkO2HSZMmQY5Gzps3T2VpvgvGioUWFmfCxBRxWPzll1/Ulkv//v2ROnVqvXl3d3flbyGnIMQvQRuDnNIQBcKcaCc43oZSY64/ppEACZAACSQOATo4xpFjnTp11B2zLOKyBRFfkUVVfB3ELC/WBTkaOW3aNBWWY4SRnzdQvXp1ZfofMmQIqlSposz+xYoVw9y5c1GyZEmIT8Bvv/0G2bYwvpOP7/i0ejJOedaDWDTKlCmDQ4cOqSzpT573IDzko8n69evVtoSc3njvvffUda1atQply5WFo4Mj9u/frxSKxByj1jd/SYAESIAE3i4BKgtx5CsWgPbt26vjizFtBcTWnNxVy/MH5MFLmsipiGHDhqmFXxbjyCJ5Yt6XBzeJo6FYG+QhTR988IEqKg91mjVrVuRqCYrL8xxky0Dk4MGDJm2JshBZtHFrbKSuHKtcuWKlXlROgci4KSRAAiRAAsmLgI3h4TvhyWvIKWO0YpKXJzmKk2R8HqUs0ybHK+VXjldqi3R86MgWx9mzZ1VVUTx69OgRn2ai1BHfBHnYlGxViM+CuSc/Dhw4UF2DVObjnqMgZAIJkAAJWAQBKgsWMQ1JOwg52SBPaxRxdXU1ceZ82yO7ceOGcngUi4s8TppCAiRAAiRgeQSoLFjenHBEJEACJEACJGBRBHgawqKmg4MhARIgARIgAcsjQGXB8uaEIyIBEiABEiABiyJAZcGipoODIQESIAESIAHLI0BlwfLmhCMiARIgARIgAYsiQGXBoqaDgyEBEiABEiAByyNAZcHy5oQjIgESIAESIAGLIkBlwaKmg4MhARIgARIgAcsjQGXB8uaEIyIBEiABEiABiyJAZcGipoODIQESIAESIAHLI0BlwfLmxGJHJO96kEdDx1Wk7KtXr+JanOVIgARIgAQslADfOmmhE2NJw5KXXo0aNUot/PL2zdGjR5sMT15nnTp1apM0iUyZMkUpF/LehzZt2kBerU0hARIgARJIfgT4bojkN2exjlgsABMmTMC9e/dUWXk5VJ8+fWBvbx9rXXMF/vzzTxw4cAA1atRAlSpVdMVg5MiRuqVBFAJPT0/1Gu8MGTKoZsSqcOLECSxfvly9XVPGQCEBEiABEkh+BLgNkfzmLNYR//zzzwgICEDhwoVRvHhxpTTMnDkz1nrRFbh16xZsbGxQp04dXVGQsvJqbR8fH6VEyBsj5Q2Sv/zyi96MKCelSpWCg4MDxDpBIQESIAESSJ4EuA2RPOct2lGHh4fj+vXrkLv7Tz75BGfOnFF397Lgh4WFIVWqxNMP+/fvbzKOoUOH4uHDhyZpEhFFQ8ZFIQESIAESSJ4EqCwk8byNGDECp0+fNjsKsQoMHjzYbF50if7+/mphljt9kaVLl+qL9c2bN5EjR47oqkabLo6KsSkZR48exYsXL5AxY8Yo7YgF4tmzZ1HSmUACJEACJJA8CCTebWbyuF6LG+Vnn30GcRqMLJLWqVOnyMmxxkVZEBHLwpIlS/Dy5UuULFlSpd25c0f9xvVr165dmDFjhrIWZMuWzWy1X3/9FQMGDMCyZcuUT0S7du2ilCtYsKByjpw8eTI2b96slIoohZhAAiRAAiRgsQSoLCTx1IhTYM2aNaOMolatWsopMEpGLAkhISGqRFBQEI4fP46yZcsiffr0Kk3Li6UJPXvLli24evWq8jkwN0YpKIpIiRIlkC5dOqUQbN++Xa+vBSpWrAgXFxfIVshff/0FGRuFBEiABEgg+RCgsmABc9WqVSu12GpDkYW1ZcuWWvSNfrNmzarKi6Lg5OSEZs2a6YtzlixZ3qgtOS7ZvXt3iJKxYsUKs3Xfe+89tG3bFuKvIOM+d+5cFP8EOQ0hWxlidRg7dizc3NzMtsVEEiABEiAByyRAZcEC5iVt2rRo2rSpPpIWLVpA0uIjHh4eejVxcBQRh0eR6LYSVGY0X97e3nB3d9ePSEZTTCWnSZNGKQpyEsNYAgMD1fWIDwaFBEiABEgg+RGIulme/K4hRYxYjiVu27ZN7fvLFkR8RRwRM7tnRsDdAFy5ckWZ/sVXIVOmTOqoY3zalaOPkU8znD9/Hhs2bEDp0qVV2+LgKP4Szs7OSrkw7kdOYcT3GQ/G7TBMAiRAAiSQNASoLCQN9yi9ikNj+/btlX9AbCcPolSOlND588746aefsHHjRpUjpxE6d+4cqVTco7KdIcrC7du31YOXpKYchxTlYO3atXpD4hvRvHlzPS4BebqjOFly68EECyMkQAIkkKwI8AmOyWq63mywsrjLIu/l5fVmFSOVFivCnDlzVKo4Mop/gibitCjbDEWKFIE8xdFYJk6cCD8/P5XUunVr/VSGcRmGSYAESIAELJ8AlQXLnyOLGKE4KIrSII9wrlChQpzGdPLkSeVcmT9/fmTOnDlOdViIBEiABEjA8ghQWbC8OeGISIAESIAESMCiCPA0hEVNBwdDAiRAAiRAApZHgMqC5c0JR0QCJEACJEACFkWAyoJFTQcHQwIkQAIkQAKWR4DKguXNCUdEAiRAAiRAAhZFgMqCRU0HB0MCJEACJEAClkeAyoLlzQlHRAIkQAIkQAIWRYDKgkVNBwdDAiRAAiRAApZHgMqC5c0JR0QCJEACJEACFkWAyoJFTQcHQwIkQAIkQAKWR4DKguXNCUdEAiRAAiRAAhZFgMqCRU1HyhtMSEhIlIu6fv06jh07FiU9uSW8DH2FcMOfhEhitBHf/kPDQ/EqLOr8xLc91iMBEki5BKgspNy5TbIru3v3LiZMmIDy5csjR44c6nfp0qX6eJYvX46+ffvq8aQIjNw+EWkHe8NmQBbkG1cONx/d1ocxeNMYpPkmh8nn48Vf6Pm9Vg+G46Dshk82pB6UA/V++xj/3D6l50vg2K2TqDi9EdINyY0Ju382yZPIpgs74D68sGoj1YCsqP5LsyhlJKH7yoFqHON2TjXJj2n8UnDbxd1wG1ZQXV+m7wpg44Xtev1lJ1bDZUge2A30NIw/O0pNro3fT67R8+v82trk2jUWxgz0wgyQAAlYBQE7q7hKXuQ7JTBq1CgcPnwY/fr1Q65cuXD06FFcvnz5rY4hNDQUc+fOVX00btw4xrdcrj67CUM3j0X9gjXRonhDtSCXnVoPt4acUPUDgu9B7viH1x6gj7lUthJ62N7WDl9W6IQy2d/HmTvnMW7nNFSe0RhBI/9VZUbvmIzBm0bDyT4Nnr56htuP7+h1JXDqzjmlYOTMkA2zWvykXiN+/NZpkzIS+fvmccw8OE+lP3z2WP3KV2zjf/jsEWTBz57eE5M+HInhW39Ewznt4Df0FNyd3RBisCY0LloXNfJWQtCLJxj71xS0WtgZ5/oVQkH3fPi8TFtUylVO7+/cXV8s/mel4Xrf09MYIAESsC4CVBasa77f+tUGBATg999/x+TJk9G8eXPV3/vvvx9jv6JI7N27F9WqVVOWiI0bN8LDwwM+Pj6q3qVLl3D8+HG0aNEi2nZevHgBX19fle/v7x+jsjBux1SktnPEuk4L8SLkJXqtGqwWdFmcS2WL6NPB1h5DavQx299PDYe/Ti/RWNX97chi+AX5wyNdFmRMk14t0p+VboN0Q3O/Lvtf6OsNI+Fg6wDfgQcNv/ZR8iVBtjeazOuIZkUbYOXp9SZlYhv/tP1zEBYehvWfLUaRLAUw+9BCXAq8gsl7Z2NU3UFo+15z9dEa9c6UHR/ObY/tl/YoZaFl8Q+1LPXbxmBVSWWTCl3LdTBJZ4QESMB6CHAbwnrm+p1cqYuLC5ydnbFv3z4EBwfH2ufp06dRr149tdBny5ZNlZ86dSq2bt2q1z1w4AC+//57PZ7QwFl/X5TwKAIbw59uKwfgecgL1eSeK4f0psWy0GLBZ+i4rBfWnN2sp0cOXHlw3WDi36GsCKIoiHQr3xG9K3aGncECYU4OXT+Kmvkq45eDC1Qf324epywQxmWHb/kRgU/vY1rTMcbJKhzb+PdfPaKUEVEUVp3eiN1XDqjF/uD1v6O0JVaInw/MV+m181eNki9WiBWn1qN63orqGqMUYAIJkIBVEKCyYBXT/O4u0tHREV9++SXEL0EsCl27dsWRI0fMDkCsBc2aNUOHDh0wcuRIpEoV/7+OTk5OGDhwIAYMGIDChQub7U9LfPLqKbKky6z8DOb9vRSL28xUWdcf3tKKKMvD4Rv/YP7RZWg8rwO6/PGVnieBLb47Yf+1F3KPKY27hm2LFR3mmOTHFHn0PEjV77X6GxwwLOAjtk9A4R8q6lWuPbyp0qY1HQtnh7R6uhaIbfxi4Ujr4KSUoPZLe6Br2Q5wS5sJd4Luak0oy4X4ImT8Lj82nN+GkQaLQz633Hq+Fph/dLlhS+Yl+lfpoSXxlwRIwAoJxP9/ZyuExUsGNmzYoBwWxXkx8mfs2LEKUa9evbB9+3a0b98eJ0+ehPgQiDJgLLJlUL9+fbi7u2Pw4MGwsbExzo5X2NXVFW5ubrEqHWKiF6tCU4OZv26B6mhcpJ7qLyQ04mTA+Abf4smoq7g++BgeDPeF+BbMPrxQbTNoAyucJT/G1R8KuRuX9r7f+pOWFeuvlJc79mvfHFN+ErKtIQrC5cCrqm6TeZ8gTyZvyDaGOYlt/KFhoQZLgg2+WNEf9oZtjqkG64RsI7wyOpki1z+m3hC0f7+lshj8tGumyfVp/U7YPRPpHJzVdWpp/CUBErA+AlQWrG/OE3TFctcud/DmPnXr1tXbLlSoEIYOHYo9e/agW7dumDFjBp4/f67nS+DTTz/Fv//+i3nz5pmkR46I82Js8urVK+UnIb4Sd+6YOhRGriuOh2vPbTEsjnexpM3PBstAgCqSPYOn+s1g8DnQRMK9K3VRUbE0aJLN4DzYt/IX2Pz5MuXbIBaCk35ntewYf6V/LxcP5Mjgpcq1fT/Ct2P+38uU8+Px26eRxiG12qJos7ibKrP0+J+6QhLb+MVqEvj0gbKK/NH+N9inssOTF0/h4RKxTaIN7n+G61rw0TTs6rYKD549xKyD/6dlqV/ZYpEtj46lPzJJZ4QESMD6CJjfVLU+DrziOBLw9vaGfOIqdnZ2KFeuHGbOnImrV6+iYMGCqmru3LkhpyayZs2qLAtly5bVtw/EQmC84Mt2RWwiysKtWxHbCPfu3VPtRlcnR0YvtQjOaDYOogys+M+B0MezqNkqF+5eUukZUr9WIowL5siYTUVFYSjuEfMWiBT0Su+BG0ZbHlo4X+bcSOfojGJZC6kTEr73LuvPQZCtC7E+iMQ2fqkvRyc/LFxH+RoEPAlE0Mtg1a5qINKXjEfEWBmS+Ojtk+QH/ap0V7/8IgESsF4CtCxY79y/lSsX60GbNm2wa9cuyPMWxF9h2rRpEEtDgQIF9D5FiRARq4NsZ3Tp0gVPnjxRaaJciIOjOD/KdoZsfbyJxLal0aN8J9XcOcNd8xn/CxhkOJ0gvgGag588T2DFqXXqLv+7LeMx1+DXIHfz5XOWUvXq/9YGC4/9oerOPDAP/dcNVw6FYtIXkS2GlQanQGlDRO7OJXzxXsTRyi5l2yuHxj5rv1V+Ez3+HKS2CeQUgnfG7DjZd6f+Odxzk2pDTiL81nKiCsc2/v9V6qrK3QkKUH3KaQYRsSSI9F4zBD/umqH6FgdIuR6Rb6r3Vr/yJacx5BrlKKVmAdEzGSABErA6ArQsWN2Uv90LtrW1hRxj/Pjjj/WO5LTDsGHDdL8E48VclAY5/VC1alUMHz4c48ePR4MGDbBlyxbUrl1bnawQ34YdO3bo7ZkLiIOj1I2LdP/gU+Vg+JNhP14+cozxr64r9apbfXdCzP6aZEyTAes+Xagfc5QHMBk/5Civay7MbDZePy1w/+lDNP+/CIVE2pCy8ullOCEx2fDcg96VOqtjipP2/AL5iAyt0Vc5VaqI0Zf4FohovxKObfyyuE/+cJRBKRiM/OPLSxWIX0Ret1wqfPPhbUwxHKPUJHNaV3xdrRcqeJfRkpSyI6dE+vyneOgZDJAACVglAZtwg+UOnaoAAEAASURBVFjllfOi3yqBp0+fKsuCPC9BTkjER/z8/JQDpCggb0MeG0z7NwxPbpQjhpHl6oMbuP3oDnJmyqb8CyLni0/AlfvX1AmC9KldImfHKR5seCCSbDUUMjhLprFLHac6xoViGr+Uk0c5y0OjimQtqPwWjOvKw6LEodIldTrlwGmcxzAJkAAJRCZAZSEyEcZJgARIgARIgARMCKQyiTFCAiRAAiRAAiRAApEIUFmIBIRREiABEiABEiABUwJUFkx5MEYCJEACJEACJBCJAJWFSEAYJQESIAESIAESMCVAZcGUB2MkQAIkQAIkQAKRCFBZiASEURIgARIgARIgAVMCVBZMeTBGAiRAAiRAAiQQiQCVhUhAGCUBEiABEiABEjAlQGXBlAdjJEACJEACJEACkQhQWYgEhFESIAESIAESIAFTAlQWTHkwRgIkQAIkQAIkEIkAlYVIQBglAXME5A2MSSUvQ1+pV0a/rf7lhVOxSVzKRNeGvO46IfWja5fpJEAC744AlYV3xzrF9NS1a1eUL18+yufu3bv6Nb569Uq9drpixYp4/vy5nt6wYUOVfuXKFT1tz549Ku3q1at6WmIHiv5UGWm+yQF5vbQmIYZFssGctrD/2kt96v32cZRFbfjWH5FuSG5V13agB77f+pNWXf2O3D4RaQd7w2ZAFuQbVw43DW+x1GTwpjGqnvSrfT5e/IWWjdjye60eDMdB2Q2fbEg9KAdkfMbjj62+3pEh0H3lQDWGcTun6snfbBytrs3BcP0yvibzPsEZ/wt6vigpbZd0g8uQPJAyxSdUxarTG/V844CkSxu1Z7fSk1ecWgePEcWQakBWw/iz44NpDbD23BY9nwESIIHkQ8Au+QyVI7UUAnfu3EHGjBnRpUsXkyGlT59ejx85cgS+vr4qfuDAAVSrVk2Fjx07pn5nzJiBH374QYWDgoJU2WfPnql4TF8XL17Erl274ODggA4dOsRUVM8btWOSvgjKAqhJ1xX9seH8Ngyt0RcOdg4YunksOi7riUUfz1RFftw1A8O2/oDa+avik5Ktce3hTZNXSa8+u0nVqV+wJloUb6gW5LJT6+HWkBOqfkDwPUh/w2sP0LpEqWwl9HBs+fa2dviyQieUyf6+etX0uJ3TUHlGYwSN/DdO7Wsd/X3zOGYenKeiD5891pLxx8m1qJqnApoUrYezBiVhyt5fsePSXjweeVmVGb19Ehb/sxJ9K3+BD3KWRp813yrlIXjUFdgY/mjyLOQ52i/tAbG+BDwJ1JKx5uxmuDu7YWDVnggLD4MoVh/ObY8L/fcjf+Y8ejkGSIAELJ8AlQXLnyOLHGGePHnQpEmTaMe2ZcsWlC5dGnZ2dti2bZuuLEgFZ2dnLFq0CH369IGnp2e0bZjLEGVBlBAbm9eLlblyWprc6X+7eRyaFW2AlafXa8nKrL/4nxVqEfy+zkAcv31aLfzLT6zBgo+mwdbGFiO3TcR7nsWw+fNlej3jwLgdU5HazhHrOi3Ei5CX6LVqMG4/vgNZnEtl81FFHWztMaRGH+NqJuGY8n9qOPx12RKNVdu/HVkMvyB/eKTLEqf2ZQugybyOUa5fKp/pvwf2qV7/F+D32B9Ljv+Jy4FXkcfVWykKzg5poY0j8OkDdF3RD39d2ofqeSvqY/v89z7ImCYD0tin1tMk8GvLiSbte7pkxceLuyolol+V7iZlGSEBErBsAtyGsOz5sdjRPX78GNeuXdM/N27c0McaHh6OtWvXokaNGuoj4bCwMD2/ZcuWyJ8/P3755Rc97W0Fmi/4TC34HxapY9LFnaC76k64Tv4Ii4eY4O0MC6dsTdx4eBuPnj/GoxeP0dqnMYYYthNaL+qCWYf+z6SNs/6+KOFRRN1ld1s5QLUnBfZcOaSXE8tCC8MYOi7rpRZJPeO/QGz5WvkrD65j44UdcLJPoysKkhdb/eFbfkTg0/uY1nSM1pT+a6woSKKmgHm4RCgidQtWR/DLJzh/9yJCw0Ox/txWpLJJhXI5S+ptHLpxTCkVy9vP1tO0QOT2bVNF/HeTK1MOrQh/SYAEkgmB17cVyWTAHKZlENi6dSvko4lYC7Rth/Pnz8PPzw+VK1dWloWRI0fi1KlTKFEiwgQv1oa+ffviiy++QM+ePbUm4vRbp04dlClTRl/YYqq08Ngf6i7fd8AB7L36egGXOqIQiHhl8IDs498yWATGN/gWfdd+i2sPbuLef+b0IZvGqgUyjV1qLD+xGoeuH8NvhjtmkSevniJLuszKj2De30uxvN1stFrYGdcf3lL58iWWh8M3/sGNR7cw/+gydC7TDrNavPZ7iC1/i+9O5VchSowoM2s/NVVYYqov2yYjtk9Q/YmFICa5eO9fLD2+CjXzVVYKiZQdW38I/r5xHIV+rKgYSNqvLSfo+aJAiJL1YeE6KJfjtQIh5SKLjL/Hn18jvaMLGhnKU0iABJIXAVoWktd8Wcxo69Wrh+PHj+ufffv26WOTbQdRHooWLYrChQur8Pbt2/V8CdSvXx85c+bE3LlzTdJji9ja2sLNzQ2urq4xFn38PAid/+iLbuU6KpN65MKv/vNd8A8KMFgOxmLShyP0O3bJk20FkfSp0ykfgYcjLirTuygMmsg+vOzdNzWY+esWqI7GReqprJDQiNMFonw8GXUV1wcfw4PhvsiZIRtmH16othGkYGz5UqZwlvwYV3+o8puQ/owdLGOrLwt5nkze+Kx0G2kqWhFWFWc0Qlp7J/zR/je93Py/l+HA9b/VGFoUbwTZMpH+tZMhQzeNMyhV9zG31RS9TnSBD+d2UP4M6z9bpNqJrhzTSYAELJMAlQXLnBeLH5WTkxPc3d31T+bMmfUxb9y4EcHBwejYsaPuhLh+/Wt/ASko1oXevXtj9uzZePTokV43tsC5c+cwefJkiINkTDJpzyy1qF033F3LNsBPuyKcFvuvHY6Vp9YjewYvVV2cGvNnzo0eH3TCXYNDokjOjNmQLUOEL4U4L8oiKdKiWCNllj9266SKy5aAePf7GbY0lrT52VA/QKVn/69uhjSvHT4l3LtShEOoWBpEYsuXMtnSeyoHQ/GbEN8HWbxP+p2VrBjrn7pzTvlhpHFIra6/zeJuqs5Sg0+CscIh2xglJ9eCOD4e/d9Wg3LkosrJ15gdUyB+Bme+2oNlbWdhabtZuPrghuIn+T/tnmnwVUiPLn98pfp48OwRLt27YvBLeH3iQ8p9ZvBp2HhhOxZ+PAMVvMtIEoUESCCZEaCykMwmzNKH6+/vr6wN7du3V06NcgqiWbNmkEX++vXrJsNv2rQpUqdOjenTp5ukxxSRI5e3bt1SvhIxlRNv+2JZC6nFzffeZYiPgohsBwQ8DYRX+qy6aX1NxwjT/o5Le1RazozZ4WVYJGV/3vgo5M1HfqoNyRfJkdFLefnPaDZOLdybDVsGIj6eRdVv5K8Ldy+ppAypXysRxmViy89hUGJERGEwJ8b10zk6q+sX/xG5/kuBEUdVHxmsCLI9ISLbCOUMpzdEATjw5Xrkc8tt0uytx35KWdASC2XOp4J7//PJkK2HrOncVfvSh1g+RPm4GBBxWkMKf71hJOYYnDKnNRmDtu8115riLwmQQDIjQJ+FZDZhljLcgIAAyPFIYylYsCB27Nihkvr376+2CyTy8OFDLFiwQM/T6jg6OirrwtChQ7WkRPv9yKcJ5KOJ+AuIk6HcHZc1HEUUEedGueM97X9enQAQK0HVPB/oloQqucsrZ0XZOsiVMQd+OTgf+Vxzw9Upo6rfo3wn9Fj1Nc4ZHB3l+QSDDAuj+AbIUUsRucNuUayhOiYoxxTnGvwaxBpRPmepOOXX/60N2rzXDO95FcPufw+o5zI42Dqg/fstY60v1pCTfXeqcvIV9CIYLkPzoGu5DhhTb7BKl/bluQ29KnZW1y+nIERq5K2MTE4Z4G1QisSKIicwRDHotiLiCGjPip+rcru6rVK/2pf78MIGJcwDf/feopLkKKb4g8jRTzlC+fvJNSpdlLiC7hGKh1aXvyRAApZNgMqCZc+PxY5u9+7dkI+xrFu3DnJkslixYrqiIPkZMmRQxyglT3wZjOWjjz7CuHHj1LaFcXp0YfF1kM+bilgJRIyfD7C4zUy8N6mGctKTvOzpvQxOir9KUMmStr+g9OQ6yswuCbJQy7FKTbp/8CnEAVHM8fKR/L+6rtSysdWQJ2Z/TeR44bpPF+rKSGz5spCLMqNJXtdcmNlsvO5gGFt9rZ78atet/UragasRFoope2cbnrEwW5KUyJaHKDyrOs7Hp8t6q+sXq4E4J35T/X8oFMeFft1/D2A6bDgxIY6fmogfiVhjKCRAAsmHgI3BTBmefIbLkZJA4hOQrYYwwz+DHP/5MUTuQZ5rcP/pQ8PdcF71/IXI+eIgeMPQRpEsBSJnKRP/7Ud3kDNTNsPWhscb58uzDa7cv6a2CIz9CbSGZAshpva1cgn5FYfGG4YTHpG3KRLSJuuSAAkkLwJUFpLXfHG0JEACJEACJPDOCUTYZt95t+yQBEiABEiABEgguRCgspBcZorjJAESIAESIIEkIkBlIYnAs1sSIAESIAESSC4EqCwkl5niOEmABEiABEggiQhQWUgi8OyWBEiABEiABJILASoLyWWmOE4SIAESIAESSCICVBaSCDy7JQESIAESIIHkQoDKQnKZKY6TBEiABEiABJKIAJWFJALPbkmABEiABEgguRCgspBcZorjJAESIAESIIEkIkBlIYnAs1sSIAESIAESSC4E+NbJ5DJTKXCcL168wKlTp1C0aFGkTp36nV/h6dOn1auzpWMnJycMGzbMZAwyPgcHB9jY2JikS2TQoEEIDQ1V6WPGjIGtrW2UMkwgARIggZRCgMpCSpnJd3gdXbt2xcmTJ1WPGTNmRN26ddGgQQPkyZPnjUZx584dfPjhh9i+fTsKFSr0RnUTo3BYWJhqpkLFCiherLje5KxZs3D58mXIC1lFUXB1dVWvxRalRpOOHTuqV3RfvHhRS+IvCZAACaRYAtyGSLFT+/YuTBZ5WUCHDBmiFIUlS5agUqVKuHXr1ht16ubmhokTJ8LDI+qrm9+ooQQW9vTwRK5cufRWxEqQP39+1KhRA4ULF0ZgYCAWLlyo50ugQIECEEWJQgIkQALWQICWBWuY5bdwjbK4ijVBpFSpUmjRogX27t2L1q1bqzSxFqRNm1YtqJs3b8bTp0/RvHlz5MuXD3JHv3z5clVOvlKliqqzhoSEYN26dThz5gzs7e1RtWpVlClTRq9z//59rF69GteuXUPevHlV/4m1lfHZZ5/p/Uhg+vTpqh9RkrJmzWqSxwgJkAAJWAMBKgspfJZHjBgB2Zs3J8WLF8fgwYPNZb1RWoYMGVT558+f6/XkTvz27dvKJ6FYsWJwdnbGs2fPMHz4cGXeP3DgAB4+fIitW7eiRIkScHFx0euKr0DTpk1x/PhxVK9eXSkcTZo0Ue1JIVEQGjVqBOlP7v5l22DFihX4888/9TYSKyB9+fn5KYWGikJiUWU7JEACyY0AlYXkNmNvOF65S+7fvz/kTt1Y7Ozs0KlTJ+OkNwoHBwfjxo0buHr1qrrzlsrif2As4ry4aNEiVKtWTSUHBQWpXzHzT548WS36oixElgULFihFYcOGDfDx8VHZ/fr104uNHTtWWRuOHDkCR0dHtR1SunRpnDt3LtF8H/bt24c1a9bofguinFBIgARIwFoJUFlI4TPv6emJmjVrYtOmTSZXWqtWrQT5CsjWgnxEZDti/vz5UfbwxRdBUxSkXLp06eQnVhElIHfu3LqiIBVy5syp15OFXOTTTz/V0yQgi3tiOUrKNkvJkiWVMnTv3j3s2rULFStWNOmPERIgARKwFgJUFqxgplu1agVZYLU7ezH5t2zZMkFXXqdOHfz4449KAZDjheZEnB7jI+JQKL4N5kT8HWTx/uijjyBj0OSTTz6Bl5eXFk3wryhZwk1ELB2ylZOYlosED5ANkAAJkMA7JEBl4R3CTqquxNFQfABk0RMRZ0RJS4iID4KciIhJxDExPiJWBdm+ePXqldpuMG5DnCElX6wUxsqCcZnEDmunHi5cuJBolovEHiPbIwESIIG3SSCqG/rb7I1tJxkBWVjlblnM+bIFkZQijo7i3Pjo0SM1DAnLR9JFtBMV4nwpzzsICAjAhAkTVJ58yfbD7Nmz1daHWBnklMLcuXPVnb9eKAGBH378AeIvIcqBOE2KM6Y8b6F27doJaJVVSYAESCD5EqBlIfnO3RuNXBwa27dvr55IaO6o4hs1Zihs7qmGcW1j5syZagtDKy9HKkV69OihTmfIUcwpU6bgm2++0Z9vICcq+vbtq8rJloMoCfIURfmIiBJUvnx5FU7o18MHD7Fz5071kbbkSGaVKlXUUx4T2jbrkwAJkEByJGBjeEpdeHIcOMec8gmIf4IcWxRFJ0uWLFEuWE54yIOg5FHNmTNnjpIfW4I8hVJ72JKcqpBjppqI34S07e3tbXKsU8sfOHCgOikhcT7uWaPCXxIggZRKgMpCSp1ZXlesBMQnQnvqpPhwvInCIcdG5d0Qcgw0e/bssfbFAiRAAiSQnAlQWUjOs8exkwAJkAAJkMA7IEAHx3cAmV2QAAmQAAmQQHImQGUhOc8ex04CJEACJEAC74AAlYV3AJldkAAJkAAJkEByJkBlITnPHsdOAiRAAiRAAu+AAJ+z8A4gJ9curl+//k6GniNHjnfSDzshARIgARKIHwEqC/HjZjW1MrlmeqvXej/w/lttn42TAAmQAAkknAC3IRLOkC2QAAmQAAmQQIomQGUhRU8vL44ESIAESIAEEk6AykLCGbIFEiABEiABEkjRBKgspOjp5cUZE5DHMz9+/Ng4KcawlJVHQlNIgARIwNoJ0MHR2v8GWMH1P336FKNGjVILv7yUavTo0VGu+vnz5+rtksYZ8uZLURjk/Q9t2rSBvPmSQgIkQALWSIDKgjXOuoVfs1gAJkyYoF5DLUN1dXVFnz59YG9vH6+Rb968WSkKNWrUUK+aNm7k//7v/3DmzBnIGy5FRCGQV3mLyJslT5w4geXLl2Pbtm1UFhQVfpEACVgjAW5DWOOsW/g1//zzzwgICEDhwoVRvHhxpTTMnDkz3qOWN0va2NigTp06JtaDZcuW4dSpU8iUKROqV68OHx8fk3xRTkqVKgUHBweIdYJCAiRAAtZKgJYFa515C73u8PBwyMOgMmTIgE8++UTd9cvdvSz4cvefKlXi6bfHjx9HunTpMGDAgBhpiKIh46KQAAmQgLUSoLJgrTOfSNc9ZvQYXLhwwWxrhQoVwsCvB5rNiy7R399fLczZs2dXRZYuXaqsArJY37x5E/F52qP4HURWMiRNtjvy5s2LefPm4eHDh/D29kaTJk2iDM3R0RHPnj2Lks4EEiABErAWAol3m2YtxHidJgQ6dOigHABNEg0RcQrU9v4j58UUF2VBRCwLS5YswcuXL1GyZEmVdufOHfUb169du3ZhxowZShHIli2bSbWrV6+quFgXzp07B+l3//79mD59ukk5iRQsWFD5PEyePBni//DixYsoZZhAAiRAAimZAJWFlDy77+DavLJ5oVLlylF6qlKlCjy9PKOkx5YQEhKiigQFBUEW8rJlyyJ9+vQqTcuLrQ0tf8uWLRClQHwOatasqSWrX+1IpCg133//PcaMGaN8F27cuGFSTiIVK1aEi4uL2gr566+/IGOjkAAJkIA1EaCyYE2z/ZautWWLFkibNq3euvgBtDCkxUeyZs2qqomi4OTkhGbNmumLc5YsWd6oSTku2b17d4iSsWLFCpO67u7uKu7h4QHZZhApUKCA8osQp0djkdMQsm3Rrl07jB07Fm5ubsbZDJMACZBAiidAZSHFT/Hbv8C0zmnRoEEDvaNGjRrBKa2THn+TgCzemoiDo4j29svIWwlauZh+xQ9BFANZ7I3F0zPC6vHkyRM9+dGjRyqs5WkZgYGBShmSkxkUEiABErBGAnRwtMZZfwvXXLt2bYiPgBw3jGzyf5PuxBExs3tmBNwNwJUrV5TpX3wV5HijZgF4k/akrGxDRD7NINsP0uaDBw+wes1qZHbLDF9fX6RxSqOe62Dch5zCiO8zHozbYZgESIAEkisBWhaS68xZ2Ljt7O3w0UcfoXXr1khlm7C/Vp0/76wUg40bN2L16tUq3Llz53hfsWxniLJw+/ZtkzY6deqkFIl9e/dh1apV6nREjeo1TMrIkx3FyVK2VigkQAIkYK0EbAz/ifIAubXOfizXLeb/TK6ZYimVsOz7gfejPQ4pi7v89fTy8kpQJ+fPn8ecOXNUG7LoDx061KQ9sVzIFkS+fPlMjlhOnDgRfn5+qqwoQdqpDJPKjJAACZCAFRCgsmAFkxzfS0xqZSG+4zZXT3wWRGmQUxAVKlQwVyRK2smTJ5VzZf78+ZE5c+Yo+UwgARIgAWshQGXBWmY6HteZkpSFeFw+q5AACZAACfxHIGGby8RIAiRAAiRAAiSQ4glQWUjxU8wLJAESIAESIIGEEaCykDB+rE0CJEACJEACKZ4AlYUUP8W8QBIgARIgARJIGAEqCwnjx9okQAIkQAIkkOIJ8AmOKX6KE3aB8hwECgmQAAmQgHUT4NFJ655/Xj0JkAAJkAAJxEqA2xCxImIBEiABEiABErBuAlQWrHv+efUkQAIkQAIkECsBKguxImIBEiABEiABErBuAlQWrHv+efUWQCAoKAj79+9Xb7dMzOG8CgtJzObYFgmQgBUT4GkIK558XvrbIdCrVy8cOXLEpHEfHx/MnDnTJE2LXLp0CS1atMDx48fh7u6uJcf795uNozF1368IfvkEqe0cUSd/NYyq9w2KZCmgtzly+0SM2TEZT189Q17XXPjri5XIlt5Tz2eABEiABIwJ0LJgTINhEkgEAi1btsTAgQPh5OQEW1tbFW7btm2CWg4NDcWvv/6qPgEBATG29cfJtaiapwJ+bTkR3T/4FOvPb0P5qfX1OqvPbsLQzWNVmTmtJuHmo9soO7Wens8ACZAACUQmQMtCZCKMWzWBK1eu4OjRo+rV1I8ePUKTJk2wfPlyVKpUCeXLl1dsVq9ejezZs+PixYvw9fXF+++/jwYNGujcpKzIihUrEB4ertrQM/8LnDhxAps2bYKLiwty584dOTtK/MWLF6ovyfD394/xldln+u+BfarX/7T9HvtjyfE/cTnwKvK4emPcjqnK4rCu00K8CHmJXqsG4/bjO/j75nGUyuYTpW8mkAAJkMDr/1HIggRIAGfOnIFsI1StWhU7d+7E+PHjUatWLUyaNEkt7sWLF8fEiRPVwu3m5oZ8+fKp7YUhQ4age/fucSJ47NgxNGzYEDlz5lTKwqlTp+JUL66FjBUFqWNjY6OqerhkUb9n/X1RwqMIbAx/uq0cgOchL1T6niuHqCwoEvwiARKITIDbEJGJMG71BJydnbFo0SK0atVKKQ3z589Xd/8XLlzQ2YiicODAAWU9+PLLL9WvnhlLYOPGjRAfhj179kDCjRo1iqUG1JaGbG0MGDAAhQsXjrW8VuDivX+x9Pgq1MxXGU72aVTyk1dPkSVdZvxz+xTm/b0Ui9tE+FJcf3hLq8ZfEiABEjAhQMuCCQ5GUjqBDRs2YMSIEWYvs3HjxihatCjSpUun7sbTp0+PV69eqbKurq4IDg7W65UrVw5p06ZVcdl2mDZtGu7duwdRImKTrVu3KmuFnV3EP78qVapg7dq1sVWDjOFN5PHzIFSc0Qhp7Z3wR/vf9Kph4WHKqtB0XkfULVAdjYtE+CuEhPL0hA6JARIgARMCVBZMcDCS0gnIXbncoZsTb29v3Lx5Ew4ODipbFnNxUBRJlSoVwsLCVFi+PDw89LCmIEhdLaxnRgqID4P4ObRp00bPyZIlYntATzATEKVlxowZKqd169bImjWrmVKvk16GvkLJybXw8NljnP5qF9KndtEzxcKw9twW2Bn8Go732YG7wREOk9kz8DSEDokBEiABEwJUFkxwMJLSCYhCIJ/oRBb8uIgcc9Tk7NmzKlikSBEtKdpf8R+oV6+e8o3QCsXFZ0GUhVu3IrYJxIIRk7IQGh6KcobTDVcf3MChnhuRz83UgTJHRi+I38KMZuOQIU16rDi9Xg3Fx7OoNiT+kgAJkIAJAfosmOBghATiRkCeo7Bs2TKcO3cOc+fORZ06dWBvb68qS5rkBwYG4v79+yosaZpUrlxZ+Sps27YNhw8fVu1oeXH51RwWoytb/7c2yh9Bjk3KCYjfT65Rn/tPH6oqPcp3Ur/nDArDGf8LGLRhJJwd0qJ2/qrRNcl0EiABKydAy4KV/wXg5UdPQBZl44VZtiI0KVu2LPr06aOisvUwZswYLQvffvst9u3bp8fFF0KOXcpRShE5jrlmzRp06NBBxWvUqIFr166Z9KUyjL7kmQ1yMiMucuDq36rYlL2zIR9NNn++TCkEokRs8d2Jn3bPVB8HWwf81XWlVoy/JEACJBCFAF9RHQUJE0ggZgJyrLJp06bo0aMHbt++DS8vL923IeaaprnyvARRAsShMilEHCBvGB7IZPxkx6QYB/skARKwfAK0LFj+HHGEFkpAHCBz5MgR79HFxbEx3o3HoaJL6nQokvr1I6DjUIVFSIAErJTAa7uqlQLgZZPAmxKQJzaKNYFCAiRAAtZCgNsQ1jLTvE4SIAESIAESiCcBWhbiCY7VSIAESIAESMBaCFBZsJaZ5nWSAAmQAAmQQDwJUFmIJzhWIwESIAESIAFrIUBlwVpmmtdJAiRAAiRAAvEkQGUhnuBYjQRIgARIgASshQCVBWuZaV4nCZAACZAACcSTAJWFeIJjNRIgARIgARKwFgJUFqxlpnmdJEACJEACJBBPAlQW4gmO1UiABEiABEjAWghQWbCWmeZ1pkgCz0NeJPl13Q2+h4XH/sDTV8/e2lik/SsPrr+19tkwCZBAzASoLMTMh7kpjECvXr3U66LlldGRP126dEkWV/ss5Dl6rxkC9+GFkeabHLAd6IEqM5uYjD00PBRtl3TD3zePm6S/jcjB60fRfqnhDZyP7ryN5lWb0v4fJ9e+tfbZMAmQQMwE+NbJmPkwN4URaNmyJapXr66uaubMmXjy5An69eun4q6urkl2taGhoZg7d67qv3HjxsicOXO0Yxm5bSKm7J2NbuU6ok7Bajhx6wzmH11mUv5l6Css/mclKuQsg1LZfEzyGCEBEiCBNyVAZeFNibF8siZQqVIlffyrV6/Gs2fP0KTJ67vyq1evYteuXWjVqhXSpEmjl122bBkKFCgAHx8fSL3s2bPj4sWL8PX1hbyFskGDBnpZCUj61q1b8eDBA5QqVQp169Y1yY8cefHihaoj6f7+/jEqC6IolPQqgRnNxqlmGheui29rfaU3+dW67/Di1UsVX3B0OXzvXVbh8Q2+g4OtPfyC/DH74EIc+c/q8IF3afSv0h12qSL+O1h1eiOuPbyJApnz4NdDi+DjVRRfVemGNHap9T42nN+GWQf/D65pM6G4R2E9XQKxtS9ltl3cDbFIfOzTFFP3/Ypzdy+iVYnG+Kx0G8nGeUN8zF9TEPziCXp80Eml8YsESCDpCFBZSDr27NkCCaRNmxaDBg1ChgwZIHf4IufPn0efPn2wYsUKFZ84caJa2N3c3JAvXz6IhWLIkCHo3r27yhcl4ZNPPkH+/PmRM2dOzJgxQ1kv+vbtq/IT+uXu7AbfgMtqgS3kni9Kc4euHcOL0Ahl4eYjPxy8dlSVka0JwB4Td/+CyQaFw8ezKJ68fAJZ+Of/vQzn++9T5eb+vQTrzm1V4dyZcmLF6XXKJ0HLX312E5rM+wSp7RzhaOuIOUcWq7LaV2ztSznZUph9eCHG/TUV4nfhnTE7vlrznVIWAp8+QLEJVREWHgYvFw/Umt1Sa5q/JEACSUUgnEICVkqgY8eO4a1bt45y9Z07dzZJHzlyZHi5cuXCDVsFqmyVKlXCixUrFh4cHKzio0aNCjdsbajwq1evVF7Pnj31dg2WiHCDUhEueTHJvXv3wgMCAvR+oitrWJzD0d9dfbxGlAgftuWH8Fehpm0bnA1V/vR9c6I0c+PhrXDDNoWePmLbBFX2nL+vSvtwbnsV3/PvQRUfuH5EeKoBWfU+6v/WJjzjt/nDn716Hh4SFhJe+MeKqvzFgH9V+djal0Jd/+in6jSf3yn8RchLVc8/KED9/nxwvsq7cv+6ivdePVjFx++cpuL8IgESePcE6OCYVFoa+7VYAm3btsXu3btx48YNhISEQLYgJC1Vqtf/XAzKA8QKISJbG+fOnYNhsce1a9fU77Fjx9CmTRv1EV8Eg2KBffsi7tyju3DxmRBrhXE/5sp+Wupj/DvoCNq818xwV/4cw7b+ALfvCiHCcmCuhmmaW1pXLDKcLjAoBcgx6n1M2P2zKnD7sb9e0MHWARVzlVXx6nkrqrv847dPq/jufw+gfM5SyrJga2OLBgVr6fUkEJf2tQqyfSJbIyJiMRERq0N6RxdlbZB4q+IRFh4JU0iABJKGALchkoY7e7VgAhUrVoSHhwdWrlwJgwVBLf7iGGkskq+JLPAiN2/eRFhYmAq3a9cOuXLlUmH5+uKLL9S2hJ4QKWCwOqjtCkk2WDuQNWvWSCVMo7ky5sCij2eqxEl7ZqHP2qFq60D8F2KTzn/0VdsK9QvWxJcVOuFy4FXMOvR/ePnf1oXUT586nd6MbDeIhBq2BcINf4INWxdeLq/HJ1sIxhKX9qW8+EhE9neQ9Gv3bxp8ITJKUEkeN+//QvwhARJIKgJUFpKKPPu1WAK2trbo0KEDFixYgJIlS6JWrVrIkiWLyXiPH399JPHs2bMqr0iRIsqhUSLiq1CnTh2TOjFFRFm4deuWKiIWitiUBeO2WpZopJSFvy7thaYsaM6KQS+DjYuqsJySEEVhfadFKt5r9eAoZaJLsIEN8rnmNhzJPKEX2XP1kB6WQFzbT2Xz2lJj3EDt/FXxy6EFetJfl/bpYQZIgASShoD5f61JMxb2SgIWQ0AsCX5+fli3bp3aSog8sCNHjqjtCdl+kG0GUQzs7e3h7u6uwgY/BmzYsEFtP8ipibFjx6otjcjtmIvb2NiYS9bTyk6tB4OfAs74X4BsCbRc8LnK+/KDz/Qy9oa7dnEOlBMLe68cwqV7V5RVQAqI06JsKUjabwbnxNkGq8KbSP1CNXDC7wym75+D30+uwarTG0yqJ7T9FsUbweALgS5/fIX9V49g0MaRJu0zQgIk8O4JUFl498zZo4UQiMk3wNPTE1WrVoWzs7P+XAbjYZctW1adkKhRowauX78O45MOP/74ozpm+fnnn6utB4NDJPbu3WtcPUrYyckJ48ePVx+xUMQkGdK4YPi2H1H0p8qo8nMTXL5/FcNrDUBet9fbHlJ/RN2BuBN0F5Vmfoh848upY4iS/mOjYXj8PEilff57H1TPG3GcVLvTF+uBOdHSB1brqfwLvlw1CK0WdkbWdO6quFhkRGJrXxWK4atKnvKolqeCOi1RYUZD2KeK8GkQ/wgKCZBA0hCwEZ/KpOmavZKA5RIQx0ZRCJo2baqORRqPVJQISe/Rw/DUwtu34eXlBW2hNC739OlT9cwE8WlIl+61D4BxmfiG5SmOYhnI5JRBWRDi045YJvK4eitHxfjUv3jvX2RIkx6ZDQ6T5iSh7fsHByDoeXAUJchcX0wjARJ4uwTs3m7zbJ0Ekh+BzZs3Y9WqVWobQhwVoxM7OzvkyJEjumyItcDYyTHagvHIkAckFctaKB41X1cpkqXA60g8QvnccsdYK6HtZ3HODPlQSIAEkp4AtyGSfg44AgsjsGbNGsjjl5cvXw5vb+8oo5MnNoo1gUICJEAC1kKA2xDWMtO8ThIgARIgARKIJwFaFuIJjtVIgARIgARIwFoIUFmwlpnmdZIACZAACZBAPAlQWYgnOFYjARIgARIgAWshQGXBWmaa10kCJEACJEAC8SRAZSGe4FiNBEiABEiABKyFAJUFa5lpXicJkAAJkAAJxJMAlYV4gmM1EiABEiABErAWAlQWrGWmeZ0kQAIkQAIkEE8CVBbiCY7VSIAESIAESMBaCFBZsJaZ5nWaJSAvjOK71MyiYSIJkAAJ6ASoLOgoGLAmAseOHUPjxo3Vi6DkPQ/t27fHy5cvrQlBvK/1ixX9keabHFE+0/fPUW1mG+mD1ou66O0HPn2gyk7eO1uleYwoptf1Hl0SX637Dlcf3NDLM0ACJGB5BPjWScubE47oLRM4ceIEGjZsiEaNGmHlypWQV0nPmTMHL168gIODw1vu3TKblxdnzZ07Vw1OlKjMmaN/22PAk0A8D3mBEXW+NrmYqnkqqHjg0/u4G3xPz3sZ+lKVf/jskUq7//QhPF2yoFv5jth5eT8m7ZmFWQf/DwHDzsX7ddl6ZwyQAAm8FQJUFt4KVjZqyQQmTJiA3LlzY8aMGbC1tVVDrV69uj7kjRs3wsPDAz4+Pirt0qVLOH78OFq0aKGX2b59O9KmTYuMGTNCXmktCkfz5s2RL18+VSa2/Pv372P16tW4du0a8ubNq9pOnTq1qitWj4CAAHh6eqq2Jb9Bgwawt7fX+5fA3r17cfjwYTx58gTvvfce6tati1evXqm3ZVapUsXkjZm7du3Cs2fPVBmTRv6LiKLk6+urYv7+/jEqC1IolU0qDKnR57/ab/5T0D0fBlT9Un0+Xd4b8/5eioPXjqJqng/evDHWIAESeOsEqCy8dcTswJIIhIWFYevWrejXr5+uKEQe39SpU1GtWjVdWThw4AB++OEHE2Vh4cKFuH37Nk6dOoVixYrB2dlZLcbDhw9XzcWULwqCWDWeP3+OGjVqYNasWVixYgX+/PNPVXfLli3K0iGRChUqQJQbURZmz44w40v6d999p+KFChVCyZIl8c033yBbtmxqzAsWLMDZs2cxbtw4KQrxy+jZsyc+/fTTaJUFVfANv/65fcqkhigAaewiFB6TjFgijrYR1hzXtBljKclsEiCBpCJAZSGpyLPfJCFw716EeVz8FBIqoigsWrRIKRbSVlBQkEmT0eWPHTtWWQmOHDkCR0dHDBkyBKVLl8a5c+cgi79IcHAwdu7cifz582PJkiVKOZCtArGEnDx5UikKw4YNQ5cuEb4BQ4cOhShCIh06dMCgQYNUHScnJ+zevRty3caWEVXQ6EvKDRw4UDl7ZsqUySjHfDAsPAzvT6ppkrm3+1pU8C5jkhZdxDfgstp+OHD9b6w8tR45M2RDsawR1x5dHaaTAAkkHQEqC0nHnj0nAQFZcEVSpUq4b69sVYgFQpN06dJpQfUbXf6+fftUvtzpG8uaNWt0ZUHqiqIgIpYLUR5u3LihthZkm0KkSZMm6le+jPuWdFEWNm3ahGbNmmHZsmWoWrUqsmfPrpc3F3B1dTWXbDZNtiEu9N9vkpcjYzaTeEyRf+9fQ//1wxESFgK7VHY40HNDTMWZRwIkkMQEqCwk8QSw+3dLQHPcu3PnTpw71hSMyBUqVaoUOckkbi5f7v7lLv+jjz5CnTp19PKffPIJjK0dsqWgiearoI3jwYMHKiu6xT19+vRo2bKlskiIL8batWtNtjC0do1/xddBfDhEWrdujaxZsxpnmw3ndctlNl0UCXNiZ/v6v5u6Bapj42dLcPD6UVSY3hBtFnfDX11XmqvGNBIgAQsgYP5ftQUMjEMggbdBwM7OTpn8xYkxOpFF2FiZEOdGc6It4ubyJM1cvlg0xLlSLAGiLBh/ihYtGl1TJuk5c+ZUcdmOiE7atGkDsWBMmjRJ+VPUrGm6ZRC5nigLt27dUh9tqyZymbjGHe0c8fTlM7140PNgFXZxNLW8SGK5HCXRv0oPw6mIfdj97wG9DgMkQAKWRYDKgmXNB0fzDgj07t1bnW4YNWqUclK8fPkyZM9fTguIlCtXTjlBnj59GnKqYcOGxDWRy/aDOCvOnz9fWRlEMZFji+KzEBcRp0hxqBw5ciTE+VJ8Jf744w/IdWhSpkwZiFIhzpMff/yx8o3Q8mL7tbGxia2Iyv/95BoYf874X1DpogD8ffO4yrt471/0WBVxxLJmvspm2x1Wuz8cDE6O3f8caDafiSRAAklP4LVdMOnHwhGQwDshIKb5mTNnon///pg+fbrqUxbWwYMHq7CcPJATCbVr11aLcv369bFjx45EG5tsOcjdu/gVyEdE+i9fvrwKR7dYa34Wss2wfPlyfPnll+q4plRyc3OD+DxoIm20bdsWo0ePVlsSWnp0v+LgOH78+OiyTdJtYANxcGy1sLNJesdSH2Fuq8n4rdVElJ9aX8+XbYnhtQagkOG0hDlJbbBEdCv/CeShTbItIcoGhQRIwLII2BgedRtuWUPiaEjg3RGQ449ywsDd3R2RF2k/Pz+Vrj2LIbFHJUcaxfQvC7XmS/GmfQQGBqrnLMgzGWSLxVj+97//KWuFPAciKeTWYz/4BwWgcJYCfNhSUkwA+ySBRCRAZSERYbIpErAEAv/88w+2bduGiRMnYtq0aepEhCWMi2MgARJIvgTos5B8544jJwGzBA4dOgR5pLU8z0GOTlJIgARIIKEEaFlIKEHWJwESIAESIIEUToCWhRQ+wbw8EiABEiABEkgoASoLCSXI+iRAAiRAAiSQwglQWUjhE8zLIwESIAESIIGEEqCykFCCrE8CJEACJEACKZwAlYUUPsG8PBIgARIgARJIKAEqCwklyPokQAIkQAIkkMIJUFlI4RPMyyMBEiABEiCBhBKgspBQgqxPAiRAAiRAAimcAJWFFD7BvDwSIAESIAESSCgBKgsJJcj6yZqAvMyJ71JL1lPIwZMACbwDAlQW3gFkdmF5BI4dO4bGjRsjR44c8PLyQvv27fHy5ct3NtCwsDBMmTIFV69efWd9xrWjTN8VQJpvciDD0HwoMbEapu+fY1L1ixX9Vb6UMf5o5bKN9EHrRV30OoFPH6hy8gpqCgmQQPIkYPpO2+R5DRw1CbwRAXnJUsOGDdGoUSOsXLkST58+xZw5c/DixQs4ODi8UVvxLRwaGqpe9FSkSBF4e3vHt5k415P+5s6dq8qLkhTTK7EfPX+MfG650bBQLey4tBdfrhqEPVcOYWnbX1T9gCeBeB7yAiPqfG3Sf9U8FVQ88Ol93A2+p+e9DH2pyj989khPY4AESCB5EaCykLzmi6NNBAITJkxA7ty5MWPGDNja2qoWq1evbtLy4cOHsWvXLrVFUblyZZQrV07P37hxIzw8PODj46PSLl26hOPHj6NFixYqvn79emWtCAgIwJEjRyBtG9dfuHChbsXYtGkTbt68qeq1bdsWdnYR/yTPnj0LX19ffPDBB5D+xAJRtWpVlClTBsuXL0eVKlVMlAwZ67Nnz1C3bl19nMYBUYSkPRF/f/8YlQUpUzRLQfzYcJgE0Wz+p1h2YpVBORiolAhJS2WTCkNq9JEghQRIwAoIcBvCCiaZl/iagJj/t27dql7drCkKr3MjQr///juaNGkCWfQ3b96syi5evFgvNnXqVNWGlnDgwAF8//33WhTTp09Hhw4d8NVXX+H06dOqvnZXL4UkTT4iN27c0OPGvhP79+/HgAED0KpVK/z0009KWRg9ejTSpEmDBQsWYObMmaq+fInfRc+ePXHu3Dk9LTEDX1Xppppbf26bSbP/3D4F48+zkOcm+YyQAAmkHAK0LKScueSVxIHAvXsR5nHxUzAnsmCPGDFCbVP8/PPPqkjv3r0xbNgwtXBrd/7m6kZOO3r0KOzt7dVCvnfvXnz66aeqyNixY/Hq1SssXboUnTt3Ro0aNSJXVfHg4GA1jv/973/K4hAUFKTSRREZNGgQvvvuOzg5OWH37t2Q69IsG+Yak3IDBw5UlpJMmTKZKxJtWl63XCrPN+CyXiYsPAzvT6qpxyWwt/taVPAuY5LGCAmQQMogQMtCyphHXkUcCcjevUiqVOb/6gcGBqqFV8z8UkY+sg0hC7dsK8RVatWqpRQFKS/bFbIdER9p3bq1vjWRLl061YRYPURkC0Nk2bJlqFq1KrJnz67i0X25urrCzc0t2muPrp5dqoh7ildhr/Qisg1xccBBk0/p7O/p+QyQAAmkLAK0LKSs+eTVxEJAc+y7c+eO2ZKiFIhkzZpVz9fCcmcvvgqRRVNAjNO1OpIWX6dJWdjNKQDp06dHy5YtsWTJEuUPsXbtWsyeHfNJA7FkiI+GiCggxuNTiTF8Xbl/TeXmz5zHpJRmcTBJNEREkTAndrb878YcF6aRQHIgYP5fdXIYOcdIAvEgINsIpUuXVk6D5qpnyZJFJcuJCU20sLbAyh26sbIhzo1vKjY2NqqKOCVGJ7KFEZ20adMG+/btw6RJk+Ds7IyaNU23BCLXE2Xh1q1b6qNtxUQuE138l4MLVFaNvJWiK2KS7mjniKcvX19X0PMIBczFMcIyYlKYERIggWRBgKp+spgmDjIxCYgPQrt27TBq1CjlRyAL9rx58/DNN98oB0I5vSBOjmXLllUme/EtqFChAlxcXNQw5GTDL7/8ohwT5WTBhg0bkDp16jcaoigtsr0h/eTPnx8ZMmRQJxQ0JSK2xuRURM6cOTFr1izl9+Do6BhbFT0/Ln1cfXADvx1ZjI3ntmPF6XWokLMM3vcqrrchgd9PrjGJF85SAEUMn3I5SmKz718q38ezKHqs+lqVq5mvskl5RkiABJIPASoLyWeuONJEIiDKgJwm6N+/vzq5IM3Kwjt48GDVg5w6EMdDMfWLFCpUCD/88IMKy1eDBg2wZcsW1K5dW93V169fHzt27NDzo/OH0Av8F+jRo4dyVBR/A5F///03zkqHLPhy1FLGqo1TNRLNlzg4jh8/PprcqMlHb51Alz++QsY06dGzwueY0Gi4XsgGNhAHx1YLO+tpEuhY6iPMbTUZv7WaiPJT6+v5si0xvNYAFHLPZ1KeERIggeRDwMbg/R2efIbLkZJA4hK4ffu2etaCu7s7It9x3717V3UmeebEz88PkhfdEUxzdRIzTU5JyHFJOd5piXLrsR/8gwIgFofUhq0JCgmQQPIlQGUh+c4dR26lBP755x9s27YNEydOxLRp09RzHKwUBS+bBEjgHRGgg+M7As1uSCCxCBw6dAjidCnPa2jWrFliNct2SIAESCBaArQsRIuGGSRAAiRAAiRAAkKAlgX+PSABEiABEiABEoiRAJWFGPEwkwRIgARIgARIgMoC/w6QAAmQAAmQAAnESIDKQox4mEkCJEACJEACJEBlgX8HSIAESIAESIAEYiRAZSFGPMwkARIgARIgARKgssC/AyRAAiRAAiRAAjESoLIQIx5mkgAJkAAJkAAJUFng3wESIAESIAESIIEYCVBZiBEPM0nAegmEIxwhYSHxBpDQ+vHumBVJgAQSnQBfUZ3oSNlgciDw6tUr1KpVCyEhIeqlTKlTp7aoYYeFhamXRH344Yfw9vZO1LEN3jQGE3bPNGmzSdH6WNLmZ5UW+PQB6sxuDXlNtYh3xuzY8cVK5MqYQ8Vj+4qtfmz9x9Y+80mABN49ASoL7545e7QAAkeOHIGvr68ayYEDB1CtWjULGNXrIYSGhqoXRRUpUiROyoKUnzt3rmqgcePGyJw58+vGIoUCgu/hZegrDK89QM8pla2EHh69Y5JSFP5XqStyZPDCEINyUW5qPfh/e0YvE1Mgtvqx9R9T28wjARJIGgJUFpKGO3tNYgJbtmxB6dKlYWdnpywLmrJw5coVHD16FEFBQXj06BGaNGmC5cuXo1KlSihfvrw+6sOHD2PXrl0IDw9H5cqVUa5cOT1v48aN8PDwgI+Pj0q7dOkSjh8/jhYtWqj4sWPHEBAQAE9PT2zevBl58+ZFgwYNYG9vr/IXLlyIly9fqvCmTZtw8+ZNFW7btq0ar4pE+nrx4oWu/Pj7+8eoLEhVB1t7DKnRJ1IrEdFlx1ejSJYCmNjoe5Vw78l9iAJw7NZJvO9V3Gwd48S41I+pf+O2GCYBErAMAvRZsIx54CjeIQFZ4NeuXYsaNWqoj4TF7C9y5swZ9OrVC1u3bsX48ePxwQcfqLTmzZvj5MmTqszvv/+ulIj169erxV5eE7148WKVJ19Tp05V9bUEsVx8/33Ewitpoqj07NkT0qb01717d/XRyp8+fRryEblx44YKS1zGnVgiloUWCz5Dx2W9sObsZpNm/YL8USBzXj3tfa9iKnzk5nE9LaZAXOrH1H9MbTOPBEggaQjQspA03NlrEhI4f/48/Pz8lEVALAsjR47EqVOnUKJEhCne2dkZixYtQp8+fXD37l3Mnz8fFStWxIULF1CsWDGMGDECDRs2xM8/R+zx9+7dG8OGDUOrVq2ivfOPfLnBwcHYuXMn8ufPjyVLluC77/6/vXOBq6rK9/gfBASUh7x8Fl4ThRRvNzV10ES07Jqj3tJroObjjppyr423oMyxaRxBzc9kaNPN6qOmDonlu9J84JihpqEovmJMDUQRRSAf+EDO3f+/n72HDcg5wJF9OOe3+nD2ev7XWt9V7f/+r//a+4/EWwmNGjWS7Qf2qVi9ejVNnDhRFJqK7SumPT096Y033hCFws/Pr2JxpbS7S2M6kHOYcopz6bP0FJr41Gj6ePhfpN6/tQqnvb8c1NpsOL5F4jmFuVpedRFL2lfXf3WyUQYCIGAMAVgWjOGOXg0ksGPHDmKFoHPnzvT4449LfOfOndqIvLy8yMnJiXx8fKhZs2aS7+/vT3yDLygooCtXrlDfvn3J2dlZ/ngbgst4a8HSwNsUrChwYAWE27MVoS6BxxgQECBjqk7Ou8+/TTcSzlH2zENU+KcsCvZtQ58cWEVsEeAwvvtLlHctn1r+OZw6/+VpSj68TvIttWuYa2+uf+kMPyAAAjZFAMqCTS0HBlMfBNingG/O48aNo5dfflm65C0FNbi5uUmUrQ78pM+BFQPequB2HFq0aCHX8nH2c6gqsMWgYmjTpo2WpfoqVFVPq2QmwpaIpKQk+cvLy6u2tq+Hj1bO8Vf7TJI0Wxo4xP5mAiUNSVCcG9tQYNMA+lv0/ZMT7fyDpdzcj7n25vo3Jx/lIAAC9U8AykL9M0ePBhJg5z92NhwzZoycgGDHRvY5OHnyJGVnZ5sdWfPmzaXOkSP3jxVyQo2rCgQ/4Ze/YXN/NQ1s2eBQUlJiUVNWFnJzc+WPLR81CT/ln5bqvu7/VCKm9f4d/fA/W2jX5HWyVcEVIoK7a2K3/LSTms/uJH9Zl3/W8tWIufZqPb5W1X/5csRBAASMJwCfBePXACOoRwKpqanSW1xcnJjsOVFUVEQrVqwgLmMzfnXBw8ODoqKiiJ0ce/ToIRYH9i2IiIggb29vaconI5YsWSKOiaycfPPNN1TT9ziwVYO3N7gf3q7w9fWVEw6qElHdGM3ViU5+hYaHD6YOgY/Rl0c307IfV5Onqwf1Cu4mYg9fyKQfzx+h3m170N9/TqO3tiRSeIswCg0K0bq9dO0y5StHMDncuHtTy+eIufbm+tcJQwIEQMAmCEBZsIllwCDqiwCfRGAfgfJKAd+I+Rgll8XExGhD4Ztu+Rsvb0VwSExMFMfDESNGSDosLIwWLFggcf7hY5As69lnnxV/iEGDBokiolYoL1PN46sqX82LjY2lGTNmUGRkpGSdOXPmgUoHOzjy6Q1Lwvasv9PqjPVa1WYevvTV+FVynJIzs4tyadKXr2nlrCTseuWf9bmg/BwUSlpdjphrb65/nTAkQAAEbIKAk3Icy1K/JZsYMAYBArZCgE9KcAgKCqpySHzigstUv4cqKxmUea4why4U51GwXxtq7d2y0iiKSorpdMFZCgloRz7u9y0mlSpVk2Guvbn+qxGNIhAAAQMIQFkwADq6BAEQAAEQAIGGRAAOjg1ptTBWEAAox8aGAAATPklEQVQBEAABEDCAAJQFA6CjSxAAARAAARBoSASgLDSk1cJYQQAEQAAEQMAAAlAWDICOLkEABEAABECgIRGAstCQVgtjBQEQAAEQAAEDCEBZMAA6ugQBEAABEACBhkQAykJDWi2MFQRAAARAAAQMIABlwQDo6BIEQAAEQAAEGhIBKAsNabUwVhAAARAAARAwgACUBQOgo0sQAAEQAAEQaEgEoCw0pNXCWEEABEAABEDAAAJQFgyAji5BwB4ImMhEpWWl9jAVzAEEQMAMASgLZgCh2L4IvPfee8SfjK4Yhg4dKp+erpj/oPT58+cpKSmJbt++ravCX5rs1auX9jdt2jT6+uuv6datW7p65hJlZWW0aNEiOnfunLmqD6X8UO5R6v3X35LXH9rRe999pOuj4GYhdUt6lpzjW5Drm63pX+Z2o7OF2bo65hJzdi6kJjPbklN8cwqZ35POF18w1wTlIAACBhKAsmAgfHRd/wTCwsIoIyODfv75Z63z7OxsOnjwIHXq1EnLMxfJycmh+fPnV1IC7t69S7/88gsNHjyY4uLiyNnZmSZOnEjvvPOOOZG68nv37tG8efN049RVqGGC5X366afyd/ny5WpbJ6YmUdekZ+jwhUy6fucGXfg1T1c/MfV9Ss89Qr/vM5ne++1syr9+hXou/nddneoSG09spVnfzqPIxyJo6X++L4pCjxq0r042ykAABB4OAZeHIxZSQcA2CURERMjA9u7dS4899pjE9+3bJ9c+ffrIlZWH1NRUear38fERK0HPnj2l7MqVK2IpOHPmjKQ///xz8vDwoICAAHr++eclj3969OhBAwYMoBdeeIG4zbp16+Tmz2XFxcW0c+dOOnXqFCepc+fO0rZRo0aSXrVqFd25c0fiW7duJbZicBg1ahS5uNz/T/bq1au0ceNGUUzat29Pw4cPJ3d3d6lX1Q9bQLKysqTo0qVLFBgYWFU1yWvm4UPvD5lD/9U9hrxmtatULyVjI3Vq3pEWKooChys3rhIrEGyNeLJ1l0r1K2bMT11M7i6N6asJq+h26R2atmGmKCQ/ns+gbm2eqFgdaRAAARsgAMuCDSwChlB/BLy9vYkVhj179midfvfdd9S9e3fy8/OTPLYYsBLAVgK2OPANf9myZVLGN/Fjx45pT/wnTpzQpTWh5SKurq7k5eWl5fC2REJCAhUUFBBbKF5//XV65ZVXtHKWz38cuFxNm0wmyWPLRWRkJM2dO5f4xh8fH0/R0dFSZo2fKb3G0au9J5JLo6qfJS5eu0QdA9trXT3ZOlziB5WbvSXhxKUs+teWnchJ+WfKuni6VXp/K2fP2R8saY46IAACRhBQ/geEAAIOReCTTz4xhYSEmBRlwKSY5yX+wQcfaAzy8/O1OEeU7QSTYlnQ5SmWCVPLli1NRUVFunzlRi75iYmJps2bN5veeustSX/44YdaPcUqIH2rGevXr5c6ir+DmmVSlBLJ27Fjh5anRhTFwvTkk0+aFD8IyVIsD1JXUVzUKlVeFQuHSdmCkDlXWaFCZsndWyaKCzK9tvmPupKu7z9jajG7s5Y3+vOpUm/mlkQtr7qIyxutTEOWjTEplghpt+bIRrn+ftOs6pqhDARAwEACVT86GKG1oE8QqCcC/FT+9ttvyxO7m5sbXb9+naKiorTeOY+f/tn6wA6G/CTPfzUJqiWCZT/zzDM0ZcoUrTlbGXjr4/vvv6fMzExSFA4pKywspBYtWmj1HhRJS0uTovHjx+uqbNq0idgn40HB39//QUU1yh/f/SX67w0zqOWfw8nfsxmdzP+HtL9v9zAvqsxUJlaF/1g+jp7rGEVDO933dyi9h5MV5umhBggYQwDKgjHc0auBBHiPX7EKEPst8BYB+xuEhoZqI5o8ebIoB2za79evHylP9zVWFhRLAvXv31+UjkmTJslV9WngMnZejI2NpZiYGOITFOx0WVpq/mbJpyTYB+Kll16igQMHamMeO3YstW7dWktXjPCWCvfLYeTIkRYpJRVlqOnY30yge8o4/nZ4LXm6edAf+v8vRSdPpnb+wWqVaq+erh60+eQ2cnF2oYzpqYqD5H2Hy0d8W1XbDoUgAALGEYCyYBx79GwgAT6twL4KrCzwTdzJyUlGc/r0aclfuXKl3Ow588svv6w0Um7HgY9EshNkVYFlcj8vvvgizZgxQywMbLVQtjxEUZg5c6Y0U60Q5WWo4ykpKSmfLacr2rVrJz4Q5ZUFXaUqEqws5ObmSgkrG5ZYMKoQo2VN6/074j8OC3b/Va4Rwd3lyj9bftpJ41KmSXrPlE3UIfC+MylnPNqsNbHfwocvzCdfxZly7bGvpd4TrTrLFT8gAAK2RwAOjra3JhhRPRDgbQdWFvhUAlsA1PDoo49S06ZNaf/+/cQnDlJSUsQqoJarVz7BwGHFihXihMhbCA8Kr776qlgD1qxZI1XYwZItCYpvBO3evZs+/vjjSk351MPTTz9NX3zxhZxi4LrKdqXU4+0Hxe+CPvvsM5Gbl5cnDpgnT56sJKeqDFURqaqM8/hFS+syv6a1mV9JFb6xc/wfV+6fAOEjlZ8cWCXbD/+3bzm9tSWRwluEUWhQiCby0rXLcqSSj1XeuHtTy+dIbK8Jkj6pyD1+6Sea8c0caurWhJ7tECn5+AEBELBBAgb6S6BrEDCMgPLELk6B7KSo+BXoxpGcnGwKDw+XcnaEfPPNNyWuq6QklixZIs6RLGPIkCFSrBy7lLrbt2/XVVfetSAy2akyPT3d1LdvX63/OXPmSFzxX9C1UZQZk6JYaPV4zBxYhrKNoeVz/+yAqSgLuva1TSg3enE4ZOfG8n/TNs4UkRuOb9Hlhy6IMCnHJ3XdLf9xtVbncK5+Xlxx6LKXtXK3N9uY0s4e0LVHAgRAwLYIOPFwbFCHwZBAwFAC7D/AT+zsB2DuSby2A+VtgebNm2vvTqipHB4jy/D09Kz2vQk1lWtJ/aKSYjpdcJZCAtqRj7u3JU0q1fn11jXKUd7cyO9sQAABELBtAlAWbHt9MDoQAAEQAAEQMJwAfBYMXwIMAARAAARAAARsmwCUBdteH4wOBEAABEAABAwnAGXB8CXAAEAABEAABEDAtglAWbDt9cHoQAAEQAAEQMBwAlAWDF8CDAAEQAAEQAAEbJsAlAXbXh+MDgRAAARAAAQMJwBlwfAlwABAAARAAARAwLYJQFmw7fXB6EAABEAABEDAcAJQFgxfAgwABEAABEAABGybAJQF214fjA4EQAAEQAAEDCcAZcHwJcAA6ovAvXv36Ndff7W4O67Ln3ZGAAEQAAFHJ+Di6AAwf/sncPPmTUpISJAbP3/6OTExsdKkb926Re7u7rr8RYsWiXLRqFEjiomJIeVLlLpyJEAABEDAUQjgQ1KOstINbJ7ffvstpaWl0Z07d2js2LEUFhZW6xmsX7+e9u3bR/379yfl09A6pWDlypV0/PhxKisrE/msEIwZM0bibFU4cuQIrVmzhpTPQNP06dNrPQY0BAEQAIGGTACWhYa8enY69rlz51JhYaF8Gpq/oM6WgboE/owzf2Z64MCBOjEpKSmUmZlJAQEB1KVLF7p69Sq5urpqdTjerVs32rBhQ53HoAlFBARAAAQaIAEoCw1w0WxpyHwzX7hwIY0ePZqCgoKsMjR/f3/q06cPXb9+nVJTU60isyohGRkZ5OXlRfHx8VUVa3msaPA8EUAABEDAUQlAWXDUlbfivA8ePEjp6enUr18/GjFiBPn4+NRJ+qRJk6T91q1b6yRHbcyOis7Oel9ezmOHx/bt29Py5cupqKiI2rZtS8OGDVObadfGjRtTSUmJlkYEBEAABByNAJQFR1vxhzBffuouLS2l7du30969e2no0KE0ePBgYsdAI8Pu3bvFH4EVgeDgYN1Qzp07J2m2LnBgZeLChQvEWxaxsbGSp/6EhobSgQMHKCkpiTgeGRlJrEAggAAIgICjENA/bjnKrDHPh0bgxo0blJycTHFxcXTo0KGH1o8lgrdt20asFLi5udGAAQN0TdQjkazQzJ49m9hPws/Pj3JycnT1ONG7d2/y9vYWRWLXrl107dq1SnWQAQIgAAL2TADKgj2vbj3Njff0KwY+XcBmfiMDH5ecOnWqWD3Wrl2rG4rqX8GnHFQrQceOHeVUBDs9lg98GoK3LdgvY968eeIQWb4ccRAAARCwdwLYhrD3Fa7n+fETeHR0tJjqK/oJ1PNQpDv2Q2DFID8/X9d9q1atJM2WEDUUFxdLVC1T8wsKCqhJkyZyYkLNwxUEQAAEHIkAlAVHWu2HNFe2IvAxw0GDBom/At9Y6xLy8vLo2LFjlJ2dLWJOnDghRyn5GKOvr2+NRfM2RMXTDLz9wNsOfERz46aNFBgQSFlZWeTh6UF8GqN8UOdXPg9xEAABEHAkAlAWHGm1H9Jcu3btKi8yYpO+NcL+/fvFUVKVxdsC/NfUqyn17NFTzbb46unpKcoCOzCWtxpMmDCBFi9eTGnfp4ks3k55Luo5nVx+syO/GIrfxYAAAiAAAo5KAG9wdNSVd6B5nzp1ipYuXSoz5vcqzJo1Szd7tmTwFkRISIjuiCW/P+LixYtSd+TIkcRKEQIIgAAIOCIBKAuOuOoOOGd2UGSlgU9BREREWETg6NGjcvKhQ4cOFBgYaFEbVAIBEAABeyQAZcEeVxVzAgEQAAEQAAErEsDRSSvChCgQAAEQAAEQsEcCUBbscVUxJxAAARAAARCwIgEoC1aECVEgAAIgAAIgYI8EoCzY46piTiAAAiAAAiBgRQJQFqwIE6JAAARAAARAwB4JQFmwx1XFnEAABEAABEDAigSgLFgRJkSBAAiAAAiAgD0SgLJgj6uKOYEACIAACICAFQlAWbAiTIgCARAAARAAAXskAGXBHlcVc6qSwL1794hf+2xp4Lr8emgEEAABEHB0AvjqpKP/G2DD8799+zY1bty4ziO8efMmJSQkyI3fxcWFEhMTK8nkr0u6u7vr8hctWiTKBX/OOiYmhsLDw3XlSIAACICAoxDAtyEcZaUbyDxNJhO9++67dPXqVfmsNN/cH3nkERo1ahR5e3vXahbr16+nffv2Uf/+/alv3746pWDlypV0/PhxKisrE9msEIwZM0bibFU4cuQIrVmzhvjz29OnT69V/2gEAiAAAg2dALYhGvoK2tn4WVlgRaFt27YUGRlJQUFBdPbsWfroo49qPdPc3FxycnKigQMH6hSFlJQUyszMJD8/P4qKiqInnnhCV+7q6krdunUjNzc3YusEAgiAAAg4KgFsQzjqyltp3nxzX7hwIY0ePVpu7HUV6+zsTHPmzCG+UXMYNGgQzZw5UxSIusqu2D4jI4O8vLwoPj6+YpEuzYoGzxMBBEAABByVAJQFR115K8774MGDlJ6eTv369aMRI0aQj49PnaSrioIqhG/WvB1R28COiqyElA+cxw6P7du3p+XLl1NRURG1VawZw4YNK19N4uw3UVJSUikfGSAAAiDgKARq/39gRyGEeZolwE/dpaWltH37dtq7dy8NHTqUBg8eTOwYWNewefNmunPnDj311FM1FrV7927xR2BFIDg4WNf+3LlzkmbrAgdWJi5cuEC8ZREbGyt56k9oaCgdOHCAkpKSiOORyvaINRwvVfm4ggAIgICtE9A/btn6aDE+mydw48YNSk5Opri4ODp06FCdxsv+BHv27BFLxfDhw2ssa9u2bcRKAfscDBgwQNdePRLJCs3s2bNp7ty54ruQk5Ojq8eJ3r17i3MlKxK7du2ia9euVaqDDBAAARCwZwJQFux5detpbrxNUDHw6QI289c2sFPjqlWr5An+tddeq5UYPi45depUsXqsXbtWJ4MdJznwKQfVStCxY0c5FcFKSvnApyF424L9MubNm0cBAQHlixEHARAAAbsngG0Iu1/i+p0gH2+Mjo4WU31FPwFLR3Lx4kVasmSJ+CmwhaLi+w8slcP12A+BFYP8/Hxds1atWkmaLSFqKC4ulqhapuYXFBRQkyZNqEuXLmoWriAAAiDgUASgLDjUcj+cybIVgZ0S+eQC+yvwjbW2gV+OtHjxYnnCZz+FH374QUSx9aLiVoKlffA2RMXTDLz9wEcmCwsLaeOmjRQYEEhZWVnk4elB/v7+OtHq/HSZSIAACICAAxGAsuBAi/2wptq1a1d5kRGb9Osa+ObNzpIc9u/frxNXW2XB09NTlAV2YCxvNZgwYYIoJmnfp0k/rJA8F/Wcrk9WXtjBElsPOixIgAAIOBgBvMHRwRbcEad76tQpWrp0qUyd36swa9YsHYa8vDziLYiQkBDdEUt+fwRviXAYOXIksVKEAAIgAAKOSADKgiOuugPOmR0UWWngUxAREREWETh69KicfOjQoQMFBgZa1AaVQAAEQMAeCUBZsMdVxZxAAARAAARAwIoEcHTSijAhCgRAAARAAATskQCUBXtcVcwJBEAABEAABKxIAMqCFWFCFAiAAAiAAAjYIwEoC/a4qpgTCIAACIAACFiRAJQFK8KEKBAAARAAARCwRwJQFuxxVTEnEAABEAABELAiASgLVoQJUSAAAiAAAiBgjwT+H/wsSzXleYFvAAAAAElFTkSuQmCC;" parent="1" vertex="1">
          <mxGeometry x="-321.5" y="920" width="523" height="550" as="geometry" />
        </mxCell>
        <mxCell id="FoYi5dhtlPq60JWwSgOF-25" value="" style="shape=image;verticalLabelPosition=bottom;labelBackgroundColor=default;verticalAlign=top;aspect=fixed;imageAspect=0;image=data:image/png,iVBORw0KGgoAAAANSUhEUgAAAa0AAAIJCAYAAAAWM2JSAAABVmlDQ1BJQ0MgUHJvZmlsZQAAKJFtkM9KAnEUhT/LkESiyGWCtAgJjRgNW7SxWYTgQrSg2o2jafmnaTSqB6hVr1C06BGCwE0ta9Mmilq1qwcIJCiZ7milVj+4nI/D4XJ/B/qcmmGUnEC5UjNTC/P+5ZVVv+uZQXy4cTGr6VUjlkwmJMK39r7GPQ5bb0P2rtGJuHpT9xyXo4n9Yjp08jff89zZXFUX/ZCZ1A2zBo6AcHKnZti8K+w15SjhQ5vzbbb3ejNtPmtlFlOq8JXwsF7QssIPwsFMl5/v4nJpW/+6wb7ek6sspUWHZMZIoxBBJcwM09LN/9lIK6uyicEeJuvkKVDDT0wcgxI54TgVdKYICiuyTUGxO/7dXcfbeILoC/QVO54+DufXMHLQ8QJ38o0kXMwZmqn9NOpoOKtrYaXNHhMG3izr1QeuOjRNy3o/sqzmKfQ/wuXWJ/KGYDpOH3N0AAAAemVYSWZNTQAqAAAACAAEAQYAAwAAAAEAAgAAARIAAwAAAAEAAQAAASgAAwAAAAEAAgAAh2kABAAAAAEAAAA+AAAAAAADkoYABwAAABIAAABooAIABAAAAAEAAAGtoAMABAAAAAEAAAIJAAAAAEFTQ0lJAAAAU2NyZWVuc2hvdERggGYAAALvaVRYdFhNTDpjb20uYWRvYmUueG1wAAAAAAA8eDp4bXBtZXRhIHhtbG5zOng9ImFkb2JlOm5zOm1ldGEvIiB4OnhtcHRrPSJYTVAgQ29yZSA2LjAuMCI+CiAgIDxyZGY6UkRGIHhtbG5zOnJkZj0iaHR0cDovL3d3dy53My5vcmcvMTk5OS8wMi8yMi1yZGYtc3ludGF4LW5zIyI+CiAgICAgIDxyZGY6RGVzY3JpcHRpb24gcmRmOmFib3V0PSIiCiAgICAgICAgICAgIHhtbG5zOnRpZmY9Imh0dHA6Ly9ucy5hZG9iZS5jb20vdGlmZi8xLjAvIgogICAgICAgICAgICB4bWxuczpleGlmPSJodHRwOi8vbnMuYWRvYmUuY29tL2V4aWYvMS4wLyI+CiAgICAgICAgIDx0aWZmOkNvbXByZXNzaW9uPjE8L3RpZmY6Q29tcHJlc3Npb24+CiAgICAgICAgIDx0aWZmOlJlc29sdXRpb25Vbml0PjI8L3RpZmY6UmVzb2x1dGlvblVuaXQ+CiAgICAgICAgIDx0aWZmOlBob3RvbWV0cmljSW50ZXJwcmV0YXRpb24+MjwvdGlmZjpQaG90b21ldHJpY0ludGVycHJldGF0aW9uPgogICAgICAgICA8dGlmZjpPcmllbnRhdGlvbj4xPC90aWZmOk9yaWVudGF0aW9uPgogICAgICAgICA8ZXhpZjpQaXhlbFhEaW1lbnNpb24+NDI5PC9leGlmOlBpeGVsWERpbWVuc2lvbj4KICAgICAgICAgPGV4aWY6VXNlckNvbW1lbnQ+U2NyZWVuc2hvdDwvZXhpZjpVc2VyQ29tbWVudD4KICAgICAgICAgPGV4aWY6UGl4ZWxZRGltZW5zaW9uPjUyMTwvZXhpZjpQaXhlbFlEaW1lbnNpb24+CiAgICAgIDwvcmRmOkRlc2NyaXB0aW9uPgogICA8L3JkZjpSREY+CjwveDp4bXBtZXRhPgoT6CniAABAAElEQVR4AeydB5wTVdfGD72zlKV3BEQQRDrSOwKKSJMmRUEFlQ8RkaYgvSgCiiC8SO/IC1joRUCa9N57773Dl+fwzphks7vZbHYzyT7HX5KZ2+d/cc6ee8/MifXMJkKRx48fS9y4cR1I7NixQ1KkSCHZsmVzSPfFyZChQ+TSxUvadc+ePSVZsmThDmPSpEmye/duiRUrlpQoUULefvvtcOuwAAmQAAlYmUBsKw8uqsd28eJF+e6776RUqVKSNWtW/Z0xY4bZbdeuXWXWrFnmua8Ozp49qwoLyrNLly4OCmvXrl3Sv39/+fLLL0OMtVmzZtKmTRuJFy+e/PPPP74aPvslARIgAa8RcDQtvNasfzTUr18/2bRpk3z++eeSI0cO2bJlixw5csRygz9w4ICOqVy5cpI6dWpzfNOmTZPt27dL7Nix5enTp3Lr1i0zDwdIz507t6RNm1bOnDnjkMcTEiABEvBHAjFWaV26dElmz54tw4cPl3r16uncFS5c2OUcLl26VDZv3iyVKlWSkiVLOpSB0lu9erVglRVKxT5//vz5kiVLFjl06JAcPHhQ0H6tWrUc6rtzYqzgJkyY0KF4okSJpHjx4lKjRg355ptvHPLsT5yXPe3zeEwCJEAC/kTAb5RWnz59dH/GFdyCBQtK9+7dXWWFmpY8eXJJmjSprFu3Tl5//XU9dlV48uTJgs/LL78sP/zwg8A6a9WqlRaF0uvQoYPkyZNH4sSJI99//70MHTpUmjRpovnDhg1TZRUcHKwWz08//SQ9evSQdu3aueoq1LRz585pHsZrL3Xr1tXT+/fv2yeHOEY9KL6bN28KrptCAiRAAv5KwG/2tN57770QjhKADiuidevWEeafIEEC+fjjj3UfCBbQBx98oNaUq4awbIilOFhka9eu1SJQAlCktWvXlhUrVgisMeT36tVLnTqMdqCw1q9fL3PnztX+8OuuwBEEChP7VhhvhgwZ3K3qUK506dJ6Dqty4cKFYihBh0I8IQESIAE/IOA3SitjxoxSpUqVEEirVq3q8c38008/leXLl0vz5s1l586dUqdOHenbt69DH2gfjgyQQoUKmYrtypUrcvnyZSlfvrzuHWH/CMuDt2/fFiw9GoLlwiRJkuhp2bJlZd++fVrPyA/rd9myZaqwoCBfe+21sIqGmYf9OjiaYM8LShfXSiEBEiABfyTgN0oLcBs2bOjgOYelrgYNGkSK+0svvSRwIV+zZo189NFHMmrUKLFfbkufPr3Zfvz48c1jKCeIfb5xbO8QYW8dweqCnD59Wn/D++rUqZMuJ2J5b9WqVeEVDzUfivnkyZNSpEgRGTRokFSvXj3UsswgARIgASsT8CulBYvF2McB1Pr165tWTGQhY5nRcKI4fvx4uM2lS5dOy2AJzxDj2FBeSId3nyF79+7Vw/z58xtJ4f5CMb/66qu6J3Xs2LFwy7sqAEcQSGQVvKu2mUYCJEAC0UkgbnR25o2+YCVg2QxLdli681RgTWEvDHtZsLZOnDihjhY4fvHFF8NtFp578CaEMwYe3MXyIJ7xwv6RvbMDvA5nzpwpcBb55Zdf1MoxlhvD7eR/BYzlxQcPHjhUefLkiaxcuVIePXqk6VevXVU2WA584YUXzLJwh8cDxhgjhQRIgAT8mYDfKS1YRNiDwlJdZG7C8PaDEmjcuLE5f/AihCMFbvCQ8NrHQ714eNewYKDwhgwZYraHAyi0jh07ahqWBwcMGOCQ784J3soB2bNnj+TNm9escvXqVVmyZIl5jjdm4BzPZhlKC/th2H+j27uJiQckQAJ+TCCW7aYWo1/jdPfuXcGbMbD3BA89TwT1IXiI114qVKigy5nt27cXvNUiU6ZM6hpvX8adY1hSX3/9tXolQpHCbd7Z/d1VO7/++qts2LBBs+Cy/+6777oqxjQSIAES8BsCfmdpeZts4sSJJXv27JFq1llZOTcGKwfee54KlhPhXg+vP3gsYmnSHSlWrJikSpVKH3A2LC936rEMCZAACViVQIxXWlE5MXj+C9aVNwTLmXDIiIjgbRz4UEiABEggUAjE+OXBQJlIXgcJkAAJxAQCdCeLCbPMayQBEiCBACFApRUgE8nLIAESIIGYQIBKKybMMq+RBEiABAKEAJVWgEwkL4MESIAEYgIBKq2YMMu8RhIgARIIEAJUWgEykbwMEiABEogJBKi0YsIs8xpJgARIIEAIUGkFyETyMkiABEggJhCg0ooJs8xrJAESIIEAIcDXOAXIROIyEFwSL+/F66OsJLt375ZJkybpkPCuR7xJ317wQuDQwrV07dpVEIIFgjfk43VWFBIggZhLgEorCucesbqM0PYpU6aUGjVqSK1atcywId7ueuHChTJ16lRZu3at15pGLK4ffvhB3nzzTY9fLIw2IKXLlJaCBQqaY0N8sQMHDogR7wuBNWvXri158uQxy7Rs2VL++usvMQJZmhk8IAESiJEEuDwYhdN+/vx5SZ06tYYSgcKaPn26lC1bVs6cOROFvXq3aVg5AwcOlCNHjkS64YwZMgoCVBpy/MRxSZMmjTKBorpw4YIGyjTy8YuAnFD4FBIgARIAAVpaUfzvADdpWFeQokWLSv369dUSatSokaYtX75cEJkYN+bFixcL4nvVq1dPAzmiwKZNm2T16tWCsGflypWTkiVLaj3ja9GiRYLoyLly5TIjGBt527ZtU0UAhQm5deuWLFiwQN544w2H6MqwzNDPnTt39E3yKI9wKlOmTJGHDx9qXfSD5UdI06ZNvRJUskf3Hg7LgsOHD1eFfvz4cY+tOh0gv0iABAKWAJXW/6YW8aqw9+JKChYsKN27d3eVFaE0IwLx/fv3zXpQDAgQuWvXLilQoIAGd7x375707t1bZs+eLR06dNDlMuzlfP/99zJ06FBp0qSJ1h87dqwGh0R0ZJRFrK2cOXOabUMJrl+/XpclkYh+OnfurIovefLkWg7BJdEOoi4XKVJEunXrJpkzZ5ZChQopD0NpnTp1ymzXW3FDnfexjIjR4cUnMwfCAxIggRhHgErrf1P+3nvv6Q398ePHDv8IYHG0bt3aIS0iJ7dv3xbc8GE9/Pjjj1oV+0P2AoWFvaiKFStqMiwiKAYoUuzxjB49WtOhwODE0LBhQ7V05syZI23bttU0KDoor4gI9tugsNAm2oH07NlT95hwjGVBOEnMmDFD2rRpI5UrV0ZylAiWH2HJYTkVzhoUEiABEnBFgHta/6OSMWNGqVKlSghGVatWlQwZMoRIdzcB1g6UCZYDkyVLJhMnTgyxR4P2DYWFdlHuypUrajmVL19eYseOrR8sD0IJXrp0SfOh7LBHBkE0Y+NYE9z42rp1q5Z66623zNLoOygoyDyPjoObN2/K+PHj1TPwo48+io4u2QcJkICfEqClZTdxsGDWrVunez9IxhJagwYN7EpE/LB69eq6pAdlED9+fJcNuFI2UE6Q9OnTm3WMY1hixrJdcHCwmQ/Fu2PHDvPc+cDw4jPSr127poewbnwlDx48UD6wcGHtGcuWvhoP+yUBErA2AVpadvMDh4i6deuaKXCaQFpkJGnSpLrkFZrCQtvOeztIg/s3xF4JGcdQXnnz5tX9r/3792s5fBmWk5EA5w7DeQJpznt22bJl06KGW75Rz/7X2GfC8qO3BUp08ODBAsXVrFmzKHsUwNvjZnskQAK+I0Cl5cQelhEsFtzQsTToK8FyX6VKldTBAtYfHCqwt1S6dGm1RrDXVqFCBV1uhDKaO3eulrEfb7FixeTcuXPyxx9/qMIaN26cfbbuUUGp9u3bV+vCgsM+mb17O/rBsiQcPQ4ePKgPL3vLEQNOJegTno94PGDp0qX6MSxAh8HyhARIgARsBLg86PTPADfp5s2b61Ie9pIiK4al4kk7/fv3VwcIY4kSHn5Dhgwxm+rYsaPulVWrVk3ToNCgpAyBNyIsx/fff1+TWrVqpV6KxnVh72rWrFny8ccfq5s9CmG5EW7x9tK+fXvBmymgJCFHjx6VhAkT6nFkvgzlhAeH7R8ehiMGroVCAiRAAs4EYtn+an7mnMhzaxHAq5kgrlzBscSGh5WxZOhqmRH14AqPPbUECRLg1KXA8QPPacHKhOL2pmD5Ea79EIwBXpHuSpcuXdSTEuX5Gid3qbEcCQQuASqtwJ1by1wZ3OaNt4BgjxBvwXBX8LgA3sqB59SyZMnibjWWIwESCFACVFoBOrG8LBIgARIIRAKR37QJRCq8JhIgARIgAUsSoNKy5LRwUCRAAiRAAq4IUGm5osI0EiABEiABSxKg0rLktHBQJEACJEACrghQabmiwjQSIAESIAFLEqDSsuS0cFAkQAIkQAKuCFBpuaLCNBIgARIgAUsSoNKy5LRwUCRAAiRAAq4IUGm5osI0EiABEiABSxKg0rLktPh2UHhtEgIzuisoi1c1UUiABEggqgl4982oUT1ath+lBO7evSv9+vVTBYSX5uIt8+7IiBEjVMnh/YBNmjQRvF2eQgIkQAJRQYDvHowKqtHUJiyi7777Tt/iji4RgRjhSkJ723t4w5o3b57G1apcubKUL19ew4/s2bNHJk2a5LLq//3f/0mGDBlUySFAJcKc4BxjoJAACZBAVBDg8mBUUI2mNkePHi2XLl2SfPnyScGCBVV5/fTTTx73jjexI/4XAmEa8bIQDgVt238QjwvloKAgUJJFixbVGGSw1igkQAIkEFUEuDwYVWSjuF2EQTt58qSkSJFCWrRoIbCIYO1A8SDGlhHoMbLDQBiRpk2bms0gcCP6yZEjh5lmHECRMTybQYO/JEACUUGASisqqLpoE4EPd+/e7SJH1Irp3r27y7zQEi9cuKAKwogxNWPGDLV+oDROnz4tWbNmDa1qqOlwqAhP2c2fP1/r16xZM0Q7CPB47969EOlMIAESIAFvEeDyoLdIhtPOe++95zIiMBweWrduHU7tkNlQWhBYWtOnT5eHDx9KkSJFNO38+fP66+7X6tWrZdSoUXL9+nXJnDlzmNUOHjwoiRInkmzZsoUolzdvXt3fGj58uCxevFgePHgQogwTSIAESCAyBKi0IkMvAnURxr5KlSohalStWtXcGwqRGUbC48ePNffWrVuyfft2KVGihAQFBWmakRdGdYesJUuWyPHjx3VPytUYjcKbNm0StF2wQEEjyeG3TJkykjx5cl2iXLlypWBsFBIgARLwJgEqLW/SDKethg0bSrJkycxSuME3aNDAPI/IQfr06bU4FFbixInl7bffNpVEunTpItKUurm3a9dOFdLcuXNDrQtFBKlVq5bLMvAexBJjs2bNZODAgRIcHOyyHBNJgARIwFMCVFqekvOgXpIkSaRu3bpmzfr16wvSPBHDcw914YgBgWMGJLwlPi3k9JU9e3aBp2BoDxXDarpy5YqkSZvG9Cx0akLzcT3wNKSQAAmQQFQQoNKKCqphtAl3ciwVYk8IS4OeChwmoEAgx44dk3Xr1gn2slKlSiVwiPBE4sePH6r338KFC7XJ8uXKh9o0vBbxgDGFBEiABKKKAL0Ho4psKO3C8aJ58+a6fxSep14oTZjJbd5vI99++638+eefmgZl1aZNGzM/ogdYZoT34dmzZ1Wx2tffu3evOpIUL17cPtk8vn//vjqDcEnQRMIDEiCBKCDAN2JEAdTobhJKBsomU6ZMkep6//79Mn78eG0De289e/Z0q71hw4bJuXPntGyjRo1ML0a3KrMQCZAACUSAAJVWBGDFhKLY04LywgtwS5cu7dYl79y5U51A8uTJI3gYmUICJEACUUWASiuqyLJdEiABEiABrxOgI4bXkbJBEiABEiCBqCJApRVVZNkuCZAACZCA1wlQaXkdKRskARIgARKIKgJUWlFFlu2SAAmQAAl4nQCVlteRskESIAESIIGoIkClFVVk2S4JkAAJkIDXCVBpeR0pGyQBEiABEogqAlRaUUWW7ZIACZAACXidAJWW15GyQRIgARIggagiQKUVVWTZLgmQAAmQgNcJUGl5HSkb9JTA6dOnZevWrZ5Wj7H1njx7Io+ePo9k7SmEZ/Is0m142jfrkUBECFBpRYRWDCv7wQcfSKlSpfRTs2ZNGTFihBw5ciTKKCBm16effurV9hHjC+M+fvy4Q7tff/21VKhQQebPn2+mX7t2TdN+++03My2qD/ouHyZJumeXWF+kk9yDSsrpG2fNLrsvGiCJumV1+DSe9qGZP3PHfEne4wWJ2yWjJOyaRYoOryazdy4w83Fw7tYFaTHzEy335i/NHfJwcuL6aXlpaBltI/6XmSRFz9zy2IUC/O/uP3Uc1cY2DNEGE0ggOgkwnlZ00vazvhBUMnXq1PLRRx+pspo+fboMHDhQNm/eHOkwKNGF4smTJzrm/PnzC6IzG4JwLgcPHtS8WrVqaaywx48fa9rly5eNYhH+RX+//PKL1qtTp06Yb72fv3eR9Fw8UGrmrSL1C9aWdr92kRIjX5czPXZo/Uu3L8vDJ4+kd7UvzHEUzfyKeQzlUuflGlI5V1m59eCODFw5QhpOaSP7Pn9J8qbNLZtObbO1V0Nix3r+t+nxa6fMujhA/ZeHltPfgTV7SKbkGWTurt/kqS3Mjb3ce3xfms9oL/cfP5BLd67YZ/GYBKKdAJVWtCP3rw5z5MghuKlDihYtKvXr15e1a9cK4mZBli9fLkmSJJGUKVPK4sWL5e7du1KvXj3JnTu35m/atElWr16t8b7KlSsnJUuW1HTja9GiRaoEc+XKpeFQjHT8btu2TS5cuCA1atTQ5Fu3bsmCBQvkjTfekOTJk5tFMR70c+fOHXn11Ve1PIJtTpkyRQNToiD6wfIjpGnTpvqLrxMnTmhe7dq1zTT7A+TD8oIiK1SokKBcWNGZHzx4oIoPbWDsYYVqGbRipCSMm0B+az1FHjx+KJ/+t7ucvXle/jm9XYpmLqTDiB8nnvSo3NF+SOZx01frCT6GZE+VRWBNLT+8RpVW7Fix5OPX3pO+Nb6UvENChpkZu3GK3H54RzZ+skiKZ3lVm2ny6ttGc+bv+7M7SspEKSRRvIRmGg9IwFcEqLR8Rd4P+02RIoWOGlGKDYFigNWya9cuKVCggCRNmlTu3bsnvXv3ltmzZ0uHDh0EcbZwo//+++9l6NCh0qRJE60+duxYwTJdiRIltCwUQ86cOY2mVQmuX7/eVFrop3Pnzqr4DKWF+mjnpZde0uCT3bp1k8yZM6uC2b17t6m0Tp3618pAwEwIxlW+fHlBEEtDMZud2w4QV6xSpUp6TYULF5YxY8bIsmXLZOTIkfbFPD7ee+GgvJIhv8Sy/ffRr1+oJYPG1hzbaCotWFr1J70nSRMkkbcL1JI381V32d/1ezdk9PqJmlctTwX9heIzlJ+rSksPrlZldOXuVcGyY3DiVNKhTBvJFZzDLL7x1FaZtu1XWf/xH6oQzQwekICPCFBp+Qi8v3R7+/ZtwQ0fe0I//vijDvvNN990GD4U1tSpU6VixYqaDosIiqFPnz5qmYwePVrTocB69eolDRs21OW4OXPmSNu2bTUNig7KKyKC4JNQWGgT7UAQbRn7WBAsZSKY5YwZM6RNmzZSuXJlTbf/QjraWLlypSpd+7xRo0ZJcHCwbNiwQRInTqyW2xdffCHt27eXvHnz2hc1j1GuS5cuev2pUqUy010d3Hl0V9IlSyPbzu6SCf/MkFnNxury3snrZ8zisMSwzHfqxhmZuGWmtCneTH6u/62ZDweKxN2ymQqvb42ukjv4X8VvFnRxgH5u3L8pNf/TRDImT69W3qj1v8jFr/dK6sQpBQ4eb01ooYqyZNYiLlpgEglEP4Hni93R3y979BMCWPKDMsFyYLJkyWTixIm6FGg//AwZMpgKC+kod+XKFV1SgyUTO3Zs/WB5EErw0qVLmg9lV7ZsWW0qUaJE5rF922EdG56Gb731llkMfQcFBZnn4R3AKmvcuLEMHz5cFY19eShFjA+KCGKM9cCBA/bFQhxjHxDKDtcdljx99lStrLoTWkqNFytJnfyva/HHT557Ag6u9ZXc6XdcTnbfKtd6H5RsKTLL2E1T1LnCaBdW2oDXe0jzwg0kcbxE8u3qnxzyjXKufh8+eWjbv3oqo+oO0n20w1026vmkLbO0eM9Fg+TynavyS8MRrqozjQR8QiDs/6t8MiR2aiUC1atX16U/WFqwSKpWrRpieMbN3D4DygmSPn16M9k4hiV27tw5TcfN3ZCMGTMahy5/DQvKyIS3HwRKIjICRxM4l2Ap0l6uXr3qsCeVNm1azcb4QxNYdlCA+MCRJSyBklm4b4lNyVyU6U1Gy8Xbl7R4lhTPOaRI9K/yxXGHss+tSVhe9vJ/tvRJ7/wgqz/6r1y7d11+3jDZPjvUY1h5kBZFn+9PvpA6uwQlSC5Tt87V9G//+sm2fBgkbed00iXKa7YlyMOXj+lSohbgFwn4gACVlg+g+1OX2KOCUogfP36ow44XL16IvHTp0mnajh3PPeFwYhxDeWF5DW1j38gQw3IyzuHcYThPIA17VPaSLVs2PYVFFJrEsjkjQLD8GJrACQTOHUOGDHEokjVrVnPMyNizZ4/mw7IMTaC0zpw5o5/wvBCzpsz03NJ5e5BAKS0+uEqbLZTxZZfNH7h4WNNTJPxXmdkXzBT0fFzOSs2+jP3xS2nz6Om5mxfMZCxZ5kiVVc+xJJg+WVo5ePmIfmCVYY/t0KWjZnkekEB0E6DSim7iMaQ/LPfBiQHOGOvWrVMrBntLpUuXVs8/ePdVqFBBlxuhjObOnRvC0ilWrJhaZH/88YcqrHHjxjnQwx4VFF/fvn21Liwg7JPZP0uGfrAsiXHAxf3ixYshlgHR6McffyxHjzrejOGcsXHjRpk5c6YcOnRIrSf0h3G5I4bCDK1s+1KtNWufzSFjz4UD0vWPvpI0fhIxHCngHAEX9F3n98nXSwbLL7Z9L1hnpbIV1XodFvSQoatH6Z4YnqPC3hSkW6UO+ouvFYfXahu3bS7xV+5e0+O/j2/W/E9Lv6+/7874WNv4dH53dX9vU6KZpsNy2/nZKvODfa586fLIPx2WaD6/SMAXBOiI4QvqftRneDfesC6lf//+6gDRoEEDLQYPP3trpmPHjrpXVq1aNc2HQjOWDZEAb8S6devK++8/v7m2atVKlyqNvSLsXc2aNUsVDtzsIVhuhFu8vcBxomvXrqokkQ7l5Hxd6AtKdsWKFWbVli1bqrLEOCFQWHAqMTwXzYJ2B9j/Gjx4sF1K6IftXmslS2zWFZbh8IkfJ76s/OBXs8JSW96M7fPMc7id/9Zqiq3cc8v29PWzMmLtWDM/TZLU8mXFT6V09uJm2tsTW8mNBzf1HO7t9Se/p+7w+z5fq16C2Df74vdvpPD3VbRM6WzFTaVpNsIDErAQgVg2Ly/HJwktNDgOJTAIwLqBGHtC9leFfSosp2HJ0NUyI8pimQ0OFgkSJLCv6nAMxw88p4V9MVhX3hRYcNg/y5QpU5jPaHna5837t2zegWclf7oXQzSBB4LP3jgv2VJl1od/nQvcfXRPjlw5LskTJlNHDed8d87xkDGsuWwpskiqxM8fa3CnHsuQgC8IUGn5gjr7JAESIAES8IgA97Q8wsZKJEACJEACviBApeUL6uyTBEiABEjAIwJUWh5hYyUSIAESIAFfEKDS8gV19kkCJEACJOARASotj7CxEgmQAAmQgC8IUGn5gjr7JAESIAES8IgAlZZH2FiJBEiABEjAFwSotHxBnX2SAAmQAAl4RIBKyyNsrEQCJEACJOALAlRavqDOPkmABEiABDwiQKXlETZWIgESIAES8AUBKi1fUGefLgkgdpZzTC2XBZlIAiQQYwlQacXYqQ/7wt977z0N5XH48GGzIEKDIAaWfbwqM9PFwaeffiqlSpVy+CBKcGiycOFCQR0KCZAACYRGgEorNDIxPB2KCUEToUggOF+8eLGmPXz40C06iKPVpUsXQYypOHHi6HHTpk3dqhtaoSdPngiCQeJz6dLz8PShlTXSn8kzeWQLv0EhARLwfwLeDTzk/zx4BXYEEKEXEYURBPG3337TiL2bNz+Peoti8+fPlyxZsmhUXyi4woULC6L9GlK2bFk9RBsI2/bWW28ZWebvokWLBG0i5D1C1YcnDx48UMWJchcuXJA0adKEV0Xm7FwobWZ3kut9DoVblgVIgASsTYCWlrXnx6ejQ5j6mzdvyt69ezVcvbPSGTZsmNSuXVv69esn27dv1yjFo0aNcnvMY8eOldatW+s+1oABA2TgwIFu1w2vIIIndv2zn4aPty+77+Ih6bFogH0Sj0mABPyIAC0tP5qs6B4qlvQQ7r5v376C6MOlS5cOMQRYOn///bckSZJE+vfvr5ZZu3btQpRzlTBnzhxp27at9OrVS+7duyclSpRwVcwhDUuNWHKE5ZYqVSqHPPsThKL/6e8JMmbDJKmTv4ZtefCRvDe7o0z4Z4ZUylXGviiPSYAE/IgALS0/mixfDLVOnTqyatUqwf5UvHjxQgyhZMmSqrCQgeXAffv2yeXLl0OUc064cuWK7Nq1S+sgL1GiROaxc1nn89SpU0twcLDEjh36P98yOUrIlW/2S+cK7VVRISz94gMrZeMnf8rSNrOdm+Q5CZCAnxAI/f96P7kADjNqCRQqVEg6d+4s7777rsuOMmTIYKZDkUDguh6enDt3TosYdXCSMWPG8Krpvtfw4cMFn/Pnz4dZfvWR9TJm/USJHev5P/Nzty7I8LVj5fq9G2HWYyYJkIB1CVBpWXduLDEyWDNwxHjxxRddjgd7WYZg7wuSP39+IynU37x580rSpEll//79Zhl3ntGCs8aZM2f0E5ZFN2P7f6Xq2AbyRr7qMumdHyQoQXLZ0mGpbDixRbL2K2z2yQMSIAH/IsA9Lf+aL8uNFp5/M2fOlAIFCsgvv/wi1atXN5cRsVR4+/ZtwVIgBGWhqF566SWJGzeuPvM1ceJEVXIHDhyQ9evXS86cOd2+xlixYoVatn7B2lIyWxHJnjKLzN65QMsVyviyHOqyQQ5fPhZqPWaQAAlYmwCVlrXnx6ejC0spGAMrXry4fPbZZ+oYgaU+eAEa8tVXX8m6deuMU8H+GB42hgs8BBZco0aNpFq1anoORw9j2VATXHzBEWPw4MEuchyT4saOqwoLqTlSZZUqucuZBXIF5zCPeUACJOBfBGLZvLCe+deQOVqrEMDbMeBd2L59ezl79qxkypRJHyKOyPiePn2qS33p06c3LbSI1GdZEiCBmEWAllbMmu8ouVos9WXNmtWjtrFnhgeUKSRAAiTgDgE6YrhDiWVcEsAbMGBdUUiABEggughweTC6SLMfEiABEiCBSBOgpRVphGyABEiABEggughQaUUXafZDAiRAAiQQaQJUWpFGyAZIgARIgASiiwCVVnSRZj8kQAIkQAKRJkClFWmEbIAESIAESCC6CFBpRRdp9kMCJEACJBBpAlRakUbIBkiABEiABKKLAJVWdJFmPyRAAiRAApEmQKUVaYRsgARIgARIILoI8N2D0UU6gPt58OCBRiF++eWXJWHChG5f6bFjx+To0aNaPmXKlILXQkWF7N69WyZNmqRN4y3xvXr1crubrl27ypMnT7Q83mAfJ04ct+uyIAmQgPcJUGl5n2lAtPjpp59q/CtXF4PYWT///LOZhQjCb775pixfvlxjZZkZtgNEMUYokg8//FASJEhgnyU7duyQqVOnCmJp5cuXT2bMmOGQ760TvEkeUrpMaSlYoKDLZkePGS3Hjh4TRGpu3LixWaZly5by119/yaFDh8w0HpAACfiOAJWW79hbuucGDRpIpUqVdIw//fST3LlzRz7//HM9T506tcPYEUdr2LBhkiFDBod0nJw6dUoGDRokuPk7K6233npL8Pn6669VcYWo7OWEjBkySo4cIWNp7dy5U44eeW7x3b9/36FXRGzetWuXQxpPSIAEfEeASst37L3e83fffSfNmjWTtGnTRrrtsmXLmm3Mnz9f7t27pwrGTLQdwIKZNWuWJiEsG8KMGHL58mX5/fffzeW/6dOnS6JEiQQKrlatWkaxcH+vXr0q6P/EiROSK1cuqV+/foSWIMPrAOPGNUDhhheAMry2mE8CJBD1BKi0op5xtPWAcPZbtmzRMPYNGzaUoKCgKO0bN/z169fL9evXZenSpbq0ljx5cu3z4cOHgr0kQxHs3btXLa2IxM6ConrjjTcE1k/lypV1SRJLjfPmzfPadU2ePFkePXqkS4JQ+hQSIAFrE6DSsvb8RGh0UCKPHz+WZcuWqTJBePvatWtHmfMAnBKGDx+uVhCUlr1kzJhRhgwZouNYsWKF9OnTJ8JKdODAgRrNGMoYS4s9evSQYsWKyb59+0Lsndn37e4xli6hWGFVJkmSxN1qLEcCJOBDAlRaPoQflV1jD2ratGmyatUqad68eZR55kXlNaxbt06bb9WqlUM3CxYs8IrSmjBhgiRKnEituVu3bjn0wRMSIAFrEqDSsua8eDSqWLFiCawte8G+k+GybZ9u9WOMG/ti77zzjlSvXt0cbosWLbwSLXn//v0CRZU0aVJ1IjE8DOGCjyVDKHoKCZCA9QhQaVlvTrwyomTJkkmTJk10f8veQcIrjUegkXjx4mlp7EuFtseG9EuXLjm0ijHnzJlTcB32SsuhUCRO8LwWFBYEystQ9lDwN2/ejETLrEoCJBCVBKi0opJuNLcNayFu3LjqnYf9rKjep4FHIR4shiMGBL/4YP8JnoIQPHAMwcO9sJqgKPAgsb2UK1dOhg4dKlj2K1iwoHo/QqlgWbBnz56qvOBxiP26P//8U0qWLBnp5cGsWbPKV199ZQ4Digv7brlz59Z+zQwekAAJWIrAvz7KlhoWB+MJAbxRAjd/WFjeVFihWWp4fgsPBb/++us63Hr16um5vRce3pCBN1CMHTtWSpQooc9rOV8bHuj94osv1NHitddeU+cNlMFSYIcOHQRvpYAyw/XhoWYsg3pboqJNb4+R7ZEACYjEsi2LOG6CkAoJWIwALKwzZ84IrK80adJEeHR4eHjKlClaD1YgLCp3pUuXLubSIV/j5C41liOBqCNApRV1bNmyRQjgOSwoPQgs0IgoPrjFY58L7v0RecbMIpfOYZBAwBGg0gq4KeUFkQAJkEDgEuCeVuDOLa+MBEiABAKOAJVWwE0pL4gESIAEApcAlVbgzi2vjARIgAQCjgCVVsBNKS+IBEiABAKXAJVW4M4tr4wESIAEAo4AlVbATSkviARIgAQClwCVVuDOLa+MBEiABAKOAJVWwE0pL4gESIAEApcAlVbgzi2vjARIgAQCjgCVVsBNKS+IBEiABAKXAEOTBO7cBtyVIXzIrl27pGjRohI/fnyvXt+jp48lXmz+7xARqM/kmYxeP9Gs8mb+6pIpeQbz3JsHx66dlH0XDkrNvFW82Szb8kMCtLT8cNKia8hlypSRUqVK6adu3boyZswYuXDhQnR1H6Kfw4cPS/369c34XSEKeJDQZs5nEu/LTBLf9kn3TX7ZdnaX2cqgVSMlUbescuvBbTPNOBi2ZozmrT220UjS34pj3pa0vfNJ8xntJVmPnPLN0m/NfCOt7/Jhmvbh3M7aBvpI0j27VB3bQGbumG+WD+8AY0Xd2TsXhFc0SvKfPnsq/ZZ/L18vGSzt5nWRv49vjlA/N+7fNK8f12F8cg8qGaKdCZtnyBu/MJp0CDAxMIFKKwZOuruXjNDzsGp69OghFStWlB9//FEaNWrkbnWflMMb2ceNG6cf52jIzgMasvpHGbdpqjR59W2Z2vgnefDoobz2gy3YpM3qgly5c03uP34guDk7y0elWkrsWLGlxcxPzKwlB1fJqiPr5MOSLeT8rYty++Ed+WnDBM1HmzO2/1fTLt6+rGmX7lzR9r+p3kXalnxXdpzdI+9MbSvD14412wzr4N7D+1of/fhC4sSKI6d7bJfNHZZ41P3jp090/AUz5JfulTuan84V2odo74181eSrKp1CpDMh5hHgekjMm/MIXXGBAgU0EjIqxYsXT2NRXblyRVKnTq3tLF++XMN9IBrx4sWL5e7du4JgkIgAfPLkSVmxYoUcP35cgoKC1GJD1GFDfv/9d8mUKZNAuWzevFkqVaqkUYmNfPzu2LFDFi1aJMmTJ9cIxvZ5ro4RSfngwYOaBaswrDAkI9f+R9IkSS0TG43U8nFix1GlAWun6av1XDVvpiWMm0B+qDtAWs/6P5m6ba6Wx3HKRCnk62qfS41x70hQguSqvA5eOmKz4HZLXFv7zgLF17n885t0t0od1Eqb8M8M6VCmjXNRj84fPnkkA1eMkPUn/5H0ydJKlwofS960ubUtWEiFMxeUOvlqmG3/vn+ZbDq5VXpX+0LTwqpvVorkQeVcZaWHTWm5kkOXj8r4zdM1K1HchA5FJm+dLRduXZLPy7cz0/dfPCSjN0xUBYi5hYDnwr1LJJbtv9bFG3OJ0aTlnwdUWv45b9E26hs3bsi5c+cES3MLFy5UxWEoLAwCwRXPnj2re01QcEmTJpV79+5J7969ZdCgQVoP1hqU0pAhQ6Rfv35mOHtYbqdPn9Zrefnll+WHH35wyN+6davUrl1bsmXLpkoL+1nelDM3z0mNFyuZTb7+v+MNJ7aEq7RQqVXRxtJ/+XBp/+uXcvP+LUF781tOElggkETxE0rWlJlk5Lr/yM5ze6VW3qoyf+8izXP1lSxBUrXeYN15Q9BO1n6vCiw6KKoVh9fKpC2z5GjXzZItRWZZdGCl/Pj3eKnTa7/Z3fuzO0rapMGqtMKrb1aK5MGJ66fkn9PbzVay2saGMUCu3L1mG+cKOXHttGA58auqncxyRy4fl97LhkrzIg0kXdLnwUF7L/tW5uxcKENr99JyWFL8bd8S3Wu7++iezN39m0xoNEJaFLH2ioF5kTwIQYDLgyGQMMGewLBhw6RIkSK6LLh9+3b5z3/+Y5+tx1AmU6dOVUtr7ty58vnnn2t6r169NA2Katq0adKsWTP5+eefQ9TfsmWL5sNCW7t2rZn/559/SqFChWTNmjWC4zfeeMPMC+0A0Y0RbfiLL76QfPnyhVbMXPYLTpLKLJM8YTI9PnPjnJkW3sH0pqPlxoObuqdTJNMr8ma+6g5V3iveVCZvmS1rj2+Udq+1csgzTqDQ/jywXKqPbaRLkfaWg1HGk9/ui/qrwlrX7jfZ9/laud3vmMBC/Hb1T9pcu9daqlLYbrMCIbBSsKxpjDO8+lrJC1/Ttv0qxUZUNz8j7JZHS2YtItv+b7l8Uvq9ED0Z4/zp7wlm3oI9i6Rango2qzau/HV0vSqsLhU+0WXMq70PSOlsxWWAzfKk+C8BKi3/nbtoGXmnTp0E4ep//fVXef3111VxwJKylwwZMuiel5GWLNnzmz88/LAE+OWXX8o777yjyufEiRNGMf2tWrWqLjviBAoKFpkhS5culdKlS0vcuHElduzYUr58eSMrzF9YgsHBwVontILGPhWW55zFyHNOd3VeNHMhqZSrjGZBgTlL62KNValBWRjl7Mugr1eGVZSa/2ki+y8dkjbFmwnqeENgWUHemfqBzeIqLC8MKC5Y7ptmW86ENLEtgeLmDksQMmLtuOf7dP+zQsKrr5W88NW2RHM53m2L+elS8RO3WoU1lj/di7r8hwrYU4Q1ZSyt/mmz0CATt8zU6weDHef2yIFLh1VZaya//I5AXL8bMQccrQSggKAA8MHSHyyef/75R8qWLWuOw/7YTLQdfPDBBwIl1bhxY1Vqy5Yt03P7MunTpzdP7d3Ynz17pntTTZo0MfPTpUtnHod28OjRIxk1apRmw2nEvn37OonjJdIb9FXb8pMh9x7f10Ps/UREcqbKJitkreQOzhmiGpb84EBgLF85F4DSxHJdsvhJJVXiFM7ZkTq/dve67qt1Kv+RQztB/7Mo4eJfJXc5mb1jgfynwTCZseO/Ui5nKbXGUCG8+g6NRuIkdeJUulzpSRNwiPn4v13lxPXTqnwxr7C0ILAaIV9W/FR/7b/ix4lnf8pjPyJApeVHk+XroSZKlEiHgP0te0UFBw1nQZm//vpLJk+eLJUrV9bsOXPmOBcL9TxWrFhq2e3Zs8cs486eFpTWmTNntM7ly5dDVVookDJRkGw5vdNsH55/kFcy5jfTvHFgODWE1hb2l6JCcqTOJv+c2m5aHq76+LTM+7pnBI/Fa/euyyev/bsM5059tJkiYXJt+rzNKSK6pZXNKv10fnf5fs3Peh3wBDUEVhikTv4akj1lFiOZv35OIOTaiJ9fEIfvXQKnTp0S7GVhebB79+7aeM2aNcPtJGvWrGqZbdiwQa5evSozZ87UpcJwK9oVKFeunFp2sNA2bdqkbdhlh3sIxReWtCjaSJ0nBq/6QXad3yftfu2i1lfLYu84VPt19+/6LBSeh8JntW2vxEqC56OMsRm/GB88BeEOX31cI9l4aqucu3VBvvtrtH6M8b/+YmWBdfLZwq8kfpz4UrfAv3PrTn20E2RTWlmCMtn2ykbJskN/yZ4LB4zmI/2LxwPg4HLd5oSBpVQc42NYxRg79qmwD4bHCjqW/cDss3WxJrr8WXF0XeVz/d4N/cWzeRT/JUBLy3/nLlpGDscLfLA0mCdPHvUWdGeZDkt98CAcMGCAPt+F+i1atJCJE/99gwL2qcKSt956SxYsWCDvvvuuFoPFhuXGsJQRHDEGDx4cVrNm3oDXewg8Bbv80Uc/2N+Z12KCGK7Vxn4XXNntBZYR9mDCE6O+czlj/HDBDq2Mcx1X5wY/PGuGj708G/ymekb2f7279Fg0QPd7kI/+nC2/t15+3bbP9au88VI1dQs32oFnpTv1UX5M/SHy8byu+oA0XP2v9zlkNBPqL64/PMF+n7HMh7KZ+xbSKqPqDhIsDUI+KfOerDm+QR9fKJTxZU3DF5Zbf289VepPek8aTmljpmNJlOK/BGLZ9g6e+e/wOXKrE3j8+LGcP39en8cybtYRHTOet4IyMhw8Ilo/vPL4C/zUjbPycvq8Djft8Or5Sz5et7TX9gokSJ40L0T4dVWRrW8FTievn5HLNtd/7Dtin5HivwSotPx37jhyEiABEohxBMJen4lxOHjBJEACJEACViZApWXl2eHYSIAESIAEHAhQaTng4AkJkAAJkICVCVBpWXl2ODYSIAESIAEHAlRaDjh4QgIkQAIkYGUCVFpWnh2OjQRIgARIwIEAlZYDDp6QAAmQAAlYmQCVlpVnh2MjARIgARJwIECl5YCDJyRAAiRAAlYmQKVl5dnh2EiABEiABBwIUGk54OAJCZAACZCAlQnwLe9Wnh2OzSSwY8cOyZgxo6RJk8ZMwxvfb9y4IQULFjTTrHiwe/dumTRpkg4NL/7t1auX14Y5cOBADf2CBmvUqCGVKlXyWttsiASsSIBKy4qzYqExIahi1apVBW9rR1yrhAkTOozu9OnTMnfuXPnwww8lQYIEDnk4CS8/RIVQEpo3by6fffaZtGzZ0iwxZcoUjaI8b948My2iB0+fPpUffvhB3nzzTcmePXtEq7tVHn1ASpcpLQUL/Ktgu3XrJk+ePAnRRpkyZeSNN95wSB89ZrQcO3pMChUqpJGgjcymTZvK0aNHNVYZ5ohCAoFOgMuDgT7Dkby+zZs3a9h73BjXrw8Z/PDkyZMav+r+/eeh6p27QxDJQYMGSWj5zuVDO+/fv7+89tproWV7nA6lAWvlyJEjHrfhbsWMGTJKjhw5zOKvvPKKWomwFPFBzDFECnr55X9jQqHwzp075eiRo5rnzDFLliySO3dus00ekECgE6ClFUAz/N1330mzZs0kbdq0XruqJUuWSLFixSRu3LhqaVWsWFHbRij733//Xf/KR8L06dMlUaJEEhwcLLVq1ZLw8o0BLl++XJIkSSIpU6aUxYsXy927d6VevXrmjRj5ly49D+NuBD006hq/a9euldWrV+vyYaNGjTT2FvK2bdsmiMWFZTPIrVu3NKgkrJjkyZNrQMuHDx9q3qJFi9QqxAmsF1wvBFGX58+fr8Enc+XKJfXr1w9hbWpBD74wVnvp0aOHtm2v2KDEZs2aJRkyZJBz587ZF+cxCcRIArS0AmjaYRV17NhRxo4dq3s9kb003DAXLlwoiBiMD46NpS7c7LFXAwsF5fbu3Wueo1/7fJw75yMNgiW+r7/+WqAMoQRxDUgzBPX+/vtvXRqEcnKWjRs3SsOGDdUa7N69u2AZ0RAowZ9++sk4lbNnz0rnzp1NJYjx4wOBRWic43og2DOrUKGCRl+G8vviiy8clua0kJe+YE2BmfP+3OTJkwVLtI0bN/ZST2yGBPybAC0t/54/h9HjZmvsPWEpr06dOlK7dm2JEyeOQzl3T/bv369/3ZcrV04tj759+8quXbsEy1pwihgyZIgqlJUrV0qfPn0kKCjIbNrIxzhWrFgRIt8saDtAm1OnTlXFhXRYRIZ88sknerhq1SojKcTvH3/8oXs9a9asEVgvFy9edMvaxLIgFMKMGTOkTZs2qpjtG0d+vHjxVJFivw6WEKzOffv2yUsvvWRfNNLH2C+EwEo1xFCkZcuWVWvUSOcvCcRkAlRaATr7d+7ckWnTpglu9rA+ChcuHOErxY0U+yzYY8HSHI6xXAel5U3B0pex7Ih2kyVLFqHmCxQooOWLFi2qv4bCjlAjLgqvW7dOU1u1auWQu2DBAq8qLexTwZLD0iqWWA2ZMGGCJEqcSJ0y7BW5kc9fEoiJBKi0AmjWY8WKpUt19peE5TxXHmr2ZUI7/vPPP+X27dsOHntYwoMXnzcFloSnkjNnTtOSxA0fihUWiisxljZd5TmnoSz25d555x2pXr26md2iRQvJlCmTee6Ng99++03nzZ4DrFwoKlzPsGHDzGVZOMRgydB+GdQbY2AbJOAvBKi0/GWmIjhOWCtNmjTRPZnQHBjCahJ/+W/fvl1vjnny5NGimTNn1ueN4DGYNWtWTcPyGQTWgv3yoCbavsLLRzmjjFEnIr+4iePmjus9f/68KtmSJUtqE3DugMu9Icb+lXGOXyh6yL179/TX+AIzKES0a6+0jHxv/uIZNCzhlipVymwWz3NBYUFwfcY+G/4AuXnzplmOByQQ0whQaQXQjMM6gNcb9kWwnwWvPE8F+1AQOC5g2Qpy/fp1VVrIa/m/56WwdIgbKh6ehVWCGy2UhSGG+3Zo+UY5V7/Yn4OlZwhu3hgDFAq8/wwZOnSoYAlv1KhRmoRnmSDYf+rdu7dgzwtKdty4cZpu/wVe2LObPXu2QDmnSJFCH2CGMkObPXv2VOUFphgPrE8oRW/taR08eFAePHhgeksaY8N4v/rqK+NUFRf2DeHe7rxcaRbiAQnEAAL0HgygSca+FW7gsLAio7CABK7u2CsyFBbScEOHIkCeIViS69Wrl3oslihRwlRmRj4eRg4r3yjn6heehPny5dMPluoGDBigxw0aNDCLZ8uWTd3d8QwXvA6xlGa4q2P8devWlffff1+qVasmxp6Xs+XZvn179YKsYPMUhMKDEoFgKbBDhw7StWtX9eoD359//tm0zsxBROIAHo4QewcMV80ZFqGrPKaRQEwiEMv2V/Jz/96YdNW81oAigH/CZ86cUQvJ1Vs5oPCwzOcqzx0QsLDQPpbs7F8j5U5dlIE7u+HGjzHAYvKW4KFrWJ+QKlWqqHL2VttshwSsSIBKy4qzwjEFFAG41UPpQWABe6L4QgOCB6/hKQqBg0hk9gdD64PpJGAlAlRaVpoNjoUESIAESCBMAtzTChMPM0mABEiABKxEgErLSrPBsZAACZAACYRJgEorTDzMJAESIAESsBIBKi0rzQbHQgIkQAIkECYBKq0w8TCTBEiABEjASgSotKw0GxwLCZAACZBAmASotMLEw0wSIAESIAErEaDSstJscCwkQAIkQAJhEqDSChMPM0mABEiABKxEgErLSrPBsZAACZAACYRJgKFJwsTDzOgggLeq79q1SyMk463wUSGIWZUxY0avvvcvKsZp1Ta//PJLMxDl4MGD3R7mwIED5erVq1q+Ro0aUqlSJbfrsiAJuCJAS8sVFabJd999JzVr1gxBAnG68GZxbwqCN7755pty7NixCDeLGGIjRoyQ48ePh1kXkX4RddlbsnLlSg3aeOLECYcm+/Xrp+FQHBIjeTJ37lxZu3ZtJFuJXHW8SR8v5H333XddNoQYa126dJFBgwY55Ddt2tQMu4K35VNIILIEqLQiSzBA6yPIISIXHzlyxLxCRCxGjKv8+fObad44QMwuxMHKkCFDhJtDJF/8NW8/TleNQNEi5pa3BMEtobD+/vtvhyZ//fVXDSbpkBjJE4Q1WbVqVSRbiXx1vKHeCOpp3xqiPiPGGhTbw4cP7bMkS5YsIQJcOhTgCQlEkACXByMILKYUL126tF4qbsovvPCCHq9fv15/y5Ytq79QYvgLG1ZOUFCQWh5GqHstYPtavny5huNANGMEPLx7967Uq1dPb2SwkmbNmmUU1YjE5ont4MaNG1p///79mowbJoIlIjQ9BDdz4ya5aNEiOX36tKbjr3sjECT6R/gOiHPwR6RB8fz222+CmFsIAFm7dm2z/a1bt2pdLCti7Lly5dL+Ef4D4UVQHsqkcePGaEo5nDt3TuNaaYLtC0tj8+fP135Qv379+uK8BAoratOmTRpi5NVXXxUso2H8GDuuCZbotm3bZOLEidps1apVdakTJ4jsDEvs6NGjkj17dm0fscMMwXXBwoQl+9dff2k7L774oiCQpsHIKOvp79ixYzUkCv6AoJBAVBOg0opqwtHUPgIL7t6922VvBQsWlO7du7vMCy0R4eyhuNasWSNYWoPgpofIxalSpdJzLAUdPnxYIwLDAhsyZIhgecw+HDwUy9mzZ3XPCpGEkyZNKvjLvHfv3vqXORQhghguXbpUXnnlFUG/huBm++233woiCkPZTZgwQRYuXKhRklEG12sorVOnThnVtF3jZO/evXLo0CGZM2eOLmtCcRgCZYg9FowJUYnHjBkjy5Ytk5EjR2oRWA/jx4/XY7DAkimUJm7SECiXH374QXCzhiI1rK5SpUppPhTiG2+8Iffv35fKlStr1GMomHnz5mk+vr7++mttD5ZtkSJFpFu3bpI5c2ZViKi/b98+VWZXrlwx59f4wwDtYgxQWFBkGBciK0PZIWAlBEoUkZf/+9//ysaNG6V69eoCaxCRnFOnTq1lIvMFZQrFCsU9e/bsyDTFuiTgHgGbSU8JAAK2IIPPmjRp8qxhw4YOH6TZlIZHV2i7CT7LnTv3M1sQw2e2G7Me227SZlsXL140j3HQuXPnZ7YbqkNay5Ytn9mW/Z7ZLDIz/ebNm+YxDmyWmpaxKRiHdJuVon0bibabvZaz3YiNpGc2paVpNmVjprk6sCnMZ7/88otD1ieffPIM6bYgipo+efJkbcumKPR8wIABen7gwAE9nzZtmjKw7c3ouS0isebbnEj0vG3bts9sN289xteHH374zKYMn9mUi6bZbu5a3rhOm3OIntuUpVkHbGxK3DzHwVtvvfXM9keJQxpOZsyY4dA/xgnWNovMLGuMsVGjRs8M7rhezGlE5IsvvniGfw/2gn8TNiX7bOjQoZpsU47PvvnmG/sieox/m/i3YbNWQ+QxgQQiSoCWlnu63fKlsISFcOtYJrMX/AXuyV4R2oCF89VXX+lf+PHjx9elKHvvL6TBGoI1hiVCWAb4OAv6r1ixoplsv3xlJro4QDlYYlg+g3ehEVb+2rVrkj59ehc1IpZku6ELljoNq8RY9rTd/CVv3rzaGMaeJ08ePYaliOU4WHVYisPeHvbj1q1bp+XhnAGrxhCkQ+wtT5wvWLBAYFlh+RFiU0r6iy932aAsrEhYicYeI8aJRQOChwAAQABJREFU8ezZswfZDoLlQKNt43odCnhwguVKOFe0bt3ag9qsQgKeEaDS8oybJWvZrCy9gd66dUvHh6U23Kw8FSyl4aaNZS/s4+CGaNzM0eYHH3ygyspmzalSwtKaK6VlKIOIjmPUqFHqZNG+fXtBH1jqgnOIt7zQsN+EvSlD0qZNq4cGP5xgqc4QI5S9sXeDPTIsz0FpY0kQCs1Qztivw37SO++8o0tyRhstWrRQLzycQ/lCPF2mw55fjhw5JFasWNoOvrJmzSo2i8o8Nw6w9OhtwfIqlkWxbAsBF5sVJ8OHD5cOHTpoGr9IwNsEqLS8TdSH7cG7q27dujJp0iQdBTb9kRYZgWMC9rJww8Z+jnGDxF4W0m1Larpfgz6wb+RKjJu9q7yw0rBfBIVl7MfZlvdCFDfGg32yiApu8Hh+yxDDQomIZYq9KlhSUArZsmVTCwztQaHlzJlTrRvsI7kSlIfA4oMDRmiSIEEC3Qd0zod1DUcWXHuiRInEtuSn1puxp2Zf3ltOF/ZtpkiRQvs0lLxtmUezjXP7sjwmAW8RiO2thtiONQjgBombGW6IWBqMrGA5EMoJm/u4QRuCGz6WprC5D4tl5syZEX4OCjdbLPnBYoDgGB9DAcH5AZaVbe9MVq9erU4GRv/GL27G5cqVUyeAgwcPalnj5gmLzGgT5XEzxblhiUAJY/wYO5w1YCHgmuBs4q4YbvRwQnF+rg3KDM4RWEaD1QUvQCheOFdAwBP99e3bV5dBMT4ofmf3ffSBZV8sJ4KF4XxizC8e9oWFizFAsEwcHYKlUCwfGx/MBa6nR48e0dE9+4ihBKi0AmziceOAtx8eAnXl4h3Ryy1RooRZxf4veOxnwQPQ5gygz+707NlTsPQVEfnpp58kX758usSGenCFxzm89CA2Rwl1OYdrObzTYPVBDOtKT2xfsMZwo8ceHMriDRsQeDSiPXygNGyOFXpsLJnanETUMu3YsaOUL19eFdjo0aNND0bnfrRR25c9V+wTQWlC7Pf7cA4eWCbDzR0enPBQhHef0S4eE4CldOHCBb12uKLbHBlMl3u0AcGeF/bQcP24PrjHQ2CdgTu8HjE3sEzx5gr7OdOC/CKBACIQC54bAXQ9vJRoJgBrBhYE3pZg3Iy9PQSb95mkS5fOa88VOY8PFg72l3ANxjNgzmUicw5GuAY4QNjvodm3CZd27AfBSo7oUh4sL+z3wTkFS4lRIXjbhXGriMhrnPBQN6xbCCxAuNpTSCAyBKi0IkOPdUkghhCAxyQcLaDU8ZYLdwUPdkMZQ/BHgaf7m+72x3KBT4BKK/DnmFdIAiRAAgFDgHtaATOVvBASIAESCHwCVFqBP8e8QhIgARIIGAJUWgEzlbwQEiABEgh8AlRagT/HvEISIAESCBgCVFoBM5W8EBIgARIIfAJUWoE/x7xCEiABEggYAlRaATOVvBASIAESCHwCVFqBP8e8QhIgARIIGAJUWgEzlbwQEiABEgh8AlRagT/HMe4K8boh403u7lw8yiKsB4UESMD6BBhPy/pzxBG6SeDu3bvSr18/VUB46Sxe1movePu7qxfKjhgxQpUc3quHYJOIUEwhARKwJgG+e9Ca8xIjRgWLCGFIEDYEggi+CBPi6UtV582bp3GpEKcKoUYSJkyobybHW8kR8wtvKYcywwtfmzZtaoYggZWFYJAIE4IAkBgDhQRIwJoEuDxozXmJEaNC7Cq8BRzxrhBvCsoLMbY8FYT/QHgUBMKEwoJAUUFhIR4V4m2lTZtWjh07JujbECjJokWLCmKEwVqjkAAJWJcAlwetOzcBPTIok5MnTwpCtiNYIkLdw9qB4nn69KlDoMXIgEDARkQGNqw3RBfu3r27KjLndqHwjJhRznk8JwESsAYBKi1rzIPlR9GnTx/ZvXu3y3G+8sor0q1bN5d5oSUiWi8UhBGbCRGQDaVx+vRpyZo1a2hVQ02HQ4V9VGGjoKGwjHP04yrQIva77t27ZxTjLwmQgAUJcHnQgpNixSG1bt3a5Y0eCqFVq1YRHjKUFgSW1vTp0wXRd4sUKaJpiIQcEVm9erWMGjVKI+Rmzpw5zKoLFy7UvhC23lny5s2rThzDhw+XxYsXCxw3KCRAAtYiQKVlrfmw7GgQBh7h0p2latWq6rzgnB7eOULQQxDqfvv27VKiRAkJCgrSNCNPT9z4WrJkiRw/flz3pFyN0Whi165dsmbNGu2nfv36RrL5W6ZMGXXOwBLlypUrdWxmJg9IgAQsQYBKyxLTYP1BYEmtQYMGkixZMnOwUDKubv5mgTAO0qdPr7lQWIkTJ5a3337bVBLp0qULo2bILLi5t2vXTqDs5s6dG7KALQXOF1OmTFGX906dOrksA+9BLDE2a9ZMBg4cKMHBwS7LMZEESMB3BKi0fMfe73pOmjSp1K1bV8cNJVavXj1JkiSJR9cB13JD4IgBgWMGJLwlPi3k9JXd5h0Iz0BXDxWfO3dOxowZo8ubnTt3Nj0LnZqQK1eu6PXAk5FCAiRgTQJ0xLDmvFh2VNWqVZNly5bpUhyWBj0VOEykSZtGLl28pFYQluSwl5UqVSqXDwC70w9c1p29/+7fvy8jR45Uj8TixYvLxo0btSkoXeelRHgtOjttuNMvy5AACUQfASqt6GMdED3hpt68eXNVWq489SJykW3ebyPffvut/Pnnn1oN3ntt2rSJSBMOZbHMCKV19uxZwR4c5Nq1a7psiOMNGzbgxxR7pQXlBmcQLgmaeHhAApYkwDdiWHJaYtagoGSgbDJlyhSpC9+/f7+MHz9e28DeW8+ePd1qb9iwYYIlREijRo1ML0a3KrMQCZBAtBKg0opW3OwsqglgTwvKC69mKl26tFvd7dy5U51A8uTJI2nSpHGrDguRAAn4hgCVlm+4s1cSIAESIAEPCNB70ANorEICJEACJOAbAlRavuHOXkmABEiABDwgQKXlATRWIQESIAES8A0BKi3fcGevJEACJEACHhCg0vIAGquQAAmQAAn4hgCVlm+4s1cSIAESIAEPCFBpeQCNVUiABEiABHxDgErLN9zZKwmQAAmQgAcEqLQ8gMYqJEACJEACviFApeUb7uyVBEiABEjAAwJ8y7sH0FglMAggMOTRo0f1YlKmTCmFCxcOjAvz4CoePX0scWPHkVi2/ygkYGUCVFpWnh2OLUoJ7NixQ6ZOnSoHDhyQfPnyyYwZM6K0P283/uHczjJxy8wQzQ6t3Uv+u+dP2XBii3St1EG62T6Q0zfOyktDykiPKh2lS4VPNG3B3sXy/uyOcunOFT0vkP4lWdp2tqRLyhcHKxB+WY4AlZblpoQDii4Cb731luDz9ddfq+KKrn7D6ufJkyfyyy+/aJE6deqE+dZ5KJr7jx9In+pfOjRZ4YXSMnLdf+T2wzvSZ9m30rlCe4kXO67AmkLa2ZsXtPyiAyukzoR35cU0uWREnf5y48FN6bVkiBy+fIxKy4EoT6xEgErLSrPBsViKwMmTJ2XFihVy/PhxCQoKklKlSknJkiXNMf7+++8aA+zSpUuyefNmqVSpkkM+Cm7fvl0WLVokKVKkkAoVKug5FGXChAnNduwPHjx4IAcPHtSkCxcuhKm0UCh2rNjSo3JH+yYcjqHUhv01Wr6o8LFDOk4++W83SRg3gezqtFqVGtLeK9YEPxQSsCwBOmJYdmo4MF8TGDRokEyfPl1jc0Epvf3226YVhLH9+OOP8u6770qnTp1k9+7dIfK3bdsmNWvWlPnz58uCBQtUqX322WeCmF/elG1nd4n9597j+9p80vhJpFKuMtJ32TB5ZvvPXnB++MoxqZW3qqmwkB/XZpHhQyEBqxLgv06rzgzH5XMCvXr1crB0vvjiC/n555+lVatWDmPbsmWLxIsXTz755BNZu3atmf/HH39IgQIF5LfffpO4ceNKhw4dZM6cOQ51nU8SJ04sXbp00UjOqVKlcs4Ocf702VMp/H0Vh/S17Raa59+/2VcKfldBft44WarlqWCmH792So9zBefQ37uP7umyIE7SJUvD5UGlwi8rEqDSsuKscEyRJgCF0adPH5ftYK/oyy8d94FcFYwfP75gCXDNmjW6RHjixAnBx16qVrVZKjaFBSlUqJAMHz7czF66dKnY5yOScnhKC5VTp05tthHeAZYHD3T+26FY1pSZzXM4VhTPUlh6LhooVXKVM9MfPX6kx3FsHoOQqdvmSts5nfS4yatvy9TGP+kxv0jAagSotKw2IxyPVwjAGxAWiyvJnj27q+QQaR988IEqqcaNG0vFihVl2bJlIZRW+vTpzXpQcoY8e/ZMzp4966CA4FYfnjx69EhGjRqlxRo1aiT27YdW17CWQssf9sY3UnpUbZm5Y75ZJGfqbHp86voZ/W1WuL5Uz1NRXhhY3CzDAxKwIgEqLSvOCscUaQJQTO4qJzhZwJnCXg4fPix//fWXTJ48WSpXrqxZ7lhJRhuxYsVSRbd161YjSfe9zJNQDqC0zpx5rkguX77sltIKpSkz+bXsxSRfujzSb/kwMw37VmmTBssf+5dpWqK4CSVrikzq2GEW4gEJWJAAHTEsOCkcUvQSKFeunOzbt0+dJeApePfuXcmaNaskTZpUNmzYIFevXpWZM2fqUmFERgZvQuxnjRs3TuuOHj06ItUFis8dmb1zgdh/9lw4EKLat7V7C/at7KX/693lyt1r8vbEVrLv4iFZd3yTPLa5xVNIwMoEaGlZeXY4tmghgL0oOFn06NFDYN0Y1lXv3r1lwIAB6iUIBdaiRQuZOHGiOabYscP+mw+u7Zs2bZKvvvpKgoODpUGDBup9mCBBArMN5wM4YgwePNg52eU53l4BR4yGU9o45Lcs+k4IhVfjxUqSLUVmOXH9tFkW7u0Xbl2SnosHyrw9f2h6ykQp5KOSLc0yPCABqxGIZVt7d/SFtdoIOR4S8CGBx48fy/nz5/V5LHctH+fhog14D2KvCpYXnESsJHB/33vhoKRIlFwyJc9gpaFxLCQQggAtrRBImEAC/xKAssmc+V9vvH9zwj/Cuw3hIo9lQngdYnkQzh1WE1hs+dO9aLVhcTwk4JIAlZZLLEwkgcgTwFIfHiQeOHCg7o9hebF169aRb5gtkEAMJsDlwRg8+bx0EiABEvA3AmHvJPvb1XC8JEACJEACAU2ASiugp5cXRwIkQAKBRYBKK7Dmk1dDAiRAAgFNgEoroKeXF0cCJEACgUWASiuw5pNXQwIkQAIBTYBKK6CnlxdHAiRAAoFFgEorsOaTV0MCJEACAU2ASiugp5cXRwIkQAKBRYBKK7Dmk1dDAiRAAgFNgK9xCujp5cX5A4Hdu3fLpEmTdKh49VOvXr0cho0YW0Z0ZIcM20nXrl3lyZMnmow30seJ8zwSsXM5npNAoBCg0gqUmeR1OBCoXbu23L59W0OB5MiRQ/PWrFkjPXv2lAkTJrgdINKh0Sg6efr0qbZcukxpKVigoNnLL7/8IgcOHBDk4w3z6dKlE1xXnjx5zDItW7bUYJWHDh0y03hAAoFMgMuDgTy7MfjaEDH44MGDZuh6oLh165am3bvnGAzRKpgyZsgohoLFmI6fOC5p0qSRsmXLqqK6cOGCKmH78b744ouSMmVK+yQek0BAE6ClFdDT618X991330mzZs0kbdq0Xhk4AjdOnTpVOnbsKBkzZgzR5smTJ2XFihWCaMVBQUFSqlQpKVmypJZDWJEtW7aoortx44YgoOOsWbNUgaCcIVCMS5culWvXrknRokWlRo0aRlakf3t07+GwLDh8+HA5c+aMjjd79uyRbp8NkIA/EqCl5Y+zFqBj3rx5syqYsWPHChRFZAWRgrGUNmbMGJdNDRo0SKZPny7YM0Lfb7/9tmnJ7NmzRz799FNVSIgk/NprrwnS6tWrJzt37tT2oKwqVKggs2fPFizPIewIFK+3xHkfywhC6S2l7q1xsh0SiE4CVFrRSZt9hUkAQbQR5XfZsmWqvObPn286GYRZMZRMBHD87LPPBErw8uXLIUrB4WHx4sXSr18/mTZtmlp5CNpoiGGpNWzYUJXTxIkTJWfOnLrPhHF26tRJ6tevL6tWrRLkIcgjPsjzthw5ckROnz4tqVOnFjhrUEggphLg8mBMnXmLX/edO3dUkUAhNG/eXAoXLuzRiGvWrCnZsmVTCyp//vwObcSPH19+//13gYMGlggRXRgfQ5IlS6YOEFg6hDUGgdKAgwfKQRFi76xJkyaah70y5K1bt07Kly+vad74QiDJ8ePHq2fgRx995I0m2QYJ+C0BKi2/nbrAGziWv2Bt2Qs85wyXbvt0d49hbXXo0EG++uor6d27t0O1Dz74QJVP48aNpWLFimrh2SstKDUI2jBcyWPHjq3efMbyJfbg7J0nPvzwQwfvPocOPTh58OCBDB06VK23tm3bSvLkyT1ohVVIIHAIUGkFzlwG1JXAyoEFgz0jKIrISN26daV///7y448/ms0cPnxYXcUnT54slStX1vQ5c+aY+eEdZM6cWYvAiqtevXp4xT3Kh8LGfhoUF5TjCy+84FE7rEQCgUSASiuQZtPPrwU3aVg1tWrVkjp16kiSJEm8ckUJEiRQawvPaBmSNWtWwZ7Vhg0b5NVXX1WHCywVuitwhoCywn4YrMNy5crJuXPnZO7cufL555/rdbjbVmjlYGHBTT937txy/vx5/aAsvBTp5h4aNaYHOoHI/Qkb6HR4fdFKAPtWuFHDwoqswoJCspd33nlHlZSRhqU/LBfOnDlTXn75ZX3ouEWLFka2wy+WLQ3PPWQYlh/Giuek3n//fV0SxD7W2rVrHepG5gRu9BB4JsJT0fjs3bs3Ms2yLgn4NYFYtr8SHTcR/PpyOHgSiBgBePrBismUKZODYopIK3fv3hU8+BscHCxY1oyowIV+ypQpWg1WYZ8+fdxuokuXLuY+IF/j5DY2FvRjAlRafjx5HHpgEIBnIh4ahsDCxFsw3JVTp06powocRbJkyeJuNZYjAb8lQKXlt1PHgZMACZBAzCPAPa2YN+e8YhIgARLwWwJUWn47dRw4CZAACcQ8AlRaMW/OecUkQAIk4LcEqLT8duo4cBIgARKIeQSotGLenPOKSYAESMBvCVBp+e3UceAkQAIkEPMIUGnFvDnnFZMACZCA3xKg0vLbqePASYAESCDmEaDSinlzzismARIgAb8lQKXlt1PHgYdGAPG3EDjRXUFZI8iju3VYjgRIwDcEGJrEN9zZaxQQwItrESoECgghThBDy14QlwovpHWWESNGqJLD+/vwhvkCBQo4F+E5CZCARQjw3YMWmYiYOozFixdrePqHDx8KQoO89NJLHqOYN2+erF+/XoM6IkxIwoQJ9Q3oCKR49epVPYYyw4tlmzZtakYBhpLbsWOHzJo1SzJkyCAdO3b0eAysSAIkELUEuDwYtXzZehgEEEpj+fLlGpkXASBhKUVG8KZ0xL1CcEYoLAgi70BhZc+eXaMgI3jjsWPHZPTo0WZX8eLF08CKiLEV2TGYjfKABEggSghweTBKsAZeo7j5Dxs2TMO+48bvDUmdOrWULVtWbt++LStWrPBGkyHaQMDGvn37ChQTpGbNmtK9e3dVZM6FofAYXs6ZCs9JwFoEaGlZaz4sPZrNmzfr0tm4cePkxo0bkR5r27ZtpUyZMpFux2gADhVGVGEjDb+GwjLSoJywTOgs2O+6d++eczLPSYAELESASstCk2H1ocAKQaRfhH3Hvs/8+fM1AKGvx7169WoZNWqUXL9+XTJnzhzmcBYuXCjYPytUqFCIcnnz5lUnjuHDhwv22uC4QSEBErAWASota82H34zmzp07Mm3aNOncubNs3brVp+NesmSJHD9+XLAnVaVKlVDHsmvXLlmzZo0EBQVJ/fr1Q5SD1Zc8eXKNIrxy5Uq5detWiDJMIAES8C0BKi3f8ver3rGs5ixwoMBzUb4UuLm3a9dOrcC5c+e6HAqcL6ZMmaIu7506dXJZBt6DWGJs1qyZDBw4UIKDg12WYyIJkIDvCIRc2PfdWNizHxGARdK4cWP1yHO1jxTdlwLvQDiIXLx4MUTX586dkzFjxug+FixDw7PQueCVK1ckSZIkUrBgQecsnpMACViEAJWWRSbCH4YBqwpODfDAq1Onjt7gIzPu8+fPy+7du+XkyZPazN69e+XatWvqfp4iRYoIN43lQWfvv/v378vIkSMFYy9evLhs3LhR24XV6LyUaFxfhDtmBRIggWgjQKUVbaj9v6MiRYpI8+bN9QFcb1zNhg0b5O+//zabwp4TPkmTJZWSJUqa6e4eJE6cWJXW2bNnJWPGjFoNShDOIxD0Zy/2SgvKDQ4aXBK0J8RjErAeAb4Rw3pzwhF5SGD//v0yfvx4rZ0sWTLp2bOnWy3h+TMsIUIaNWokUM4UEiABaxKg0rLmvHBUHhKAIwWUF17NVLp0abda2blzp3oK5smTR9KkSeNWHRYiARLwDQEqLd9wZ68kQAIkQAIeEKDLuwfQWIUESIAESMA3BKi0fMOdvZIACZAACXhAgErLA2isQgIkQAIk4BsCVFq+4c5eSYAESIAEPCBApeUBNFYhARIgARLwDQEqLd9wZ68kQAIkQAIeEKDS8gAaq5AACZAACfiGAJWWb7izVxIgARIgAQ8IUGl5AI1VSIAESIAEfEOASss33NlrFBJAfC+8zsldQVm89olCAiRgfQJ8y7v15yjgR4iw9gkSJIj0dd69e1cQEBIKKG7cuNK/f3+HNkPrZ8SIEark4sSJI02aNJECBQo41OMJCZCAdQjw3YPWmYsYNRLEvRo8eLBcvXpVw4lAyWTJkkWaNm2qIe89gTFv3jxZv369VK5cWcqXL6/BHt3pB0pux44dgsjFGTJkkI4dO3rSPeuQAAlEAwEuD0YDZHYRkgCUCRQWIg5XqFBBow4fO3ZMRo8eHbKwmylnzpwRBHesXr26GZ3YnX4Q2LJo0aKCIJKw1igkQALWJcDlQevOjaVGhps/4k41a9ZMFUxkBxc7dmzp27evRkJGW4iG3L17d1VkkW3bvn5E+oHCw3VSSIAErEuASsu6c2O5kW3evFm2bNkiFStWlAYNGkhQUFCkxggLx16gNLBM6KnAoQJKylnc7Qf7avfu3XOuznMSIAELEQj5f7iFBsehWIsArBCErl+6dKnu+8yfP1/gqecNWbhwoYa7L1SoUISbW716tYwaNUquX78umTNnDrN+WP3kzZtXnTiGDx8uixcvFjhuUEiABKxFgErLWvPhN6O5c+eOTJs2TTp37ixbt26N1Lh37dola9asUcutfv36EW5ryZIlcvz4cd2TqlKlSqj1w+unTJky6gSCvbGVK1dqNONQG2MGCZCATwhQafkEu392iuU7Z3n69GmkrC04X0yZMkVd3jt16uTcvFvncHNv166dWoFz5851WcedfuA9iCVG7NsNHDhQgoODXbbFRBIgAd8R8HwDwXdjZs8WIJA8eXJp3Lixev652kdyZ4jnzp2TMWPG6D4WLLaECRO6U81lmew2L8S0adPKxYsXQ+S728+VK1ckSZIkUrBgwRBtMIEESMAaBKi0rDEPfjEKWFVwaoCnX506dfQG7+nA79+/LyNHjhS0Wbx4cdm4caM2BWsurCW+sPqDy7qz919E+jGuL6w+mEcCJOBbAlRavuXvV70XKVJEmjdvrg/gRnbg165d0+U8tLNhwwaH5jxVWokTJ1aldfbsWcmYMaO26W4/UG4PHz7kkqDDTPCEBKxHgG/EsN6ccEQeEti/f7+MHz9eaydLlkx69uzpVkt4/gxLiJBGjRoJlDOFBEjAmgSotKw5LxyVhwTgSAHlhVczlS5d2q1Wdu7cqZ6CefLkkTRp0rhVh4VIgAR8Q4BKyzfc2SsJkAAJkIAHBOjy7gE0ViEBEiABEvANASot33BnryRAAiRAAh4QoNLyABqrkAAJkAAJ+IYAlZZvuLNXEiABEiABDwhQaXkAjVVIgARIgAR8Q4BKyzfc2SsJkAAJkIAHBKi0PIDGKiRAAiRAAr4hQKXlG+7slQRIgARIwAMCVFoeQGMVEiABEiAB3xCg0vINd/YahQQQTRmvc3JXUBavfaKQAAlYnwDf8m79OQr4EeIN65GJpWUAunv3riAgJBRQ3LhxpX///kaW/j548ECDTTok2k5GjBihSi5OnDjSpEkTKVCggHMRnpMACViEAN89aJGJiInD6Nu3r2kRQWEgnAhCn6RIkcIjHPPmzZP169dL5cqVpXz58qoIEV9r8ODBcvXqVQ1bAmWWJUsWadq0qSCQJQRKbseOHYLIxRkyZJCOHTt61D8rkQAJRD0BLg9GPWP2EAqBBAkSSKFChVTJQJGcOnVKIxmHUjzc5DNnzgiCSFavXt203KC0oLAQ2bhChQoa3fjYsWMyevRosz0EtixatKggiCSsNQoJkIB1CXB50LpzY6mR4eaPuFPNmjXTG783Bte5c2eHZhD/6vr16w5pkT2JHTu2wKKDYoIg6nL37t1VkTm3DYXnHPnYuQzPSYAEfEuASsu3/P2q982bN8uWLVukYsWK0qBBAwkKCvLa+NEu9pxSpkzpcZtwqICSchZDYRnpUE5YJnQWWH737t1zTuY5CZCAhQiE/D/XQoPjUKxFAFbI48ePZenSpfL3339LnTp1pHbt2oL9KE9l3LhxcvDgQa0O5QJLLqKyevVq2bNnj1pp2bJlC7P6woUL5eHDh1K8ePEQ5fLmzSubNm2S4cOHC46xnAhFRiEBErAOgZB/llpnbByJhQncuXNHpk2bJlji27p1q8cjRWj7V155RZIlS6YOEcuXL49wW0uWLJHjx4/rnlSVKlVCrb9r1y5Zs2aNWoj169cPUa5MmTLqnIG9sZUrV2o04xCFmEACJOBTArS0fIrfvzp3tefz9OlTwXNRnsqrr74q+ECw97Rv3z7dV0Jf7grc3KG04Fwxd+5c6datW4iqcL6YMmWKWk6dOnUKkY8EeA9iiRHWXsGCBV2WYSIJkIBvCVBp+Za/3/YOd/HGjRvrEpqrfSRPLixRokSqNC5duhRhZw94B6ZNm1YuXrwYoutz586pVyL2sWAZhvZM2JUrVyRJkiRUWCEIMoEErEOASss6c2H5kcCqwr4TPPCwn4UbvKeyf/9++eOPP6RYsWKSKlUqdfC4cOGCJE2aNMIKyxgDXNadvf/w4PLIkSMFY8c+1saNG7U4LDnnpUTj+oz2+EsCJGA9AlRa1psTy44I+094+BcP4EZWoDSgpOAYYQi8EevVq2ecRvg3ceLEqrTOnj2rDyqjgWvXrqnzCI43bNiAH1PslRaUGxw0goODzXwekAAJWI8A34hhvTmJUSOC0wOW5fLnzx8pL0RAg/U2fvx45QfHDjz35Y7g+TMsIUIaNWokUM4UEiABaxKg0rLmvHBUHhKAIwWUF17NVLp0abda2blzp3oK5smTR9KkSeNWHRYiARLwDQEqLd9wZ68kQAIkQAIeEOBzWh5AYxUSIAESIAHfEKDS8g139koCJEACJOABASotD6CxCgmQAAmQgG8IUGn5hjt7JQESIAES8IDA/7d3HXAyXd//6H2VFWXX6gRBRAiJ1QVBiM6yShDRw18vwU+PIBsiokSJXoKE6ESv0aKX6L2tXoL53+/Z3OfN7Ozu7OwauzPn5DP77rvt3ft98r5zypsjpOUEaDJEEBAEBAFB4M0gIKT1ZnCXqwoCgoAgIAg4gYCQlhOgyRBBQBAQBASBN4OAkNabwV2uKggIAoKAIOAEAkJaToAmQwQBQUAQEATeDAJCWm8Gd7mqICAICAKCgBMIyK+8OwGaDIleBJ4+fUrIKpw/f/4wc11F9YoHDhzgX35/E78teOjQIZoxYwZvAb9EP2DAgFDbwW8lIu1LZGX48OF0+/ZtHla5cmUqV65cZKeQ/oJArEJASCtW3S7XLXb06NG0du1aznllviryaBUrVsxudmBzv8iUr169StWrV6d169ZR3rx5IzOU82SNGzeOxyMRZFiClCpdunShZs2ahdXltdUjTxekhH8JKljgVUZkkPVPP/3EvzCP7M/IJebv729FPLNmzWJCxxxIXvnll18aaVcwZ6NGjeiff/6h5cuXGylYUC8iCLgrAmIedNc7G8V9gTz2799Pp0+fNmY6f/487d69m9OIGJXRUEAOK6QHcSZPFx720DbM67S3pKFDh9JHH31kr8lldT4ZfShbtmzG9ebNm0cXL16knDlzUsWKFfmX6VevXm0kstywYQNBQ/T29qZSpUoRSG78+PHGeBT8/PwoV65cVnVyIgi4MwKiabnz3Y3C3nRaj23btlGOHDl4pu3bt/OxZMmSfASJrV+/ns6ePUtI4Pjhhx9S8eLFra4K7QkZjlOnTk2rVq2iR48ecaJHPGihPcyfP9/oHzeu9Xeou3fvsvaFVCMQmA+rVq1q5N2aOXMmJ25E28qVK5kAUIb2ET9+yD9tXP/GjRuoJtv5UXfu3DlatmwZ3bx5kwoVKkTVqlUz5t+7dy+P9fHx4bWDXHB9Z8x4uJatnP7nNK+pRYsW3PTgwQMC3khWCSxRRrLMrl27MmFt2bKF94tUKgULvtLYbOeVc0HAnREQ0nKTuzto0CCC78Se4AHXp08fe01h1nl5eXE+qs2bN3O2YnTctGkTFS1alNKkScPjRowYQadOnaIiRYqwBjZy5EgaMmQINW/e3JgXxIJMwvBZFShQgE1gjx8/poEDB7JGASIMDg6mNWvW0Lvvvku4rhaYvEaNGkVlypRhsps2bRpnOp40aRJ3wX6RbRhy4cIFPuKPxWIxykeOHKGTJ0/SwoULCdoWiEcLyBA+IJjlChcuzKY6mETHjh3LXaD16KSSIHGYTEFa+vp6HmePvj6+jB8wzJ49u6EtAgcISAx4gLgmT55s7AvrFtJyFnUZF9sRENKK7Xfwv/Xj23q3bt1C+TWgcXz++edO7bJSpUr0zTff8JzQUkAsnTp1MuZCQIE5sKF79+40ceJEK9JCZxAWfDNly5blsffv3+djvHjxKCgoiLUdzG0rn3zyCdWrV8/QmpYsWUJt27Yl+MAyZMjAZkEEMMydO5datWpF5cuXt52COnTowHV//vlnqDaY2mCahGaDAAkQLPbQrl07ypMnD/cHcWAsEkTOmTOH+vfvTzBJYu1RlcaNG7NZFJhpgRkQa4FoPxbIGVrtxx9/zPcAiS5FBAFPRcDaHuOpKLjBvmHCqlChQqid4EHnjK8IE0HDwUMbD018u0fZHJ2WMGFCDgDo2bMnNWjQgKCVwdxmK7i+Jiy0pUiRwraL3XP0gyY2bNgwCggIYEJExzt37tjtH9lKmNlg6tQkoc2ex48fN6bC2kFYEGiKwMCs1RkdnSjAXAoTKMynuH/QqHbu3ElPnjzh2aAxog6+L5ArCA2iAzv4RP4IAh6GgJCWG91waCVmQoBpqW7duk7vEKY0PLThW9m6dSs/OLUGgklbt25NMEvigQuTICLf7IkmA3tt4dVBE6pfvz4/pEFaNWvW5O7Pnz8Pb5jDbQgVN2uK6dKl47FaE8RJpkyZjPm0LwuaVnQIfGYgfmhvX331FSFkHcEW0Owg0G6hVcIE+sUXX9CtW7e43mxC5Qr5Iwh4EAJCWm50s/GNXT/Ysa06derwt/iobBGBCfBl4QN/Dr75Q+CHQR18WB07diSYEuGbsif6YW+vLbw6hLLDVAd/HNahgyvMY/R64CeLrGTOnJmj8/S4w4cPc9FZzVTP4+gRBIUwdi1YD+TsubN8TJIkCR/xZSBVqlT0119/8TkiBkUEAU9FQEjLze48yAOaT5YsWdgHEtXtwRwIckIUntlnhAcsAhhgzoLGAhMWAiciIyAaEB1MZBCU8dEEhOAHhN1fv36dNm7caJgHzdcAkcFstmDBAjpx4gT31YEY0Mj0nBgDDQrn2icEEsb6sXYEa8C/hj0h2MQVAlLCWn7//XeCSVJHUpYvF+KbgzkSgv1jbzCVQvvSkZ2uWKNcQxCIaQgIacW0OxLF9eAhjhdpmzRpYjfEO7LT40ViLQjD1gKzFiIAEQSBUPR+/fpR06ZNdbNDxx9//JHy5cvHZjEMqF27Np8jSg+CIAqEqyMUvWHDhqxtoV5rVyhDoI3hPS344NAXGgwE75RhfnwQ0g7fGMraZIoXjaGZdu7cmUqXLs0ENmHCBCOC0fY6PKn6Yy90XrdF5og9wdQHX+CUKVOYwLA+/d5VrVq1OOAEhIboQZglYQIWEQQ8GYE46lvpq/hgT0ZC9u4UAtBm4Hfx9fUNRSZOTWhn0KVLlyh9+vR2zYN2uke6ChoYgjuwh+iICrRdAAI+EJkISZQoEfsBzX0QeIE96vfhzG0oQxu7cuUKvf3227ZNHMYP7RGCQBy8pCwiCLgzAkJa7nx3ZW8xAgGE5YOUIPA7moM/orpAaKIPHz7kaUC6zvoPo7oOGS8IuAoBIS1XIS3XEQQEAUFAEIgyAuLTijKEMoEgIAgIAoKAqxAQ0nIV0nIdQUAQEAQEgSgjIKQVZQhlAkFAEBAEBAFXISCk5Sqk5TqCgCAgCAgCUUZAfjA3yhDG/gnwY6yuEP2LD664llxDEBAE3BMBIS33vK+R3lUa75B0I5Ee6OCA27duO9hTugkCgoAgEDYCYh4MGxtpEQQEAUFAEIhhCAhpxbAbIssRBAQBQUAQCBsBIa2wsZEWQUAQEAQEgRiGgJBWDLshspyoI4AfltW/5O7IbOiLn1oSEQQEgZiPgARixPx7JCt0EIFHjx5xfi8QEH7tfujQoQ6N/P7775nk8GO5SDapU4I4NFg6CQKCgEsRENJyKdxyMTMC0IiQhgRpQyDe3t6cJsTZH31F+noQFvJ+IdWIFpCXztml65BY8dNPP+XTHj16cDJI5LNau3atkJYGSY6CQAxEQMyDMfCmeMqSkLsKv1KOHFIFCxZk8kKOLWcFv6SOHFhIhGnOCIz8WiBCXEN/8ubNa1wGbUWKFCHkCIO2JiIICAIxFwHRtGLuvXHrlSGNG15qRhp5JI9EqvsDBw5wCo+XL19GW6JFDWLSpEmpUaNG+tTuEYQn6eXsQiOVgkCMQUBIK8bcipi9kGFDh3FKeHurhNbSo2cPe01h1l27do0Jws/Pj/sgA7ImjYsXL5Izv56BgIqwsgoj0eOoUaMoRYoUVKpUKcqTJ0+otSFB4+PHj0PVS4UgIAjEHATEPBhz7kWMXkmTJk3sZvVF8EJgYGCk1w7SgkDTmjNnDj179ozef/99rkMm5MjIxo0bafz48YQMvpkyZbI7FIR469YtOnXqFP3888+0Zs2aUP1AZPCJBQUFEfxjMCuKCAKCQMxCQDStmHU/YuxqfDP5Ukmlofy5YYPVGhHw4OPrY1XnyMnz58+5GzQgmAWLFSvGWX1RqdscmQd9Vq9ezWQDnxRSzttK586dmRxRf/r0afrpp59og9rHxx9/bNUVwRnHjh1jEyXS24NEoX2JCAKCQMxBQDStmHMvYvxK6tapYxALFgtTWx1V54xkyJCBh+3fv5/gb6pVqxaBwCDp06fno6N/hgwZQm3btmWyW7RoUahh0Oa05MiRg9KkScN9Eb1oFkQPwsTYuHFjGj58OKVNm9bcLGVBQBCIAQgIacWAmxBblpAseTKqWrWqsVyEjCdNltQ4j0whY8aMRncEYkD0r82HZeIzBtgpZM2aldKlS+fQS8U6QhCmTbPAfJgsWTKOMDTXS1kQEARiDgJiHow59yJWrKRixYoEHxLCxO2Z4hzdBAIm3kr3Ft24foPOnDnDJjn4sqAFOWuSg3nQNvrv3LlztGTJEipWvBglSpiItm3bRk+ePDHMheb1ImrR2XfEzPNIWRAQBF4fAkJarw9bt5w5foL41KBBA/7Fibjxoqaot2rZiiP6VqxYwViBrFq1auU0bjAzgrQuX75MPj4hfjb4x/D+1q+LfjXmTZ48eajrgMgQDCImQQMmKQgCMRKBOOp/ckuMXJksymUIwCzninxaYYWxg2Twz9DX1zdKe0YQBSIDIfC39evXj8vwXSEA4+HDhwSflpeXF9frP2PGjCEEXkDq169vRDHqdjkKAoJAzEFASCvm3Is3tpI3TVrRuXEEUoC8ELpeokQJh6Y+ePAgB4Hkzp2b3nrrLYfGSCdBQBB4MwgIab0Z3GPUVd2JtGIUsLIYQUAQiHYEouaUiPblyISCgCAgCAgCgkDYCAhphY2NtAgCgoAgIAjEMASEtGLYDZHlCAKCgCAgCISNgJBW2NhIiyAgCAgCgkAMQ0BIK4bdEFmOICAICAKCQNgIyMvFYWPjUS23b932qP3KZgUBQSB2IiAh77HzvsmqBQFBQBDwSATEPOiRt102LQgIAoJA7ERASCt23jdZtSAgCAgCHomAkJZH3nbZtCAgCAgCsRMBCcSInfdNVh2DEHj69Cn9/ffflD9/fkqcOLHDK7tz5w7t3bvX6F++fHmj7EmFF5YX9FL9YHKCuM4/jixkoecvX0RpDk/CPDbvVTSt2Hz3ZO0RIoAfzi1Tpgz5+/tzHq0IB9h0uHjxIgUFBRGIKSxBHrDq1atzXrCw+tirv3btGk2YMIEGDRpEgYGBhHxejkr//v15X0uXLjWGgASx12XLlhl1r7sweN0YStYnK8Xpnp5yjShOF+9eNi7ZZ+UwStI7s9Wn4ewvjfZ5B5aSV98cFL+HDyXu5UdFgirSgoO/Ge0oXLl/jZrO68D9qk8NtGrDybngi5T3W3+eI2FPX0rVL5cir+eh+i05tILXUXFSPau2tSc3UdoBeXj9afq/TSuOr4tUu1VnOXEJAkJaLoFZLvKmENi9ezedOHGC/vnnH9q+fXukl3HhwgUaMWJEuISHHFxIb2LOxuzIhfLkyUMLFiygnj17OtLdqg/SuWBfw4cPJ+QMg+CIups3b1r1jcwJ0rhMnjyZPzdu3Ah36NIjK6nfquFUJkcJ+rned0xYxcZ+Yoy58eAmPXvxL/Up39n4NH3/FWmAXGrkr0xT6wXRd9UHM0HVm9mKjl0/yXPsurCPfAYVpJl7F9LDfx/R2TsXjLlRwPj835ais7fP0/AqfWlWwx+pfK6SrLWZOz5+/oQC57ajJ8+f0o2Ht4ym4Md3qdLk+pQ8YTL6pcEP5J00NVX7uTFdV+uGRNRuTCQFlyLgvD7u0mXKxQQB5xBYvXo1FS1alJNWrl27lsqWLWs10bp16yhZsmSUOnVqWrVqFT169Ihq167N58uXL2eyw4A5c+ZQkiRJOElk1apVeQ5oRvPnzzfmQzZme7JlyxbatWsX5/N67733qHLlyrwee31t627fvk3QppCBOWfOnFSnTh0rEyTqV65cSdWqVbMdyudoh+YFIitUqBD3ixcvnt2+qIRGCeKDQBMML1XLiPVjKXH8RLTs85n09Pkz6rikD12+d5X2XNxPRTIV4jkSxktAfRVp2ZNG79UmfLRkTeNH0KbWndpMedLlorhx4lD7j1rQ4Mo9Kc/I0GlmJu2cSQ+ePaSdHVbSB37v8TQB79XS0xnHlgs6U+okqShJAmvT7bhtPyuCe0nLW8ymd9K/TZjv1K0zFLRlEg2p3IsiajcuIAWXIiCk5VK45WKuRACJJX///Xdq2rQpk4Q2xZnJZebMmZzpGD6pAgUKELIaP378mFq3bk2HDh0ykkMeOXKEkFnZz8/P2ALmh/YWHBxMa9asoXfffTdUgkmY8SZNmkR58+bl5JK9e/emTJkyMYEYE4VRAOF8+umnrOXB3zVx4kRatGgRLV68mEcg/1fp0qVZy9NEap4KecXKlSvHeypcuDD99NNPBOIeO3asuZvT5SPXTtC7Gd+hOOq/Nr92Z00Gk20+s9MgLWhadWa0oOSJklGtAlWper5Kdq8HrWbC9uncVjF3GT6C+DT52Ru05sRGJqNbj24TzI5pk6ahTv6tKGfabEb3nRf20ux9v9L29n8wIRoNqrDt7G5KGC8hExbMh5vObFdEGZd2nN/D3SJqN88lZdchIKTlOqzlSi5GAA9tZCQuVaoUk9bgwYM5YALkYhYQ1qxZswwt7P79+5z5eOTIkUxK69evZ79TypQpzcMIGgv8XSAXkJatILkkCGvAgAH0xRdfcDOyKTvqu4LpL0GCBAQTJwizb9++rDUePXrUuFSrVq34Ghs2bGDSNRpUYfz48awZ7tixg5ImTUog6O7du1O7du0Ipkl7gn49evTgTNJp0qSx18Wog8kufYq3aN/lv2nanrk0v/EkgnnvfPAlow80MZj5Lty9RNP/mketPmhME+uMMtoRQJG0dxaD8AYrDSdX2uxGe3gFXOfuk3tUZUoA+XhlYC1v/PapdL3/ETb1IcDjs2lNmSiLZ34/1FTwlyVLmJSvDfNh62JNaPHhP+jq/evcN6L2UBNKhUsQsG/PcMml5SKCwOtFAFoFNCdE9eXLl4/LMAfaCnxRZrNhihQpbLs4da4jAz/77DNjPOa2JT+j0aawdetWzsDcvHlzCggIoG7dunGP3357FawAra1hw4ZMntD8zALSLFmyJBMW6lGGHD9+nI9h/fH29mayM2uk9vrCtAYtq+a0ZlT57XJU450Qf9bzFyE+tm+qfk0Ph5yl83320p2BJyhLqkw0addM9l3p+TB+2Cd9KbBwXUqaIAmN2vijVbvuZ+/47MUzNu+NrzmCLvU9QKd67OTzGX+FmGz7rRxBNx/eVj6z7+0Npxcq2hAmyC8XdaMEyow5tuYw1rT+/c9HGFG73Uml8rUjIKT12iGWC7wpBFasWEEPHjygZs2aUZMmTXgZ8FPZin6Y29ZH9RzRfBCQQGQF2hj8UBUqVGDzJkyc+EydOpVsTYFt2rRhbcw20AT+MLNPKl26dLwMaJJhCaItoT3ig6jI8AQk8/vR1YpkrtOcgAkqgCEkcMMvlQ8PS5XklWaKcqeSIdomNC+zfKXqZzQYRxvbLKE7j4Np4o5fzM1hlqHlQZoWqc/HHN5ZKWUiL5q1dxGfj9r0ozIfpqQvFv4fmyjvKBPkqZtn2JSIDhh/69Ed1gAXBk7hcPmHTx9RRq/0PD6idu4kf1yOgJgHXQ65XNAVCCCIYP/+/RxKDt8PBFrJjBkz6Pz585Q5c2ZjGTDBhSW67cmTJw5rSHquLFmycBEaDwIwwhIvLy9uunfvHqVKlYrL0HKyZ8/OZspKlez7gfR8CNCA7wvmTLNgjwcOHDCqDh8+zOXwohxBWpcuhZj3QJoZMmQwxtsWMqf2Jfi1xtcaQSClRYdCvhAU8slv25XPj18/xcdUiV+Rmbmjb8qMfGpLauY+5nLedLkJIetX7l0jEBYEJstsaULuLUyCIMETN09zGzRD+NhO3viHzwtkyMvj4Wcrl9OfIwvvP3tAqIdE1M6d5I/LERBNy+WQywVdgQD8UBCY1Fq0aMEfHVqu2xxZB0yLEJAdwt+19oQ6BGwgCOPu3bs45TLOUQ9B8ATMk/ClQQuChrNw4UI6fTrkIcqd1J/33w/xt/zwww/cdutWSFg2zILwiU2fPp21Lmg+0LTMPi09R/v27Y1IR10HjWznzp00b948OnnyJGtPWA+iKR2ROMp0Fp60+/Bzbj6qiOvwtePU64/BHD6uAykQHLHo72X099Wj1H/1NzRV+b2gnX2YpQiP6/RbX/p243j2iSEQAr4pSO9ynfiIP+tPbeE5Hjx9yFoR5kOABKRjiZZ8bDK3Pc/RcWkfDoNvVawx10NzO9jlT+ODkPZ86XPTnk6ruf2rkq35ePX+DTp58x8K+O8dMmh+kIjauZP8cT0Cyg4uIgi4HQLKJGipWLFiqH2pl4Atygdk1KNf165djXN7BRV1Z8mVK5dFaSgWjNcyatQorkO9+aNISnex7Nu3z1KiRAmjXUUoWs6cOWO064KKcrSoSD/up1425mql9VhUMIYxFtcoXry4RZGWRQVgWFTkoB7Ox0aNGnFfRWx8rsL3LW3btjXGYw/Kp2c1JqonNaY2sVC3dPxJ2DOTZeuZXcaU3v3fNtrQJ/XXua3aa01vbtX+1oC8lp5/vMIOE6Xsm9OqD+ZR4e/GNb75c5xVe4lx1Yw22wLmLzSmnFV10OZJVuOVTy1S7Vad5cQlCEhqEtd/T5AreiAC0J4ePnxIPj4+Dr+jpWHCS8Mw2SGyz+yj0u0RHaHhQUP09fXliMeI+ke2/d6T+yo68DKHjtuOxQvBl+9epSxpMpGvV4j5z9zn0b+P6fSts+SVOAUHapjbHC3jJWNoc1lS+VGapCHmVUfHot+/avzhq8fonQx57P4MVETtkbmW9I06AkJaUcdQZhAEBAFBQBBwEQLi03IR0HIZQUAQEAQEgagjIKQVdQxlBkFAEBAEBAEXISCk5SKg5TKCgCAgCAgCUUdASCvqGMoMgoAgIAgIAi5CQEjLRUDLZQQBQUAQEASijoCQVtQxlBkEAUFAEBAEXISAkJaLgJbLCAKCgCAgCEQdASGtqGMoMwgCgoAgIAi4CAEhLRcBLZcRBAQBQUAQiDoCQlpRx1BmEAQEAUFAEHARAkJaLgJaLiMICAKCgCAQdQSEtKKOoczg4Qg8ffqU9uzZQ8i59boEebFu3AhJsvi6rvGm5n1hecE/Wvumri/XjV0ICGnFrvslq3UQgdGjR1OVKlVC9a5RowYNHTo0VH1UKpDnSqUsIZVyJNLTIEPx999/T2fPng13bGBgINnLuhzuoHAa+/fvT2XKlKGlS5cavfBL8KhbtmyZUfc6C/MOLCWvvjkofg8fStzLj4oEVaQFB38zLllpcn1K0jtzqA/ydIl4LgJCWp57791653nz5uXMxeaEi8hYvHv3bnrnnXeide9p06alMWPGkMp3Fel5X7x4QSpnVqjEkLYTgWg/+ugj22qnzy9fvkwnTpzgayP1CQRH1CFjsbOC/UyePJk/EWmGSClSI39lmloviL6rPpiu3L9G9Wa2omPXT/LlW37QiPqU72x8ahWoSk+eP6UP/MLOAu3sumVc7EEgfuxZqqxUEHAcAZV4kTtv27aNcuTIwWVkD4aULFmSjyAxZDGGlpMyZUr68MMPSSVZ5Db9RyVNpGTJklHq1Klp1apVpBIrUu3atUklVCRoSfPnz9ddKW5c6++AyGiM8ceOHeM+yIKMbMLx4sXj85kzZ9KzZ8+4vHLlSrp48SKXVTJHI+cWxuuHv+386Hzu3DnWjEA0hQoVomrVqhnz7927l8cihxfWnjNnTr5+ggQJ+Dp6PK6NcfYkvPnt9YepFMQHuXbtWrj5vxq9V5vw0ZI1jR9VnxpI605tpjzpclHdgtV1Ex+RWThunLjUungTq3o58SwErP8v86y9y27dGAEvLy8CcW3evNnY5aZNmzjVfJo0abhuxIgRNGfOHFIZglkDq1WrFqezNwaoAogFprSyZcuyeQ6aGuogKk0rgQhXrFhBXbp04USN3PDfH5jzhgwZQkgAeeHCBVIZkunLL1+Ztg4dOkT4QNCuzzGvliNHjhCIF/Nv2bJFV/MRZAiiDQoKIpXNmNq0aUNfffWV0Wf16tXUoUMHJtnDhw+TymLMH90hd+7cpDIgs5ZovqZuj2h+3S86jsGP79KE7dN5qoq5y4SaElrZor+XU7mc/pQ0QZJQ7VLhQQi4JD+yXEQQeAMITJo0yYIU80hbr8xWXB43bpyxkuvXrxtlFLp168bp7M2VzZo143T1SiMzqu/du2eUUVCaGvdRBGNVf/v2bb62rly8eDH3u3Lliq6yKE2L69auXWvU2SsUKFDAMnXqVKsmRUgW1KuMyFz/yy+/8FyKwPh82LBhfH78+HE+nz17NmOgzICWli1bWkqXLm1RZMl9lEZnAR7KxGlcJ6L5rRZjOlFan0Vph4y5qdpu8aXlpUX5s4yU94PXjbHbb/KuWdxn1fENdtul0nMQEE3Lg76geNpWEVTw4O3M5+wAACGESURBVMED1mCgNaBcrlw5A4aECROy9tSzZ09q0KABa2Uwh9kKfFXQtLSkSJFCF8M9oh80MUUeFBAQQBMnTuT+CHiIDjl48CCbOpMmTcrTabOnIiljeqwdGhVEERxjAK1OS6ZMmahhw4asranHnq7moyPzWw3478Tb25vg57NnzrTtH4fi0LBP+lJg4bqsQY3a+CP7tmz7jd70I6VImJzsaWG2feXcvREQ0nLv++vRu4MPBw9tmNe2bt3KD9I8efIYmLRu3ZoGDx5M8Pk0b96c/P39jTZzQZOBuc6R8vjx46l+/frs+wJp1axZk4fpwAdH5givj9LkrHxG6dKl4+737983hoGUtGhfFoIlzAKzIsye2uen2xyZX/fVR5haYa7EB1GVjshXJb+gGQ3G0cY2S+jO42CauOMXq2Fn7pynI9dOULOiDazq5cQzEYjvmduWXXsKAggwgC8LD2wEQcSJE4e3furUKa5XJjUqX7481y1cuNAuLPphb7cxnEpliqR27dpRnz59uJcy74Xqrdfz+PHjUG0RVWTOnJnw/pYW+K0gIOrICMj9008/pZEjR1oNc2Z+kNalS5d4HgSHZMiQwWrO8E58U4ase9eFfVbdhq77js+7lm5rVS8nnomAaFqeed89ZtcwB4K0EIWnyQmbxwM5efLktGPHDoJGMW/evEi/BwWiCQ4OJkQJQlDGRxMQAkH2799PyldEGzduNMyD3Pm/P/Hjx6dSpUrRggULOOoOfbWZDhqZnhPdoUHhXPnUeDRIeOfOnbz2kydPsnaDPRUtWvS/2R0/tG/fnv755x+rAVGdXxOy1aSmk06/9aVvN46nfZf/piWHVlCVKQHc2rtcJ6OXhSw0c+9CjibMnMrXqJeC5yIgmpbn3nuP2HmxYsWMfSLSTgv8WQMHDmR/0w8//MAE1rRpU5o+PSSCTfcL7/jjjz/St99+a3RBKDxEa1eI3EPUH0LRdT2uZfswR/9evXrxi73oB/JInDgxm+z0nKiHbwwf+KYQwq6CRNhf17lzZzTzHiZMmECInITYXocr1R/4mmzbMCcIHq8AaIloft3PfIR/7ZtvvjFXhVm+GHyZvt8yyWh/K5k39SzbkUpk/cCo+1VFDOLdrM4lWxt1UvBsBOIg5sSzIZDdezIC0Gbge/H19Q31II8uXGAuS58+vfHuVXTNq+eBBobgDuxBvwOm26Lj+Drnf/TvYzp96yx5JU5BWVK98r9Fx7plDvdEQEjLPe+r7EoQEAQEAbdEQHxabnlbZVOCgCAgCLgnAkJa7nlfZVeCgCAgCLglAkJabnlbZVOCgCAgCLgnAkJa7nlfZVeCgCAgCLglAkJabnlbZVOCgCAgCLgnAkJa7nlfZVeCgCAgCLglAkJabnlbZVOCgCAgCLgnAkJa7nlfZVeCgCAgCLglAkJabnlbZVOCgCAgCLgnAkJa7nlfZVeCgCAgCLglAkJabnlbZVOCgCAgCLgnAkJa7nlfZVc2CERX4kWbaWPUKX4NPary7MW/KhnIm/kN7Td57ajiJuNdh4CQluuwliu5GAHkpho9ejQhJQnyZ+E4d+5cXsXZs2f5fM+ePcaqkJOqTJkynM0YY9F/w4YNRjsy+6LO0Yy8xsAICs9fPqeqPzeiBD19+fPJlIb0r6rTUuKHapSkd2arz5Tds3UzFQmqSPF6ZOT2VP1yUdN5HSj4cUiOL91p76WD5P/Dp5Sib3YavWmCrjaOK4+vp3QD81GiXpkobvcMVO6nWkabudD21x58nRF/jjVX0+B1YyhZn6wUp3t6yjWiOF28e9nh9o5L+6jr+vG1E/fKTNg/cmxpSTsgj9XeNRZmDHRfObo/ApJPy/3vscfucMiQIbRr1y7q2rUrZcuWjf766y86ffo04/Hs2TM6d+4cPXnyhM9RRu6qggULUvfu3TnVB+oePXpk4Pfw4UMeg+y8EQkIEIkfkberSZMm4XZvvagb/XFsLfUr34USxk9I/VYNp2aKeGY1/JHHXb1/ndIkTU1tPmxmzFMiy6tEj+lTvEWDKvWkHN5Zae3JjTR51yy6fO8qrWm1gPsPXR9EfVYOpaQJkhBSgaDNLH9fPcpEgdQgE+uM4iSU+y8dMnfh8p6L++nHHdO4HPw4JBElTpYeWclrrpKnAtUpWI1AbMXGfkKX+oZkVY6oPUG8+NS+xOf0gV9hOnz1GI34cxyVGl+D7g8OSUqJHFtmLXLR38to/+VDVDrbq/xovCj54xEICGl5xG32vE3euHGDswEHBQUxGQGBwoUL2wXiypUrVKtWLcqRIwdNmjSJicZux0hUgrROnDgRYY4umOJm71tEHykS+l+lHvwwBmnNP/AbzWgwjuLFicdXzZY6M/UtH5Ls0XYZyz+fZVTVf7eGIq5NtPPcXqMudZKU9F31wdSiaACl6JfdqNeFnn8MpoTxEtKJHjvUMYGutjpinZ9Na0a18lelXw8tt2obsX4sJY6fiJZ9PpOePn9GHZf0YWIEyRXJVIgiah9VbeCr+dT6QarQoq7cv0YZU6SnrqXbvmpXpR+3T6Oc3tkoZ9psVvVy4hkIiHnQM+6zx+0S2XuRen7r1q304MGDMPd/7do1qlu3LidpnDFjBiVJkiTMvq+jAVoUtIhKucvy9J9Na0rx48YnmAwvqMy+Wg4pDaT61EDqsKQ3QTMKS7ae3UXngy/Re74FjC7Q0Dr5t6L4SqOxJzvP/0UVcpWin3bMoDozWtDXq0awRmbuO3D1t3Tr0W0aV3OYuZrLR66doHczvkNx1H9tfu1uaEWbz+x0qN084Zk752mFMlVCKwRh2QqIEKTWvkQL2yY59xAEhLQ85EZ72jYTJUpE7du3p/nz57OG1bp1a05fb4tDhw4dOL09TIMpUqSwbXb6vFKlSmxmhKkxPNHE5JsqozKLjaVL6oH8TdWveci5OxeNoXHjxqUdilzGbZtCBUeXoQUHfzPaUOjy+9fs1/If/ymlS56WZjQcZ9Ue3sndJ/dp9Yk/qePS3rT9/B4atG405Rvpbww5F3yR68bVHE7JEyYz6nXh4b+PCCZK+KGm7ZlLswNCzJogT0hE7eiD68Onl31YUbr+4CYtavIzqkPJ4LVjKG6cuPRF8cBQbVLhGQgIaXnGffbIXXbs2JHWrVtHgYGBdPDgQapRowYHWZjByJ49O9WsWZP69etH58+fNzdFqYy092nTpiVvb+9w5/lXRetBrt2/QX1XDldmvEGGhqHb/uq0hm4PPE7X+x+hE92380MbfjCz1FNmtYEVu9N7PgUI2tvEHb+Ym8Mtv7S8ZM3uXO+97IeCuQ5EdfrWWR4H7S9HmqxsXrQ3EcZDy6qpzIeV3y5HNd75hLs9fxESTBJROzrnS5+bRlTpRxVzlyH0/9+aUaEuBY10ufL9QStMEj9xqHap8AwEhLQ84z577C7z5s3LhLR582Zq06YNjR8/3gi+ACiDBg2i4cOHM8F07tyZXr58yVhBswlLQEgRydGjRwn+NFwvPPFL5cvN8GPlfis7tfvoc9Y0UJkldSZuS6V8Ulpypc1OZXJ8RHceBzPR6Primd9nn9fer9ayH+nbjeMdDl2HKc7XKyNl/m8tjQrX5mmn75nHpkgEPSRJmJhNhwGz23Db3P2LDWLB+N+PrlY+qOs0J2CCWv8N7uOXyoePEbWjU6aUPtSl1Je0quU83gc0voNXjvB4/QdEDLNpjzIddJUcPRCBsP/P9EAwZMvui0D8+PGpePHivEGEu2tJkCABmwW/++47Qkj7tGnTuEn7tnR0ISp1OWnSpNwnvD9nzpyhS5cucbRheP18U2ZgzQl9fmsWoh2tP7WZ67Kk9rM79PydS9wO35c98fFKT89ePDPIz14fc51vyoxMgrruwn9mvVyKRFMkSk4FMuTliMITN0/TqVtnuBtMitDGIJlT+7J2NL7WCALBrlKmPkghn/x8jKidO5n+ZP6PrEFcZhmzeQKlTORF5XL6m6ul7GEICGl52A33lO2CYAICAjjsHO9c7d69m8aNG0fQvN5+++1QMJQrV47q1KlDffv25bB4BHEUKFCApk6dSiA5hL9PmTKFYE5MlSpVqPHOViA6EEEYMIkdunaMfTvQWqBNIZIPgQkNZ39J609toZ0X9lLLBZ2ZOKBZQRCUUWt6cxW8sI4jDwesHknLjq6hghnzUfrkb3EfaCe//r2cECoOQeAEyidvhoSUf1EskAMvOiu/GPxS7Rb3YlKsW7A6ZVXEebDLn8ZnV4eVPEfr4k1oSt0xXG734ed8PKrmPXztOPVS0YjwfcHUB4movcqUAJq5dyGPRWRgt2UDOZoxsHBdHo8/mPfsnQvUrGh9o04KnolAHIsSz9y67NqdEcC7VA0aNGDtSe/zk08+4eCM9957jxCSXrp0aQ7U8PcP+eZ++/Zt1sZy585Nv//+Ox07doxatWrFgRqYI0uWLDRx4kQmMz1ndBzxIvB735XnhzLm80vpS/s6ryNv9W4WiCXPyBJMavpaICS8g4WACzzMC39XgTUrtCNIoagKM59UdzRrSKhDYEP6/72DopV0VBGFQSoU/oXlhYpMbMLviukOeGcMIfi28uDpQw6b71W2Ew39pLfRDL8X3seCIHx+Q+tf6aOsRR1qzzgoxA+nOyOcfXDlXoTwfS1N5ranX/YuoAt99rEpUdfL0fMQENLyvHvuUTvGy8HQtDJmzEiIKIys4DsdwuJxTJ8+PYXn64rs3Lb98SsSL9V1tG9Jt0NTOn7jNN1/+oDypstFKRN76SbjiEg9+JJgkgvLbGh0DqMAQoIJMK8KinAm0OGeMhleUHt4J31oTRaXDK/91qM7dOb2OYLPzt7+wliyVHsgAkJaHnjTZcuCgCAgCMRWBMSnFVvvnKxbEBAEBAEPREBIywNvumxZEBAEBIHYioCQVmy9c7JuQUAQEAQ8EAEhLQ+86bJlQUAQEARiKwJCWrH1zsm6BQFBQBDwQASEtDzwpsuWBQFBQBCIrQgIacXWOyfrFgQEAUHAAxEQ0vLAmy5bFgQEAUEgtiIgpBVb75ysWxAQBAQBD0RASMsDb7psWRAQBASB2IqAkFZsvXOybkFAEBAEPBAB+wl5PBAI2bIg8CYROHDgAPn4+NBbb4WkE3FkLXfu3KG9e/caXcuXL2+UbQv4wd8XL14Q8orFRkF+Mki2bNmcWn5Uxzt1UdOgYcOGEe4XpEqVKlSmTBkuR/Rnzpw5tG/fPu6WNWtWatu2bURD3L5dNC23v8WeucEWLVrwg+HUqVMGAM2bN+e606dPG3URFS5evMgZiJ8+fRpR1yi1BwYG0vLlyyM1B359fsKECZx9GeN11mXzJOgDLJBDLHPmzFSpUiVOy2LuExvKY8eOJTz47cmiRYtoy5Yt9pqMuvDGG51eY+H58+ecZaBJkyZUpEiRUFe6evUq9erVi3r3fpXuBZ0qVqxIGIPsAphDRKXfERAEAXdEAMR04sQJzouF/eF81apVXPfs2TOHt3zhwgUaMWKEkbXY4YGR7Dh06FD66KOPIjUqT548tGDBAurZs6fdcQ8fPqSPP/6Y9w5yW7x4MX3wwQd0+fJlu/1jciVyo+HhbU9mzpxJf/75p70moy688Uan11yAlps/f35CglFb+fnnn1kThjZsFm9vbx4TJ04cc7VHl2OnrcCjb5n7bn706NHUuHFjSpcuXbRssmjRooRv4Z07d6Zly5YRzpHBWMv58+dp/fr1nJk4ZcqU9OGHH3ISSLTfvHmTNZ9//gnJ7gszTZIkSSht2rRUtWpVPQWT4Jo1a9j0g2/QlStXNtpQOHLkCPcBIa1YsYKvBdMQElBC1q1bRzdu3OCyba6uu3fvcjuSUULwwMO148WLx+cR/Zk1axbvY+XKlWx6RP9ixYpZDUNGZmCD/RYqVIiqVavG8yMPGQgxderUdOjQIapfvz5hnzivXbs2mxl37drF+06aNClniPbz86N69eoxTvoiDx484HsAHGHeQnboFClS6GbCdbZv3047duyghAkTMv4lS5Y02v/++286fPgwn0NTNAuwgyYMLQUmtOnTp3MziBqmVkh449Ee3vow94YNGwhZrZEUFMQBHKIzczXWgC9TwcHBjC2OIuEjIJpW+PhIqwsRAKGAYCZNmkR4YEdVSpUqRffu3WPiwAP4s88+s5oSGhTICFmOce1atWrR1KlTuQ+0MTystSkR5GM+Ryc8xEFAmBuZkD///HMC8Zpl27Zt1L17d36Yjxo1ikkLWpUWzIs+Xbp0CWXigrlwyJAhdOvWLYLG17VrV/ryyy/10AiPmzZtYpLSD3DbASBDEHVQUBAdPXqU2rRpQ1999RV3u3//Ppur0AbiB5FAm+nXr5+BEdYHkyse5Ng/zFvI9KzlyZMnTOKoP3v2LPXp04fNXSAqLcAM+KAOe0TZLNAKgc/IkSNp2rRp5iYC4eKeQKMERijjg7VrCW98ROvDve/Rowch4zWw/OGHH1hTjU4zHUgTxPjOO+9Q4sSJ9bLlGB4CykErIgjECATUw8+ivqnzRz0MLUuWLLGoB4RTa1OajGXMmDGWr7/+2tKwYUNLrly5LMePH7eoDMYWRRQ8p8pobDV3t27dLMWLF7eqUw9MHqO+AVvVK6KzFChQwNKhQwejfunSpXwdtGlRBMzj1UPXousVkepm44i5FGEa5yjcvn3bGINzZd7jua5cuYJTQ5QGx/XKtGTUoVCiRAmr9Vk1qhOsHddVD31u+uWXX3geRWAWpb1wGVjNnTuXy1h/3759LZ06deL+wBZ4qiASPleaD5+rgAM+1+OUtsPnGn+lEfH5pUuXuL8iPz7Hn8ePHxtlc0F9mbEoQjRXGWX1ZcQyaNAg49xewd74iNanSJrXB1wgyj/K53o/9q4TVt3//vc/y4ABA0I149+oInUL7p36wmNRpB2qDyqUCdiivkDYbfO0SjEPhsfo0vbGEMC359mzZ/O3ewQZFC5c2Km11KhRg01e0AgSJEhgNQfMUdAWNm/ezJoAvrnj44igH0xqiN4LCAjgIeqBy+amrVu3GuY/PRe0ER25ZzaP6XZ7R/SD6QxBBjBzadMRotAyZMhgb4hVHfwjtiZHc4eDBw+yBgXzHkSb5RS5GGZSrAGmU/hhsH4vLy82x+l5UA+zJUSbHmHqg5kUWiTaoUVAcufOzeZVbe5ThEdZsmShb775hv1s6guDMRcPeM1/Ilqfvjw0dkj27Nn5iPXrPXOFk3/27NnD+8a/0fDuk5PTu+0wMQ+67a2NfRuz52xGRJytczoyO4OfRmlQdp34rVu3psGDB7P/A6Tm7+/v8NTafAkfXNOmTfkD0x3Mi3g4mwV+MPh7Iivjx49n0xswADHWrFmTp3DUPAVCgL8nLFGanFWIvfYlms1rICp8tOkK/jTz9WF61A/cZMmSMUlp4gdGCFE331f4pWCyhaAeplX496ZMmcKmQ0Q6ukoiWp9eh34NAesFCSvNRjdF6QhfFuaEb1BpXOzbxNwoa7N0lC7gpoNF03LTGxvbt4Vv+HhQw2ekH4rO7Alj4SeD6Hd1UEYoPPwUyvRD+v2mhQsXoslKtHYG/wc0Di2ZMmXiIogBYeThiZ4jvD722saNG0ft2rVjXxDaQYj2BNoPBGRgDhJAYAh8bNDQzPV6DhAI3g/TYtaAdF1ER0Rowh8FbQ0+KfhoEKEIAaHNnz+foIEiiEWZF1kzhR9NC3AcOHAgDRgwgObNm8e+PWh6CNF3VBIlSsTXcLS/7ufI+nTf13FMnz49fyHTXxL0Kws4x783EfsIiKZlHxepfQMI4H9afKuHuQQBAIjaigphhbcFPLDxrRmmLGgceGDCVGgr2gw0Y8YMfijrF0ShlYCsECjxxx9/8MMawQjDhw+30kRs5zOfQ2MBoWizHx5WKGtNRPmkaP/+/aR8bxydN3HiRPNwo/z+++9zGYEC+IaOoARIs2bN+IgXUrE25QsjhFbDLAVBJOLOnTt572gH5sAEUZaREZj3EGjx3Xff8XjlJ+PhiOKDoB3aF4IpIBUqVOAj1gNcsT8Qn46ihMamReOD9+RAfvrcrO0gMhMRkjDVYi7zKw26v73xEa1Pr+F1HVu2bEnKL2h8QGLQvFCnTaqv69qxel5Pc+LJfmMuAuqBb1HRXtGyQARiqIeo1Vwq7Jod6ToQQ/nMOBABwQQI1ICzG2Vb+emnn7gdbdWrVzealU/LoqLfeAza8FFEYBU8gUAM5Y8zxpgLOshDj9VH9UIpd/vrr78s2IeuV6ZMLtsLBFAh2RZF8txuDkpQ2pPVHNinDpxQRGFRhGbMjzYEU0B0IAaOa9euZZxQryIgec8oIxADgSsI+NBrVJoVmgxRJk6jDX3MwQSKyAz80Ya5dNADJkDgh57X9qhMe8Y1MI+K/DT6Kh8ltzkyPrz16UAM4KQFGCGAI7ISViCGeR4EZUgghhkR++U4qI7VrCuLFwSigAC0Hfh9fH19rXwvkZkSWgJ+eQK+K0eDLCIzv4qyI3wLhxbqrEBDhCYHk5jtPKhHOzBw9B0wrKN///4cbAETIN5pgvYJU52tQPOBVoXgEdt2PH6gHcFvibW9CQlvfdG1HvVFwgjFR5AKrAiOCN610yZcmFI7duzoyDC37iOk5da3VzYnCLw+BDRpIZhCJHwEtAkUvfDlwFE/J75QaHNvmjRpOHoz/Cu5f6vzX93cHxvZoSAgCISDQFb1CxcijiGgIzMd6/2qFzT316G9v7pC7CuJphX77pmsWBAQBAQBj0VAogc99tbLxgUBQUAQiH0ICGnFvnsmKxYEBAFBwGMRENLy2FsvGxcEBAFBIPYhIKQV++6ZrFgQEAQEAY9FQEjLY2+9bFwQEAQEgdiHgJBW7LtnsmJBQBAQBDwWASEtj731snFBQBAQBGIfAkJase+eyYoFAUFAEPBYBIS0PPbWy8YFAUFAEIh9CMjPOMW+eyYrjoUI4EdP8YOwOqEgtoB0HUhEWLBgwRi9o0OHDnEKESwSebOQ+8osSPuBLNBIqxFZQSoXpIaBROaHZCN7HenvPggIabnPvZSd2EEAiQeRNwm/5q5SbBgZeHVX/Dr5okWLCFmHbX+BHH0iatfzRHQMDAzkBIc6xxX6z5w5k3NbLV68OKLhYbYjBxmSRaqUKfS6fgtQJycs4V+CChZ4RbDI74X8XfildhCWt7c3ValSxSoVPX6lXKVSIcyB7MfA2fxr7o0aNSKVMoZzmZkzIoe5YWnweATEPOjx/wTcG4Ddu3cTsuviwbh9+/ZQm0W23REjRoSZKTai9lAThlExdOhQQrLC6Bak9IC24or07D4ZfShbtmzGFpDGJHfu3Jz5OV++fPxr5CBiLRs2bOC0GiCzUqVKETQylb9KN/PRz8+PVI4qqzo5EQTCQ0A0rfDQkTaXIoDU8I0bN+a8TNF14dWrV3MmXuSQgqZVtmxZnlolcORv9yAzyJw5czglPHJiIaNvRO08SP1RSRMJmXZTp05Nq1at4gy8tWvXNh7EaNcZecPKwrxlyxbOTAwNpH79+myCw/z79u3jPF0wm0GQpuK3336jTz/9lFNUgCB0ll5k7oVWCIH2onNmwfS2dOlSNkXmzJmT6tSpE0rb5EFO/GnRooXVKGROhskT+cmQO0sluWQNrGvXrkxY2CfWe/DgwRhvErXamJzEKASEtGLU7fDsxUArUtl6qUyZMlSvXj1KmTJllACB2Upl9KWmTZvyQ3zChAmEZHwgDzw84atBckKIymbM5kF884dE1M6d1B8Qh8q2zCYwpJlHunqkhR84cCB3wbxIZb9w4UKCtgXiMAvS3WOvMGHiob9s2TI2V6IPSBDaoSYtXKdbt26kMvwyaWH9mrSgEWrReV1BICC4J0+esDYEcx5MoVExR+pr2B5xLWAJbEFYkAcPHvA6YTqcPHkymxFRf+zYMSEtACHiFAJCWk7BJoNeBwJ42GrfEx7WNWrUoGrVqkUqm655XXg44kEK0xQ0D5Wunsnl3XffZb/KyJEjmRTWr1/PZGYmSWg94bWbrwOfDXw3WouDRqSlQ4cOXFSp23VVqOMff/xBhQoVIpUmnjUtJAx0JP8SzILw2an079SqVSsmJvPkaEeyQXwZgL+ub9++rHUePXqU8ubNa+7qdHnr1q2s/Wm/FkhSi/ZjgVzPnz/PxLxmzRq6d++e7iJHQSDSCIhPK9KQyQBXIPDw4UOaPXs2wbS0d+9epy4JcyA0n/z58xN8LijDXBfdkjFjRoOwMHdkk/ZBQ4MUKVKEj/Z8b9wQyT8gFJBa8+bNKSAggLU0TAETY3QJfFzvv/8+wawK4tq4caMxtSayefPmcTu+PEB0YIfRUQqCQCQQEE0rEmBJ19eLAMxIeNCZBQ84BBs4IytWrGATlTlib/ny5RzF58x8YY0pWbJkWE0R1mfPnt3QJJMkScLEajb1mSeIzMMefeGXa9CgAVWqVMmYBqZSpHuPLoFGCvMmZMaMGWxy1ZocTIXwb+G+fvHFF0baeC8vr+i6vMzjgQgIaXngTY8NW4a2Au2gjPJvhRXAEN4+rl27Rvv37yeEmiPCDZIpUyZ+sMJUlTlzZq6D+QwCv4/ZPMiV6k9E7ein++gxkTkiEATmROwXD3j4geCzgiC4QwdX4BxmNlsBIUDgRzMLMAMhYl4zaZn7RHcZ64UcP36czY8gYWjM/v7+lCpVKjZ/ol37DVEWEQQii4CYByOLmPR/bQhAO4DvCb6soKAgKleunFOEhQXCTwVB4AKi3PDp2bMn1+k2nMB0CIGWAA3nzp07fK7/RNSu+9k7wj8XHBzMH7SDnHBu69P59ttv6ezZs4ToSQj8W5CiRYuyTw4+LxAWghlsBXjB7LZgwQIO7Yc/TGurMAtOmjSJpk+fzloXSHHq1KkETSg6ZOS3IwlrA0khuANmTZBoxYoVeXpt9sSa8NoB2kGmJUqUiI7LyxweioCQlofe+Ji47cKFCxMe4NCwEEYeFUGoOx6a8LVowbd9EAHatOCF1wEDBvDDvVixYmQ2JaJPRO16HntHBEDAl4YPTHXDhg3jct26dY3uWbJkYT8Q3uFCJOKYMWOMcHWsv2bNmtSyZUsmAu3zstU827Vrx+9pQSsF4eF9KAhMgZ06daJevXpxtB7wRQSh1s6MRThZCL4TTAgwmTJlChMSCBRfNPCrGZBatWpxJCFIDYQLM682JTp5SRkmCFAc9a3M2okgoAgCgoBLEcD/gpcuXeKfeLL3qxwgPJj57LU5slBofJgfZGL+GSlHxqIP3qvSLw1jDXhtQMutW7d47qxZs3J4u643H6FZIorz7bffNldzGa8BQPuEVKhQwdDSuEL+CAJ2EBDSsgOKVAkCgsArBBCBCNKDQAN2hvhezWZdwovX8HtBECASFf+g9cxy5q4ICGm5652VfQkCgoAg4IYIiE/LDW+qbEkQEAQEAXdFQEjLXe+s7EsQEAQEATdEQEjLDW+qbEkQEAQEAXdF4P8BQPfwh48/FmoAAAAASUVORK5CYII=;" parent="1" vertex="1">
          <mxGeometry x="-321.5" y="1470" width="429" height="521" as="geometry" />
        </mxCell>
        <mxCell id="FoYi5dhtlPq60JWwSgOF-32" style="edgeStyle=orthogonalEdgeStyle;rounded=0;orthogonalLoop=1;jettySize=auto;html=1;" parent="1" source="FoYi5dhtlPq60JWwSgOF-30" target="FoYi5dhtlPq60JWwSgOF-34" edge="1">
          <mxGeometry relative="1" as="geometry">
            <mxPoint x="610" y="600" as="targetPoint" />
            <Array as="points">
              <mxPoint x="600" y="620" />
              <mxPoint x="600" y="620" />
            </Array>
          </mxGeometry>
        </mxCell>
        <mxCell id="FoYi5dhtlPq60JWwSgOF-33" value="&lt;b&gt;novomind&lt;/b&gt;" style="shape=umlLifeline;perimeter=lifelinePerimeter;whiteSpace=wrap;html=1;container=1;collapsible=0;recursiveResize=0;outlineConnect=0;" parent="1" vertex="1">
          <mxGeometry x="680" y="120" width="100" height="730" as="geometry" />
        </mxCell>
        <mxCell id="FoYi5dhtlPq60JWwSgOF-34" value="" style="html=1;points=[];perimeter=orthogonalPerimeter;fillColor=#dae8fc;strokeColor=#6c8ebf;" parent="FoYi5dhtlPq60JWwSgOF-33" vertex="1">
          <mxGeometry x="45" y="499" width="10" height="31" as="geometry" />
        </mxCell>
        <mxCell id="FoYi5dhtlPq60JWwSgOF-37" value="" style="shape=image;html=1;verticalAlign=top;verticalLabelPosition=bottom;labelBackgroundColor=#ffffff;imageAspect=0;aspect=fixed;image=https://cdn1.iconfinder.com/data/icons/bootstrap-vol-3/16/filetype-xml-128.png;imageBackground=default;" parent="FoYi5dhtlPq60JWwSgOF-33" vertex="1">
          <mxGeometry x="70" y="499" width="24" height="24" as="geometry" />
        </mxCell>
        <mxCell id="FoYi5dhtlPq60JWwSgOF-39" value="OK" style="html=1;verticalAlign=bottom;endArrow=open;dashed=1;endSize=8;rounded=0;" parent="FoYi5dhtlPq60JWwSgOF-33" target="FoYi5dhtlPq60JWwSgOF-12" edge="1">
          <mxGeometry relative="1" as="geometry">
            <mxPoint x="40" y="530" as="sourcePoint" />
            <mxPoint x="-40" y="530" as="targetPoint" />
          </mxGeometry>
        </mxCell>
        <mxCell id="FoYi5dhtlPq60JWwSgOF-50" value="" style="html=1;points=[];perimeter=orthogonalPerimeter;fillColor=#f8cecc;strokeColor=#b85450;" parent="FoYi5dhtlPq60JWwSgOF-33" vertex="1">
          <mxGeometry x="46" y="659" width="10" height="50" as="geometry" />
        </mxCell>
        <mxCell id="FoYi5dhtlPq60JWwSgOF-35" value="__&lt;b&gt;send File via SSH/SFTP__&lt;/b&gt;" style="text;html=1;align=center;verticalAlign=middle;resizable=0;points=[];autosize=1;strokeColor=none;fillColor=none;" parent="1" vertex="1">
          <mxGeometry x="400" y="593" width="180" height="30" as="geometry" />
        </mxCell>
        <mxCell id="FoYi5dhtlPq60JWwSgOF-36" value="" style="shape=image;html=1;verticalAlign=top;verticalLabelPosition=bottom;labelBackgroundColor=#ffffff;imageAspect=0;aspect=fixed;image=https://cdn1.iconfinder.com/data/icons/bootstrap-vol-3/16/filetype-xml-128.png" parent="1" vertex="1">
          <mxGeometry x="382" y="593" width="24" height="24" as="geometry" />
        </mxCell>
        <mxCell id="FoYi5dhtlPq60JWwSgOF-42" value="" style="shape=umlLifeline;participant=umlActor;perimeter=lifelinePerimeter;whiteSpace=wrap;html=1;container=1;collapsible=0;recursiveResize=0;verticalAlign=top;spacingTop=36;outlineConnect=0;" parent="1" vertex="1">
          <mxGeometry x="-80" y="120" width="20" height="730" as="geometry" />
        </mxCell>
        <mxCell id="FoYi5dhtlPq60JWwSgOF-43" value="" style="html=1;points=[];perimeter=orthogonalPerimeter;" parent="FoYi5dhtlPq60JWwSgOF-42" vertex="1">
          <mxGeometry x="5" y="80" width="10" height="640" as="geometry" />
        </mxCell>
        <mxCell id="FoYi5dhtlPq60JWwSgOF-46" value="&lt;b&gt;launch&lt;/b&gt;" style="html=1;verticalAlign=bottom;endArrow=block;rounded=0;" parent="1" target="FoYi5dhtlPq60JWwSgOF-12" edge="1">
          <mxGeometry width="80" relative="1" as="geometry">
            <mxPoint x="-70" y="200" as="sourcePoint" />
            <mxPoint x="10" y="200" as="targetPoint" />
          </mxGeometry>
        </mxCell>
        <mxCell id="FoYi5dhtlPq60JWwSgOF-55" value="&lt;b&gt;inform User: FAILURE/ ABORTION&lt;br&gt;&lt;/b&gt;" style="html=1;verticalAlign=bottom;endArrow=open;dashed=1;endSize=8;rounded=0;" parent="1" target="FoYi5dhtlPq60JWwSgOF-12" edge="1">
          <mxGeometry relative="1" as="geometry">
            <mxPoint x="722.5" y="827" as="sourcePoint" />
            <mxPoint x="420" y="827" as="targetPoint" />
          </mxGeometry>
        </mxCell>
        <mxCell id="FoYi5dhtlPq60JWwSgOF-58" value="&lt;b&gt;inform User: FAILURE/ ABORTION&lt;br&gt;&lt;/b&gt;" style="html=1;verticalAlign=bottom;endArrow=open;dashed=1;endSize=8;rounded=0;" parent="1" edge="1">
          <mxGeometry relative="1" as="geometry">
            <mxPoint x="231.5" y="820" as="sourcePoint" />
            <mxPoint x="-60" y="820" as="targetPoint" />
          </mxGeometry>
        </mxCell>
      </root>
    </mxGraphModel>
  </diagram>
</mxfile>
